<svg width="100" height="99" viewBox="0 0 100 99" fill="none" xmlns="http://www.w3.org/2000/svg">
<g clip-path="url(#clip0)">
<path fill-rule="evenodd" clip-rule="evenodd" d="M61.4296 40.2726C61.6267 40.4876 61.8058 40.6847 62.0029 40.8997C62.1283 40.8459 62.2358 40.828 62.3074 40.7563C63.1315 39.9502 63.9197 39.1261 64.7438 38.3379C67.7893 35.4536 72.3217 35.4536 75.2419 38.3379C78.1619 41.2042 78.3053 45.8262 75.4031 48.8359C71.4618 52.9025 67.431 56.8617 63.4181 60.8567C62.5045 61.7703 61.6267 61.7524 60.6951 60.8208C56.718 56.8617 52.6156 52.9742 48.8355 48.8359C47.6173 47.5102 46.6141 47.349 45.1272 47.7252C43.3357 48.173 41.5801 48.2984 39.8782 47.3131C39.5199 47.1161 38.9287 47.2056 38.4629 47.3131C35.6324 47.9043 33.3214 47.1877 31.6553 44.7334C31.4941 44.5005 31.1 44.3572 30.8133 44.3393C24.9194 43.9631 20.0287 41.5446 16.3741 36.9405C14.7438 34.8982 12.9165 33.3934 10.4801 32.426C7.4167 31.2257 4.47868 29.7209 1.46901 28.4131C0.447868 27.9294 0 27.2845 0 26.1558C0.0358295 18.148 0.0179147 10.1222 0.0179147 2.11428C0.0179147 0.233235 1.14654 -0.46544 2.81261 0.358638C9.29774 3.56537 15.765 6.80794 22.268 9.99676C22.895 10.3013 23.6474 10.4625 24.3461 10.4625C32.2644 10.3371 40.1648 10.158 48.0652 10.0147C51.0928 9.96093 53.6188 11.0179 55.6073 13.3289C57.6138 15.6399 59.6381 17.9151 61.6087 20.244C63.6152 22.6266 64.278 25.3676 63.6331 28.4131C63.5435 28.8251 63.454 29.2193 63.3644 29.6313C63.0957 30.8316 63.0061 31.9602 63.436 33.2501C64.3318 35.9015 63.4181 38.2841 61.4296 40.2726ZM3.42171 4.40737C3.38588 4.60443 3.35005 4.694 3.35005 4.80149C3.35005 11.5016 3.35005 18.2017 3.33214 24.9018C3.33214 25.5467 3.67252 25.7259 4.1383 25.923C7.27338 27.3203 10.3726 28.8072 13.5256 30.1329C15.2454 30.8495 16.6786 31.7811 17.7356 33.3396C18.3088 34.1996 19.0075 34.9878 19.742 35.7402C23.5041 39.5561 28.0186 41.67 33.411 40.7026C35.6324 40.3085 37.7105 39.0544 39.8424 38.1587C41.0964 37.6392 42.2071 36.8151 43.7478 37.0301C47.8681 37.6213 52.0064 38.0512 56.1268 38.5707C58.2408 38.8395 60.0143 37.6392 60.3726 35.6686C60.713 33.7696 59.4948 32.0498 57.4167 31.584C54.2995 30.8853 51.1824 30.2225 48.0652 29.5417C45.8617 29.058 43.6582 28.6102 41.4726 28.0906C40.5052 27.8577 40.0215 27.0158 40.2365 26.12C40.4335 25.278 41.186 24.7943 42.1354 24.8839C42.44 24.9197 42.7445 24.9914 43.0491 25.063C43.8911 25.2422 44.7152 25.4034 45.6826 25.6005C45.3063 24.651 44.9839 23.8448 44.6972 23.0387C44.3389 22.0355 44.7152 21.1218 45.5751 20.7814C46.4529 20.441 47.3307 20.8173 47.7607 21.8026C48.1906 22.7879 48.5668 23.7911 48.9609 24.7943C49.7134 26.7112 49.8567 26.8008 51.9706 26.8187C52.7051 24.3823 53.1351 23.809 54.2458 24.0956C56.3776 24.6331 55.4102 26.2992 55.3386 27.6428C56.9509 28.0369 58.5095 28.431 60.086 28.8072C60.9996 26.1738 60.498 23.8628 58.5812 21.8026C56.718 19.7961 54.9445 17.7001 53.1709 15.6041C51.8094 14.0097 50.1075 13.2931 48.0473 13.3289C40.0394 13.4901 32.0136 13.6872 24.0057 13.7947C23.0383 13.8126 21.9993 13.5797 21.1394 13.1498C15.5321 10.4267 9.96059 7.6141 4.37119 4.83732C4.08456 4.694 3.76209 4.5686 3.42171 4.40737ZM62.0924 57.4529C65.7829 53.7624 69.4196 50.1974 72.9667 46.5428C73.5937 45.8979 73.9699 44.8588 74.1132 43.9631C74.364 42.3149 73.3429 40.7205 71.856 39.9681C70.2795 39.1799 68.4701 39.4307 67.1265 40.6847C65.8366 41.9029 64.6363 43.1927 63.3644 44.4109C62.5224 45.2171 61.6625 45.1992 60.8026 44.4109C60.5697 44.196 60.3547 43.981 60.1397 43.7481C59.1186 42.6195 58.1691 41.6521 56.3239 41.8671C54.7832 42.0462 53.153 41.5983 51.5944 41.3475C50.842 41.2221 50.5016 41.5446 50.3045 42.1716C49.7134 43.9272 50.1075 45.45 51.3973 46.7578C54.8191 50.1974 58.2587 53.6191 61.6983 57.0587C61.7879 57.1842 61.9133 57.2916 62.0924 57.4529ZM46.5604 44.0885C46.7574 42.924 46.9187 41.9029 47.0799 40.8459C46.5783 40.7743 46.1125 40.6847 45.6288 40.6309C45.1451 40.5593 44.6614 40.4518 44.1777 40.4876C43.4074 40.5593 42.6191 40.5951 41.9205 40.8817C40.8277 41.3117 40.4873 42.2074 40.7918 43.2286C41.0964 44.2676 41.9742 44.8409 43.1207 44.6797C44.2852 44.5184 45.4317 44.2855 46.5604 44.0885ZM37.2805 43.1211C36.5998 43.3719 36.0803 43.551 35.5607 43.7481C35.5786 43.8377 35.5786 43.9273 35.5966 43.9989C36.2057 44.0347 36.8327 44.0885 37.5672 44.1243C37.4418 43.7123 37.3701 43.4615 37.2805 43.1211Z" fill="#164284"/>
<path fill-rule="evenodd" clip-rule="evenodd" d="M43.3895 69.9756C44.124 67.1629 45.7363 65.3177 48.4952 64.6549C49.1581 64.4937 49.8746 64.4757 50.5554 64.4757C55.3745 64.4578 60.1935 64.4937 65.0305 64.4399C65.55 64.4399 66.177 64.207 66.5891 63.8666C73.4146 58.0981 83.1602 58.0623 90.0036 63.8129C90.4515 64.1891 91.1502 64.422 91.7414 64.4399C93.7836 64.5116 95.8438 64.4578 97.8861 64.4757C99.4089 64.4757 99.9821 65.049 99.9821 66.5359C99.9821 74.0601 99.9821 81.6022 99.9821 89.1264C99.9821 90.6133 99.373 91.312 97.8861 91.1687C91.2218 90.4879 85.0054 92.5302 78.7174 94.2142C74.2028 95.4144 69.6883 96.6147 65.1559 97.7971C60.4085 99.0153 55.9477 98.3345 51.8094 95.6832C42.9237 90.0221 34.0201 84.3611 25.1344 78.7C24.3999 78.2342 23.6654 77.7864 22.9488 77.2848C20.172 75.3141 19.2225 71.7312 20.6736 68.6857C22.1068 65.6581 25.4927 64.1174 28.8069 65.1565C33.3035 66.5718 37.7464 68.1124 42.2251 69.5993C42.5654 69.7068 42.9237 69.8322 43.3895 69.9756ZM96.5963 87.7649C96.5963 81.1006 96.5963 74.4901 96.5963 67.79C94.6256 67.79 92.7267 67.7541 90.8277 67.8079C89.8245 67.8258 89.0542 67.5212 88.3196 66.8405C82.6049 61.5019 74.0595 61.5198 68.3268 66.8584C67.5744 67.5571 66.8041 67.8258 65.8008 67.8258C60.5876 67.79 55.3924 67.8079 50.1792 67.8258C48.1548 67.8258 46.7217 69.1694 46.6679 71.0325C46.6142 72.9315 48.0294 74.3647 50.0717 74.4721C50.3763 74.4901 50.6987 74.4721 51.0033 74.4721C56.109 74.4721 61.2147 74.4721 66.3024 74.4721C67.5386 74.4721 68.291 75.0992 68.291 76.1024C68.3089 77.0877 67.5386 77.7864 66.3204 77.7864C60.8743 77.8043 55.4282 77.8222 49.9642 77.7685C47.3666 77.7505 45.396 76.5323 44.0703 74.2751C43.8732 73.9347 43.4791 73.5764 43.1029 73.451C38.0509 71.7312 32.999 70.0472 27.9291 68.3811C26.0839 67.772 24.382 68.5065 23.6296 70.1189C22.8413 71.767 23.3608 73.6302 24.9732 74.6692C34.683 80.8677 44.3927 87.0483 54.1204 93.193C56.9151 94.9487 60.0323 95.504 63.2211 94.7516C68.7388 93.4259 74.2387 91.939 79.7206 90.4879C85.1667 89.0368 90.559 87.2453 96.3454 87.8365C96.435 87.8186 96.4708 87.8007 96.5963 87.7649Z" fill="#164284"/>
</g>
<defs>
<clipPath id="clip0">
<rect width="100" height="98.3518" fill="white"/>
</clipPath>
</defs>
</svg>
