<svg width="100" height="100" viewBox="0 0 100 100" fill="none" xmlns="http://www.w3.org/2000/svg">
<g clip-path="url(#clip0)">
<path fill-rule="evenodd" clip-rule="evenodd" d="M26.5916 99.9999C24.5254 99.5296 23.0303 98.2361 21.6361 96.7243C20.729 95.75 19.7379 94.8429 18.814 93.8854C17.9237 92.9783 17.8733 91.8192 18.646 91.0129C19.4523 90.173 20.645 90.1898 21.5857 91.1137C22.9128 92.4071 24.2062 93.7342 25.5333 95.0444C26.9443 96.4387 28.3554 96.4219 29.8 95.0276C30.7575 94.0869 31.6982 93.1462 32.6389 92.2055C34.1676 90.6601 34.134 89.4338 32.6054 87.8884C29.0945 84.3608 25.6173 80.7995 22.1232 77.2719C19.0492 74.181 15.9583 71.1069 12.8674 68.0329C12.4139 67.5793 11.9267 67.1426 11.406 66.7394C10.6332 66.1347 9.23899 66.1851 8.41587 66.941C7.10561 68.1673 5.82894 69.4103 4.61947 70.7374C3.62837 71.8293 3.76276 73.2571 4.88824 74.4162C6.2489 75.8105 7.65995 77.1711 9.02061 78.5654C9.65894 79.2037 9.84372 79.9596 9.45736 80.7995C9.1046 81.6058 8.43267 82.0258 7.59276 81.9082C7.12241 81.841 6.58486 81.6058 6.2321 81.2699C4.72026 79.842 3.24201 78.3806 1.81416 76.8519C-0.537594 74.349 -0.554392 70.519 1.78056 67.9993C3.02363 66.6554 4.3003 65.3619 5.64416 64.1357C7.52557 62.4223 9.74293 62.0191 12.1955 62.7246C12.5146 62.8086 13.0186 62.8422 13.2202 62.6574C15.1688 60.7928 17.067 58.861 18.982 56.9628C19.1164 56.8284 19.2339 56.6773 19.3515 56.5429C15.4375 52.4777 16.9662 46.7663 21.6193 44.8513C19.1164 40.5509 21.1825 35.6626 25.8525 34.3356C25.1637 30.052 26.8604 27.1795 30.8751 25.7853C30.9255 24.5926 30.8079 23.3999 31.0599 22.2912C31.8998 18.5788 35.4946 16.4455 39.2911 17.2518C39.6606 17.3358 40.1814 17.2182 40.4837 17.0166C42.1972 15.8239 44.0786 15.9919 45.9432 16.3279C50.1595 17.0838 54.3759 17.9405 58.5922 18.7132C59.3818 18.8644 60.2217 18.7636 61.0112 18.898C64.9252 19.5531 67.3273 22.9296 66.7058 26.8436C66.6722 27.0284 66.6554 27.2299 66.6386 27.5155C68.4696 28.0362 69.9815 29.0273 70.9893 30.6904C71.9972 32.3702 72.1652 34.1676 71.7621 36.0322C75.9112 37.4265 77.6415 40.5005 76.9695 44.7001C79.5565 45.4392 81.3707 47.0519 82.0594 49.6892C82.7313 52.3097 81.9082 54.5607 79.9932 56.5429C81.6058 58.1555 83.2017 59.7345 84.7807 61.3136C84.9487 61.4816 85.1335 61.6159 85.2679 61.8007C85.9734 62.7582 86.7125 62.9934 87.9724 62.5566C90.173 61.8007 92.3063 62.3551 94.0534 63.9341C95.4308 65.1772 96.7411 66.4874 98.0009 67.8649C100.369 70.4518 100.369 74.2986 97.9001 76.7848C90.8449 83.9072 83.756 90.9961 76.6168 98.0345C74.0298 100.588 70.0822 100.504 67.4617 97.9673C66.2858 96.8419 65.1268 95.6996 64.0013 94.5237C62.0191 92.4407 61.5151 90.0218 62.5734 87.3341C62.7918 86.7965 62.6574 86.5277 62.3047 86.175C59.9361 83.84 57.6011 81.4883 55.2326 79.1533C54.9974 78.9349 54.6446 78.7333 54.3255 78.7166C52.2425 78.6326 50.1595 78.599 48.0933 78.5486C47.3374 78.5318 46.5647 78.431 45.8592 78.599C45.1368 78.7669 44.3305 79.0357 43.8098 79.5397C41.5924 81.6394 39.459 83.84 37.2753 85.9902C36.8721 86.3933 36.7881 86.6789 37.0569 87.2333C38.2832 89.8034 37.8128 92.5751 35.8474 94.6245C34.7051 95.834 33.5964 97.0938 32.303 98.1185C31.2615 98.9416 29.968 99.4288 28.7754 100.067C28.0362 99.9999 27.3139 99.9999 26.5916 99.9999ZM32.7565 53.3176C31.8158 59.0122 27.9522 61.3136 22.6944 59.3314C22.5096 59.2642 22.1568 59.281 22.0225 59.3986C19.9899 61.3976 17.9741 63.4301 16.0591 65.3451C22.0896 71.4093 28.0698 77.4063 34.1004 83.4537C34.302 83.2689 34.5371 83.0505 34.7555 82.8321C36.8721 80.7155 39.0055 78.6158 41.1053 76.4824C42.1636 75.4073 43.4234 74.8026 44.8849 74.6346C45.8424 74.517 46.8335 74.5002 47.8078 74.5338C49.4372 74.5842 51.0498 74.7186 52.6793 74.769C54.8798 74.8194 56.8788 74.3154 58.3235 72.4676C58.5083 72.2324 58.7266 72.0476 58.945 71.8461C59.9193 70.9054 61.0616 70.8214 61.8847 71.6109C62.7582 72.4508 62.6742 73.5763 61.7335 74.6346C60.8936 75.5753 60.1209 76.5832 59.365 77.5239C61.1792 79.3381 63.279 81.4547 65.3619 83.5376C71.3253 77.5575 77.3055 71.5437 83.2185 65.6139C81.2363 63.6149 79.1533 61.5151 76.8855 59.2306C76.5664 59.6337 76.2472 60.1209 75.8272 60.5408C75.2561 61.112 74.5674 61.3136 73.7779 61.028C72.35 60.5073 72.014 58.861 73.1395 57.7019C74.5674 56.2237 76.0624 54.8294 77.4735 53.3344C78.5822 52.1585 78.5654 50.4619 77.5071 49.37C76.4152 48.2277 74.7186 48.1605 73.4587 49.2356C72.8875 49.7228 72.4004 50.2939 71.8629 50.7979C70.855 51.7722 69.6791 51.8226 68.856 50.9491C68.0832 50.1259 68.1672 48.9669 69.1079 48.0094C70.183 46.9175 71.2917 45.876 72.3332 44.7505C73.4587 43.541 73.4083 41.794 72.2828 40.7021C71.1573 39.5934 69.4775 39.5766 68.2344 40.7021C67.6297 41.2565 67.0754 41.8444 66.5042 42.4155C65.4963 43.3898 64.3204 43.4906 63.4805 42.6675C62.6406 41.8444 62.7078 40.6685 63.6989 39.6606C64.858 38.468 66.0675 37.3425 67.1929 36.1162C68.3184 34.8899 68.2344 33.1765 67.109 32.0846C65.9835 30.9927 64.27 31.0095 63.0606 32.135C62.439 32.7062 61.8679 33.3445 61.2632 33.9156C60.3057 34.8227 59.113 34.8731 58.3067 34.05C57.5004 33.2269 57.5843 32.051 58.5082 31.1103C59.5833 30.0184 60.6752 28.9602 61.7503 27.8683C63.1278 26.474 63.2118 24.7606 62.0023 23.5343C60.7928 22.3248 59.0626 22.4088 57.6683 23.7863C56.0893 25.3485 54.5439 26.9276 52.9648 28.473C52.4945 28.9434 52.3769 29.2793 52.6793 29.9512C54.5607 34.1172 51.8225 38.9887 47.3542 39.4423C46.5815 39.5262 46.4135 39.795 46.3295 40.4837C45.96 43.5914 43.5074 45.9936 40.4333 46.3127C39.8118 46.3799 39.543 46.5311 39.4758 47.2198C39.2239 49.9748 37.2921 52.2257 34.6379 52.9648C34.0332 53.116 33.3781 53.2 32.7565 53.3176ZM72.0476 96.1363C72.7868 95.6996 73.5595 95.414 74.0802 94.9101C81.0011 88.0396 87.9052 81.1523 94.7925 74.2482C96.0691 72.9716 96.0523 71.5101 94.7925 70.1998C93.835 69.2255 92.8607 68.268 91.8864 67.3105C90.2905 65.7147 88.9467 65.7147 87.3508 67.3105C84.0416 70.6198 80.7323 73.929 77.4063 77.2383C73.9122 80.7323 70.4014 84.2264 66.9242 87.7204C65.5803 89.0811 65.5803 90.5425 66.9242 91.9032C67.9489 92.9447 68.9568 94.0198 70.0486 94.9773C70.5862 95.4476 71.2917 95.7164 72.0476 96.1363ZM39.1567 42.4323C40.8029 42.3987 41.7436 41.878 42.2307 40.7525C42.7515 39.5598 42.5667 38.4344 41.6428 37.5105C39.3079 35.1587 36.9729 32.8069 34.6043 30.4888C33.3277 29.2457 31.5807 29.2625 30.4216 30.4384C29.2961 31.5975 29.3129 33.2941 30.5392 34.554C32.8405 36.9057 35.1587 39.2239 37.5272 41.5084C38.048 41.9956 38.8207 42.2476 39.1567 42.4323ZM46.4471 35.713C47.8414 35.5619 48.9836 34.6548 49.2692 33.3949C49.5884 32.0342 49.1684 31.3287 47.9253 30.7408C43.9778 28.893 41.0381 26.0541 39.375 21.9721C39.2407 21.6361 38.8879 21.2834 38.5351 21.149C37.3425 20.6954 35.9818 21.1826 35.2595 22.2073C34.5539 23.2487 34.5204 24.727 35.4107 25.6509C38.4679 28.7922 41.5924 31.883 44.7337 34.9403C45.1536 35.3435 45.8592 35.4611 46.4471 35.713ZM35.7466 46.3463C35.5114 45.792 35.4107 45.1033 35.0243 44.7001C33.0925 42.6675 31.1439 40.6685 29.0945 38.7703C28.0194 37.7624 26.306 37.964 25.2813 39.0055C24.2734 40.0302 24.0886 41.6764 25.0629 42.7347C26.9947 44.8009 29.0105 46.7999 31.0767 48.7317C31.9334 49.5212 33.0757 49.4876 34.1004 48.9669C35.1083 48.4293 35.5954 47.5558 35.7466 46.3463ZM28.7754 53.0488C28.6914 52.7801 28.641 52.1921 28.3386 51.8394C27.3979 50.7811 26.4404 49.706 25.3149 48.8493C24.2062 48.0094 22.6272 48.3789 21.7201 49.4372C20.8466 50.4619 20.7794 52.0577 21.6865 53.116C22.4256 53.9727 23.2487 54.7791 24.1054 55.5014C24.9957 56.2573 26.054 56.3413 27.1123 55.8541C28.1706 55.367 28.6914 54.4767 28.7754 53.0488ZM48.7821 26.8436C50.5123 25.1134 52.1417 23.4671 53.8383 21.7537C50.2771 21.2162 46.7495 20.1747 42.8523 19.9395C43.9946 23.2991 46.2287 25.2981 48.7821 26.8436Z" fill="#164284"/>
<path fill-rule="evenodd" clip-rule="evenodd" d="M50.2269 0C51.2684 0.520746 51.6547 1.36066 51.638 2.53654C51.5708 5.17386 51.6212 7.81119 51.6212 10.4317C51.6212 11.8596 50.8484 12.7163 49.639 12.6827C48.4799 12.6659 47.7072 11.7924 47.7072 10.4485C47.6904 7.84478 47.7576 5.24106 47.6904 2.63733C47.64 1.46145 48.0263 0.587939 49.051 0C49.4542 0 49.8405 0 50.2269 0Z" fill="#164284"/>
<path fill-rule="evenodd" clip-rule="evenodd" d="M15.5718 2.41869C16.0421 1.83075 16.3613 1.17562 16.882 0.806059C17.5372 0.335708 18.3267 0.453295 18.965 0.974041C19.4858 1.4108 19.9561 1.89794 20.4433 2.38509C22.3751 4.31689 24.3069 6.23189 26.2219 8.16369C26.9778 8.91961 27.0954 9.86032 26.6082 10.6498C26.1043 11.4729 25.3484 11.7585 24.4412 11.5233C24.0549 11.4226 23.6853 11.1538 23.383 10.8682C21.0984 8.61725 18.8138 6.34948 16.5629 4.04812C16.1765 3.66176 15.9749 3.10742 15.5718 2.41869Z" fill="#164284"/>
<path fill-rule="evenodd" clip-rule="evenodd" d="M72.199 9.81022C72.5853 9.12149 72.7533 8.56714 73.1061 8.19758C75.4074 5.84583 77.7256 3.52767 80.0774 1.22631C80.9677 0.335999 82.1435 0.335999 82.9331 1.12552C83.7226 1.91504 83.7058 3.10771 82.8155 3.99802C80.4973 6.33298 78.1792 8.65114 75.8442 10.9693C75.2059 11.6076 74.366 11.8596 73.61 11.406C73.0557 11.0701 72.6861 10.3814 72.199 9.81022Z" fill="#164284"/>
<path fill-rule="evenodd" clip-rule="evenodd" d="M13.4889 87.922C12.4138 87.9052 11.5739 87.0821 11.5571 86.007C11.5403 84.9319 12.4642 83.9912 13.5393 84.008C14.5808 84.0248 15.4543 84.8983 15.4711 85.9566C15.4879 87.0653 14.6144 87.9388 13.4889 87.922Z" fill="#164284"/>
<path fill-rule="evenodd" clip-rule="evenodd" d="M66.7562 68.7719C65.6811 68.7887 64.8244 67.9656 64.8076 66.8905C64.774 65.7818 65.6643 64.8747 66.7562 64.8579C67.7809 64.8579 68.688 65.7314 68.7384 66.7729C68.7552 67.848 67.8648 68.7551 66.7562 68.7719Z" fill="#164284"/>
</g>
<defs>
<clipPath id="clip0">
<rect width="99.6976" height="100" fill="white"/>
</clipPath>
</defs>
</svg>
