<svg width="96" height="69" viewBox="0 0 96 69" fill="none" xmlns="http://www.w3.org/2000/svg">
<path d="M67.6387 37.0631C75.6791 37.0631 82.1972 30.8411 82.1972 23.1658C82.1972 15.4906 75.6791 9.26855 67.6387 9.26855C59.5983 9.26855 53.0803 15.4906 53.0803 23.1658C53.0803 30.8411 59.5983 37.0631 67.6387 37.0631Z" stroke="#164284" stroke-width="3"/>
<path d="M27.7347 37.0631C35.7751 37.0631 42.2931 30.8411 42.2931 23.1658C42.2931 15.4906 35.7751 9.26855 27.7347 9.26855C19.6943 9.26855 13.1763 15.4906 13.1763 23.1658C13.1763 30.8411 19.6943 37.0631 27.7347 37.0631Z" stroke="#164284" stroke-width="3"/>
<path d="M63.2874 43.1957C65.0768 44.6666 67.368 45.4619 69.7292 45.4318C74.5781 45.4318 77.3422 44.2355 80.2234 40.8813C80.2234 40.8813 88.1293 48.0704 87.8774 60.8887H9.58646C9.33464 48.076 17.2405 40.9037 17.2405 40.9037C20.1275 44.2578 22.8916 45.4541 27.7347 45.4541C30.0958 45.4837 32.3868 44.6885 34.1765 43.2181" stroke="#164284" stroke-width="3" stroke-linecap="round" stroke-linejoin="round"/>
<path d="M48.7291 41.0883C48.7291 41.0883 51.2589 37.5553 55.1006 37.3708C59.9143 37.136 63.1704 40.4063 63.4105 44.107C63.6506 47.8077 59.9495 51.4302 57.6304 53.5265C52.6644 58.0546 50.4566 59.413 48.7759 60.9112C47.0894 59.4186 44.8757 58.0714 39.8863 53.5657C37.5438 51.4693 33.8427 47.8189 34.0653 44.1685C34.2878 40.5181 37.5262 37.1919 42.34 37.3988C46.1875 37.5665 48.7291 41.0883 48.7291 41.0883Z" stroke="#164284" stroke-width="3" stroke-linecap="round" stroke-linejoin="round"/>
</svg>
