<svg width="1029" height="197" viewBox="0 0 1029 197" fill="none" xmlns="http://www.w3.org/2000/svg">
<path d="M933.5 85.3594C937.679 85.3594 941.078 81.9598 941.078 77.7812V76.2656C941.078 72.087 937.679 68.6875 933.5 68.6875C929.321 68.6875 925.922 72.087 925.922 76.2656V77.7812C925.922 81.9598 929.321 85.3594 933.5 85.3594ZM928.953 76.2656C928.953 73.7586 930.993 71.7188 933.5 71.7188C936.007 71.7188 938.047 73.7586 938.047 76.2656V77.7812C938.047 80.2883 936.007 82.3281 933.5 82.3281C930.993 82.3281 928.953 80.2883 928.953 77.7812V76.2656Z" fill="#474646"/>
<path d="M939.576 85.4092H938.29C937.763 85.4092 937.275 85.6822 936.999 86.1304C936.115 87.5671 934.84 88.3908 933.5 88.3908C932.16 88.3908 930.885 87.5671 930.001 86.1304C929.725 85.6822 929.237 85.4092 928.71 85.4092H927.424C924.017 85.4092 921.375 88.6414 921.375 91.422V94.7049C921.375 96.2376 922.622 97.4845 924.155 97.4845H942.852C944.381 97.4845 945.625 96.2404 945.625 94.7111V91.422C945.625 90.1027 945.01 88.6261 943.981 87.4725C942.793 86.142 941.229 85.4092 939.576 85.4092ZM942.594 94.4533H924.406V91.422C924.406 90.3982 925.581 88.4404 927.424 88.4404H927.91C929.345 90.3461 931.343 91.422 933.5 91.422C935.657 91.422 937.655 90.3461 939.089 88.4404H939.576C941.418 88.4404 942.594 90.3982 942.594 91.422V94.4533H942.594Z" fill="#474646"/>
<path d="M933.5 18.6719C937.679 18.6719 941.078 15.2723 941.078 11.0938V9.57812C941.078 5.39955 937.679 2 933.5 2C929.321 2 925.922 5.39955 925.922 9.57812V11.0938C925.922 15.2723 929.321 18.6719 933.5 18.6719ZM928.953 9.57812C928.953 7.07109 930.993 5.03125 933.5 5.03125C936.007 5.03125 938.047 7.07109 938.047 9.57812V11.0938C938.047 13.6008 936.007 15.6406 933.5 15.6406C930.993 15.6406 928.953 13.6008 928.953 11.0938V9.57812Z" fill="#474646"/>
<path d="M939.576 18.7217H938.29C937.763 18.7217 937.275 18.9947 936.999 19.4429C936.115 20.8794 934.84 21.7033 933.5 21.7033C932.16 21.7033 930.885 20.8794 930.001 19.4429C929.725 18.9947 929.237 18.7217 928.71 18.7217H927.424C924.017 18.7217 921.375 21.9539 921.375 24.7345V28.0174C921.375 29.5501 922.622 30.797 924.155 30.797H942.852C944.381 30.797 945.625 29.5529 945.625 28.0236V24.7345C945.625 23.4152 945.01 21.9386 943.981 20.785C942.793 19.4545 941.229 18.7217 939.576 18.7217ZM942.594 27.7658H924.406V24.7345C924.406 23.7107 925.581 21.7529 927.424 21.7529H927.91C929.345 23.6586 931.343 24.7345 933.5 24.7345C935.657 24.7345 937.655 23.6586 939.089 21.7529H939.576C941.418 21.7529 942.594 23.7107 942.594 24.7345V27.7658H942.594Z" fill="#474646"/>
<path d="M962.297 42.9219V44.4375C962.297 48.6161 965.696 52.0156 969.875 52.0156C974.054 52.0156 977.453 48.6161 977.453 44.4375V42.9219C977.453 38.7433 974.054 35.3438 969.875 35.3438C965.696 35.3438 962.297 38.7433 962.297 42.9219ZM965.328 42.9219C965.328 40.4148 967.368 38.375 969.875 38.375C972.382 38.375 974.422 40.4148 974.422 42.9219V44.4375C974.422 46.9445 972.382 48.9844 969.875 48.9844C967.368 48.9844 965.328 46.9445 965.328 44.4375V42.9219Z" fill="#474646"/>
<path d="M980.356 54.1288C979.168 52.7982 977.604 52.0654 975.951 52.0654H974.665C974.138 52.0654 973.65 52.3384 973.374 52.7867C972.49 54.2231 971.215 55.047 969.875 55.047C968.535 55.047 967.26 54.2231 966.376 52.7867C966.1 52.3384 965.612 52.0654 965.085 52.0654H963.799C960.392 52.0654 957.75 55.2977 957.75 58.0783V61.3611C957.75 62.8938 958.997 64.1408 960.53 64.1408H979.227C980.756 64.1408 982 62.8967 982 61.3674V58.0783C982 56.7589 981.385 55.2823 980.356 54.1288ZM978.969 61.1095H960.781V58.0783C960.781 57.0545 961.956 55.0967 963.799 55.0967H964.285C965.72 57.0024 967.718 58.0783 969.875 58.0783C972.032 58.0783 974.03 57.0024 975.464 55.0967H975.951C977.793 55.0967 978.969 57.0545 978.969 58.0783V61.1095H978.969Z" fill="#474646"/>
<path d="M897.125 52.0156C901.304 52.0156 904.703 48.6161 904.703 44.4375V42.9219C904.703 38.7433 901.304 35.3438 897.125 35.3438C892.946 35.3438 889.547 38.7433 889.547 42.9219V44.4375C889.547 48.6161 892.946 52.0156 897.125 52.0156ZM892.578 42.9219C892.578 40.4148 894.618 38.375 897.125 38.375C899.632 38.375 901.672 40.4148 901.672 42.9219V44.4375C901.672 46.9445 899.632 48.9844 897.125 48.9844C894.618 48.9844 892.578 46.9445 892.578 44.4375V42.9219Z" fill="#474646"/>
<path d="M909.25 61.3674V58.0783C909.25 56.7589 908.635 55.2823 907.606 54.1288C906.418 52.7982 904.854 52.0654 903.201 52.0654H901.915C901.388 52.0654 900.9 52.3384 900.624 52.7867C899.74 54.2231 898.465 55.047 897.125 55.047C895.785 55.047 894.51 54.2231 893.626 52.7867C893.35 52.3384 892.862 52.0654 892.335 52.0654H891.049C887.642 52.0654 885 55.2977 885 58.0783V61.3611C885 62.8938 886.247 64.1408 887.78 64.1408H906.477C908.006 64.1408 909.25 62.8967 909.25 61.3674ZM906.219 61.1095H888.031V58.0783C888.031 57.0545 889.206 55.0967 891.049 55.0967H891.535C892.97 57.0024 894.968 58.0783 897.125 58.0783C899.282 58.0783 901.28 57.0024 902.714 55.0967H903.201C905.043 55.0967 906.219 57.0545 906.219 58.0783V61.1095H906.219Z" fill="#474646"/>
<path d="M919.224 83.9672C911.757 80.7775 905.491 75.092 901.58 67.9582C901.178 67.2242 900.257 66.9554 899.523 67.3578C898.789 67.7602 898.52 68.6813 898.922 69.4153C903.157 77.1419 909.945 83.2999 918.034 86.7548C918.228 86.8378 918.429 86.877 918.628 86.877C919.217 86.877 919.777 86.5318 920.023 85.9562C920.351 85.1865 919.994 84.2961 919.224 83.9672Z" fill="#474646"/>
<path d="M967.477 67.3593C966.743 66.9568 965.821 67.2258 965.419 67.9597C961.509 75.0919 955.244 80.7764 947.779 83.9659C947.009 84.2946 946.652 85.1854 946.981 85.9551C947.227 86.5307 947.786 86.8757 948.375 86.8757C948.574 86.8757 948.776 86.8365 948.97 86.7533C957.057 83.2984 963.842 77.1416 968.077 69.4168C968.48 68.6829 968.211 67.7616 967.477 67.3593Z" fill="#474646"/>
<path d="M945.144 16.0281C953.219 18.7549 960.121 24.2803 964.577 31.5864C964.863 32.0545 965.362 32.313 965.873 32.313C966.142 32.313 966.414 32.2413 966.66 32.0911C967.375 31.6552 967.601 30.7225 967.165 30.0079C962.339 22.095 954.862 16.1103 946.114 13.1562C945.321 12.8885 944.461 13.3142 944.193 14.1074C943.925 14.9003 944.351 15.7604 945.144 16.0281Z" fill="#474646"/>
<path d="M900.339 32.0909C900.586 32.2413 900.858 32.313 901.127 32.313C901.638 32.313 902.137 32.0545 902.422 31.5864C906.88 24.2788 913.783 18.753 921.86 16.0268C922.654 15.7591 923.08 14.8992 922.812 14.1061C922.544 13.3129 921.684 12.8868 920.891 13.1549C912.14 16.1085 904.662 22.0937 899.835 30.0081C899.399 30.7223 899.625 31.655 900.339 32.0909Z" fill="#474646"/>
<path d="M352.574 92.1495H345.299V53.3497H350.149C352.11 53.3497 353.879 52.1679 354.631 50.3556C355.381 48.5433 354.967 46.4578 353.58 45.0691L309.93 1.41937C308.983 0.47363 307.741 0 306.5 0C305.258 0 304.017 0.47363 303.071 1.42108L289.525 14.9654V9.69994C289.525 7.02109 287.354 4.84997 284.675 4.84997H279.825C277.146 4.84997 274.975 7.02109 274.975 9.69994V29.5153L259.421 45.0691C258.034 46.4563 257.618 48.5418 258.37 50.3556C259.12 52.1679 260.889 53.3497 262.85 53.3497H267.7V92.1495H260.425C259.085 92.1495 258 93.2343 258 94.5744C258 95.9146 259.085 96.9994 260.425 96.9994H352.574C353.915 96.9994 354.999 95.9146 354.999 94.5744C354.999 93.2343 353.915 92.1495 352.574 92.1495ZM279.825 9.69994H284.675V19.8154L279.825 24.6653V9.69994ZM313.775 92.1495H299.225V58.1997H313.775V92.1495ZM340.45 92.1495H318.625V58.1997C318.625 55.5208 316.454 53.3497 313.775 53.3497H299.225C296.546 53.3497 294.375 55.5208 294.375 58.1997V92.1495H272.55V48.4997H262.85L306.5 4.84997L350.149 48.4997H340.45V92.1495Z" fill="#474646"/>
<path d="M715.922 81.7092H699.147C696.968 81.7092 695.195 79.9365 695.195 77.7576V48.8774H751.411V51.338C751.411 52.2242 752.129 52.9426 753.016 52.9426C753.902 52.9426 754.62 52.2242 754.62 51.338V48.8774H755.076C757.023 48.8774 758.606 47.2939 758.606 45.3475V38.2861C758.606 36.3397 757.023 34.7562 755.076 34.7562H752.023L730.452 4.04539C728.926 1.87328 725.918 1.34737 723.746 2.8729C723.589 2.9833 723.443 3.10333 723.303 3.22828C723.163 3.10333 723.018 2.9833 722.86 2.8729C720.688 1.34737 717.68 1.87328 716.154 4.04539L694.583 34.7562H691.53C689.584 34.7562 688 36.3397 688 38.2861V45.3475C688 47.2939 689.584 48.8774 691.53 48.8774H691.986V77.7576C691.986 81.7062 695.198 84.9186 699.147 84.9186H715.922C716.808 84.9186 717.526 84.2001 717.526 83.3139C717.526 82.4277 716.808 81.7092 715.922 81.7092ZM725.59 5.49924C726.315 4.99066 727.317 5.16611 727.826 5.89014L750.643 38.3751C751.152 39.0991 750.976 40.1019 750.252 40.6105C749.901 40.8568 749.476 40.9518 749.054 40.8779C748.632 40.8041 748.263 40.5703 748.017 40.2196L725.2 7.73468C724.691 7.01065 724.866 6.00782 725.59 5.49924ZM723.303 10.6184L740.257 34.7562H706.349L723.303 10.6184ZM695.963 38.3753L718.78 5.89014C719.092 5.44597 719.59 5.20826 720.096 5.20826C720.414 5.20826 720.736 5.30261 721.016 5.49924C721.74 6.00782 721.915 7.01065 721.407 7.73468L698.589 40.2198C698.343 40.5705 697.975 40.8043 697.552 40.8782C697.13 40.9518 696.704 40.857 696.354 40.6107C695.63 40.1019 695.455 39.0991 695.963 38.3753ZM691.209 45.3473V38.2858C691.209 38.1091 691.353 37.9653 691.53 37.9653H692.655C692.104 39.8841 692.786 42.0265 694.509 43.2366C695.329 43.8124 696.285 44.1126 697.266 44.1126C697.545 44.1126 697.825 44.0884 698.105 44.0394C699.372 43.818 700.477 43.1166 701.216 42.0644L704.095 37.9653H742.512L745.391 42.0644C746.13 43.1166 747.234 43.8182 748.501 44.0394C748.781 44.0884 749.062 44.1126 749.34 44.1126C750.321 44.1126 751.277 43.8122 752.097 43.2366C753.82 42.0265 754.502 39.8841 753.951 37.9653H755.076C755.253 37.9653 755.397 38.1091 755.397 38.2858V45.3473C755.397 45.5241 755.253 45.6678 755.076 45.6678H691.53C691.353 45.6681 691.209 45.5243 691.209 45.3473Z" fill="#474646"/>
<path d="M766.557 54.9717C766.253 54.6334 765.819 54.4404 765.364 54.4404H742.648C742.193 54.4404 741.759 54.6336 741.455 54.9717C741.151 55.31 741.004 55.7614 741.052 56.2139L741.843 63.6888C741.937 64.5701 742.727 65.2096 743.608 65.1157C744.489 65.0224 745.128 64.2323 745.035 63.351L744.431 57.6498H763.581L760.479 86.9622H753.578C752.692 86.9622 751.974 87.6806 751.974 88.5668C751.974 89.4531 752.692 90.1715 753.578 90.1715H761.923C762.743 90.1715 763.432 89.5519 763.518 88.7359L766.96 56.2141C767.008 55.7614 766.862 55.31 766.557 54.9717Z" fill="#474646"/>
<path d="M746.815 70.5612C744.372 68.1187 741.406 66.4631 738.461 65.8993C735.29 65.2921 732.502 66.0003 730.609 67.8927C729.962 68.5402 729.447 69.3051 729.078 70.1663C728.764 70.9001 728.36 71.5801 727.883 72.1976C727.457 71.8563 726.937 71.4832 726.339 71.1314C728.784 68.3294 728.842 64.0701 726.322 61.2003L725.73 60.5257C725.145 59.8596 724.132 59.794 723.466 60.3785L722.791 60.9709C720.234 63.2162 719.562 66.8206 720.905 69.7691C720.644 69.7927 720.381 69.8271 720.114 69.8798C719.244 70.0505 718.677 70.8941 718.848 71.7637C719.019 72.6334 719.863 73.1991 720.732 73.029C722.585 72.6646 724.324 73.5643 725.46 74.3853C725.061 74.6333 724.642 74.8534 724.203 75.0413C723.342 75.4099 722.577 75.9252 721.93 76.5726C720.032 78.47 719.212 81.1164 719.618 84.0248C720.011 86.8306 721.563 89.7118 723.989 92.1374C726.003 94.1519 729.713 96.027 733.011 96.6975C734.01 96.9006 735.015 97.0001 736.012 97.0001C739.952 97.0001 743.771 95.4452 746.627 92.5897C750.212 89.0047 751.744 83.8968 750.724 78.9261C749.962 75.2071 748.647 72.3929 746.815 70.5612ZM724.371 63.9475C725.296 65.4883 725.167 67.4605 724.051 68.8686C723.126 67.3277 723.254 65.3554 724.371 63.9475ZM744.357 90.3201C741.542 93.1347 737.539 94.3429 733.651 93.5521C730.997 93.0125 727.819 91.4286 726.258 89.8678C724.323 87.9323 723.094 85.6992 722.797 83.5795C722.533 81.6926 723.03 80.0101 724.199 78.8416C724.556 78.4845 724.982 78.1985 725.466 77.9914C728.43 76.7228 730.76 74.3924 732.029 71.4288C732.236 70.9451 732.521 70.5189 732.879 70.1618C733.732 69.3087 734.94 68.9037 736.317 68.9037C738.876 68.9037 742.019 70.304 744.546 72.8305C745.906 74.1906 746.955 76.5212 747.58 79.5702C748.382 83.4813 747.177 87.4999 744.357 90.3201Z" fill="#474646"/>
<path d="M560.585 25.1097C559.936 21.5474 558.308 18.2351 555.878 15.5288C555.873 15.5235 555.869 15.5181 555.864 15.5128C554.619 14.1075 552.557 12.1753 549.8 10.9509L549.737 10.9231C547.076 9.64691 544.221 9 541.251 9C536.858 9 532.703 10.418 529.235 13.101C529.231 13.1036 529.216 13.1159 529.211 13.119C526.23 15.4472 524.262 18.774 524.019 19.1978C524.008 19.2164 523.997 19.2352 523.987 19.254C522.423 22.1217 521.596 25.3725 521.596 28.6548C521.596 29.3364 521.632 30.0264 521.703 30.7052C521.768 31.3395 522.148 31.8984 522.713 32.194C523.071 32.3812 523.445 32.537 523.829 32.6602C525.36 37.3469 528.704 41.0952 532.955 43.2031C531.133 44.134 529.496 45.3647 528.08 46.87C527.36 47.6353 527.397 48.8395 528.163 49.5594C528.928 50.2791 530.132 50.2422 530.852 49.4769C531.533 48.7534 532.277 48.1108 533.081 47.5533C534.232 50.8166 537.201 53.2073 540.578 53.2073H540.862C544.244 53.2073 547.21 50.6451 548.293 47.1782C552.311 49.6969 554.882 54.1843 554.882 58.9845V78.7482L537.576 89.9775C536.694 90.5495 536.443 91.7278 537.016 92.6092C537.38 93.1707 537.99 93.4763 538.613 93.4763C538.968 93.4763 539.327 93.3771 539.647 93.1695L557.82 81.3777C558.36 81.0269 558.687 80.4261 558.687 79.7816V58.9845C558.687 52.2465 554.925 46.2069 548.98 43.1933C554.61 40.3836 558.591 34.7127 558.981 28.1078C559.518 27.6209 559.985 27.0489 560.359 26.4056C560.586 26.0146 560.666 25.5549 560.585 25.1097ZM540.862 49.4022H540.578C538.301 49.4022 536.377 47.1951 536.377 44.5825C536.377 44.5499 536.376 44.5176 536.375 44.4852C537.85 44.8731 539.393 45.0784 540.975 45.0784C542.328 45.0784 543.647 44.9276 544.917 44.642C544.768 47.2144 542.937 49.4022 540.862 49.4022ZM540.975 41.2731C535.238 41.2731 530.151 37.8554 527.922 32.7325C530.564 31.9852 532.585 29.7438 533.011 26.9833C534.146 27.1291 535.297 27.2026 536.451 27.2026C540.321 27.2026 544.049 26.3913 547.388 24.8378C548.249 27.7929 550.982 29.9586 554.211 29.9586C554.447 29.9586 554.681 29.9467 554.912 29.9234C553.571 36.3877 547.814 41.2731 540.975 41.2731ZM554.211 26.1535C552.392 26.1535 550.912 24.6739 550.912 22.855V21.7962C550.912 21.1038 550.536 20.4662 549.93 20.1311C549.324 19.7957 548.584 19.8164 547.997 20.1848C544.649 22.2866 540.657 23.3975 536.451 23.3975C534.806 23.3975 533.172 23.2241 531.594 22.8821C531.032 22.7601 530.445 22.8992 529.997 23.2605C529.549 23.6218 529.289 24.1662 529.289 24.7415V25.8957C529.289 27.7144 527.809 29.1942 525.99 29.1942C525.865 29.1942 525.742 29.1873 525.62 29.1737C525.592 29.1695 525.564 29.1659 525.535 29.163C525.493 29.1573 525.451 29.1504 525.409 29.1431C525.404 28.9799 525.401 28.8172 525.401 28.655C525.401 26.0151 526.063 23.4018 527.317 21.096C527.322 21.0867 527.327 21.0777 527.331 21.0708C527.347 21.0415 529.066 18.0622 531.55 16.1207C531.555 16.1167 531.562 16.1119 531.563 16.111C534.358 13.9484 537.708 12.8053 541.251 12.8053C543.647 12.8053 545.949 13.3264 548.092 14.3541C548.129 14.3719 548.184 14.3969 548.256 14.4285C550.372 15.3685 551.996 16.8896 552.993 18.0101C553.004 18.0229 553.015 18.0355 553.026 18.0484C554.822 20.0407 556.077 22.4409 556.683 25.0297C556.06 25.7347 555.16 26.1535 554.211 26.1535ZM524.77 74.8342C529.081 72.2972 531.982 67.6074 531.982 62.2535C531.982 59.8443 531.394 57.5692 530.355 55.5645C530.318 55.4803 530.276 55.4001 530.228 55.324C527.758 50.7686 522.932 47.6679 517.396 47.6679C511.858 47.6679 507.032 50.7695 504.562 55.3271C504.516 55.4013 504.475 55.4796 504.438 55.5614C503.398 57.5668 502.811 59.8429 502.811 62.2535C502.811 67.6064 505.709 72.2953 510.02 74.8325C504.684 77.5907 501.305 83.0656 501.305 89.1247V96.0642C501.305 96.7147 501.637 97.3199 502.186 97.6693L516.374 106.702C516.686 106.901 517.041 107 517.396 107C517.749 107 518.102 106.902 518.412 106.706L532.635 97.72C533.189 97.3696 533.524 96.7584 533.521 96.1025L533.488 89.1156C533.459 83.0423 530.083 77.5855 524.77 74.8342ZM517.396 51.4733C520.708 51.4733 523.675 52.974 525.654 55.3314C523.09 56.0661 520.279 56.4492 517.396 56.4492C514.513 56.4492 511.701 56.0661 509.138 55.3314C511.117 52.974 514.084 51.4733 517.396 51.4733ZM506.616 62.2535C506.616 61.0175 506.825 59.8291 507.21 58.7224C510.349 59.728 513.833 60.2545 517.396 60.2545C520.959 60.2545 524.442 59.728 527.582 58.7224C527.967 59.8291 528.176 61.0175 528.176 62.2535C528.176 68.1977 523.34 73.0338 517.396 73.0338C511.452 73.0338 506.616 68.1977 506.616 62.2535ZM520.773 76.4446C520.535 78.2445 518.957 79.4613 517.528 79.4613H517.297C515.784 79.4613 514.104 78.1817 513.886 76.4122C515.01 76.691 516.186 76.8391 517.396 76.8391C518.558 76.8391 519.689 76.7024 520.773 76.4446ZM517.4 102.844L505.11 95.0201V89.1249C505.11 84.9412 507.224 81.1211 510.645 78.8698C511.834 81.5827 514.637 83.2666 517.297 83.2666H517.528C520.4 83.2666 522.938 81.3979 524.034 78.8018C527.505 81.0398 529.662 84.8898 529.682 89.1339L529.711 95.0665L517.4 102.844ZM503.733 51.7724C504.288 50.8799 504.014 49.7066 503.122 49.152C502.542 48.7919 501.942 48.4654 501.325 48.1747C503.676 46.9727 505.756 45.2511 507.407 43.0975C508.087 43.3334 508.817 43.4618 509.576 43.4618C513.232 43.4618 516.207 40.4872 516.207 36.831V32.1027C516.207 26.0921 513.911 20.3996 509.742 16.0741C505.585 11.7612 500.004 9.25591 494.027 9.0195C494.027 9.0195 494.026 9.0195 494.025 9.0195C493.506 8.99952 493.023 8.99477 492.547 9.00642C486.597 9.15007 480.984 11.5584 476.743 15.7875C472.395 20.1232 470 25.9176 470 32.1029V36.8313C470 40.4875 472.975 43.4621 476.631 43.4621C477.39 43.4621 478.12 43.3339 478.8 43.0979C480.618 45.4701 482.958 47.3183 485.607 48.5251C479.736 51.6126 476.105 57.5894 476.105 64.2078V79.7821C476.105 80.4266 476.431 81.0274 476.972 81.3782L494.233 92.578C494.552 92.7856 494.911 92.8848 495.266 92.8848C495.889 92.8848 496.5 92.579 496.864 92.0177C497.436 91.136 497.185 89.9578 496.304 89.3861L479.91 78.7487V64.2078C479.91 59.8055 481.96 55.7635 485.394 53.1552C486.572 56.5729 489.596 59.1408 492.94 59.1408H493.224C496.856 59.1408 499.754 55.8534 500.775 52.1808C500.889 52.2469 501.001 52.3147 501.113 52.3839C502.005 52.939 503.179 52.6648 503.733 51.7724ZM481.337 25.1877C480.107 27.2768 479.456 29.668 479.456 32.1029V36.8313C479.456 37.7327 479.032 38.5368 478.373 39.0545C478.316 39.0914 478.262 39.1309 478.211 39.1727C477.76 39.4784 477.216 39.6567 476.631 39.6567C475.073 39.6567 473.805 38.3893 473.805 36.8313V32.1027C473.805 21.5398 482.078 13.0658 492.638 12.8103C493.033 12.8006 493.438 12.8049 493.878 12.8217C504.265 13.2334 512.401 21.7024 512.401 32.1027V36.831C512.401 38.3891 511.134 39.6565 509.576 39.6565C508.991 39.6565 508.447 39.4779 507.995 39.1723C507.944 39.1306 507.89 39.0914 507.834 39.0545C507.175 38.5368 506.75 37.7324 506.75 36.831V32.1027C506.75 25.3867 501.747 19.5831 495.112 18.603C494.591 18.5255 494.061 18.6686 493.648 18.9973C493.236 19.326 492.979 19.8107 492.937 20.3363C492.833 21.6663 492.592 22.9777 492.219 24.2504H482.976C482.302 24.2504 481.679 24.6069 481.337 25.1877ZM493.224 55.3354H492.94C490.789 55.3354 488.678 52.7243 488.678 50.0636C488.678 49.8995 488.657 49.738 488.616 49.5832C490.061 49.9506 491.566 50.1421 493.104 50.1421C494.559 50.1421 495.986 49.9704 497.36 49.6405C497.23 52.4072 495.136 55.3354 493.224 55.3354ZM493.104 46.3368C488.669 46.3368 484.576 44.3178 481.887 40.869C482.749 39.75 483.262 38.3491 483.262 36.831V32.1027C483.262 30.7011 483.56 29.3205 484.13 28.0557H493.592C494.388 28.0557 495.1 27.5598 495.377 26.8125C495.852 25.5259 496.211 24.1985 496.45 22.8467C500.259 24.2332 502.945 27.9227 502.945 32.1027V36.831C502.945 38.3491 503.458 39.75 504.32 40.869C501.631 44.318 497.538 46.3368 493.104 46.3368Z" fill="#474646"/>
<rect x="419" y="130" width="190" height="67" fill="#2D96E2"/>
<rect x="419" y="130" width="190" height="67" fill="#2D96E2"/>
<rect x="419" y="130" width="190" height="67" fill="#2D96E2"/>
<rect x="419" y="130" width="190" height="67" fill="#164284"/>
<rect x="630" y="130" width="190" height="67" fill="#2D96E2"/>
<rect x="630" y="130" width="190" height="67" fill="#2D96E2"/>
<rect x="630" y="130" width="190" height="67" fill="#2D96E2"/>
<rect x="630" y="130" width="190" height="67" fill="#0081C2"/>
<rect x="838" y="130" width="190" height="67" fill="#2D96E2"/>
<rect x="838" y="130" width="190" height="67" fill="#2D96E2"/>
<rect x="838" y="130" width="190" height="67" fill="#2D96E2"/>
<rect x="838" y="130" width="190" height="67" fill="#C0D100"/>
<rect x="216" y="130" width="190" height="67" fill="#2D96E2"/>
<rect x="216" y="130" width="190" height="67" fill="#2D96E2"/>
<rect x="216" y="130" width="190" height="67" fill="#2D96E2"/>
<rect x="216" y="130" width="190" height="67" fill="#7AB24D"/>
<rect x="5" y="130" width="190" height="67" fill="#2D96E2"/>
<rect x="5" y="130" width="190" height="67" fill="#2D96E2"/>
<rect x="5" y="130" width="190" height="67" fill="#2D96E2"/>
<rect x="5" y="130" width="190" height="67" fill="#2D96E2"/>
<path d="M39.8828 157L38.7422 153.828H34.375L33.2578 157H31.2891L35.5625 145.531H37.5938L41.8672 157H39.8828ZM38.25 152.219L37.1797 149.109C37.1016 148.901 36.9922 148.573 36.8516 148.125C36.7161 147.677 36.6224 147.349 36.5703 147.141C36.4297 147.781 36.224 148.482 35.9531 149.242L34.9219 152.219H38.25ZM50.9375 149.031C50.9375 150.224 50.5469 151.138 49.7656 151.773C48.9844 152.409 47.8724 152.727 46.4297 152.727H45.2422V157H43.375V145.578H46.6641C48.0911 145.578 49.1589 145.87 49.8672 146.453C50.5807 147.036 50.9375 147.896 50.9375 149.031ZM45.2422 151.156H46.2344C47.1927 151.156 47.8958 150.99 48.3438 150.656C48.7917 150.323 49.0156 149.802 49.0156 149.094C49.0156 148.438 48.8151 147.948 48.4141 147.625C48.013 147.302 47.388 147.141 46.5391 147.141H45.2422V151.156ZM59.6797 157H53.2188V145.578H59.6797V147.156H55.0859V150.266H59.3906V151.828H55.0859V155.414H59.6797V157ZM66.8281 150.805H71.0312V156.539C70.3438 156.763 69.6823 156.922 69.0469 157.016C68.4167 157.109 67.7344 157.156 67 157.156C65.2708 157.156 63.9375 156.646 63 155.625C62.0625 154.599 61.5938 153.154 61.5938 151.289C61.5938 149.451 62.1224 148.013 63.1797 146.977C64.237 145.935 65.6927 145.414 67.5469 145.414C68.7396 145.414 69.8698 145.643 70.9375 146.102L70.2812 147.656C69.3542 147.229 68.4271 147.016 67.5 147.016C66.2812 147.016 65.3177 147.398 64.6094 148.164C63.901 148.93 63.5469 149.977 63.5469 151.305C63.5469 152.701 63.8646 153.763 64.5 154.492C65.1406 155.216 66.0599 155.578 67.2578 155.578C67.862 155.578 68.5078 155.503 69.1953 155.352V152.406H66.8281V150.805ZM83.9219 151.273C83.9219 153.133 83.4557 154.578 82.5234 155.609C81.5964 156.641 80.2812 157.156 78.5781 157.156C76.8542 157.156 75.5286 156.646 74.6016 155.625C73.6797 154.599 73.2188 153.143 73.2188 151.258C73.2188 149.372 73.6823 147.924 74.6094 146.914C75.5417 145.904 76.8698 145.398 78.5938 145.398C80.2917 145.398 81.6042 145.911 82.5312 146.938C83.4583 147.964 83.9219 149.409 83.9219 151.273ZM75.2031 151.273C75.2031 152.68 75.487 153.747 76.0547 154.477C76.6224 155.201 77.4635 155.562 78.5781 155.562C79.6875 155.562 80.5234 155.203 81.0859 154.484C81.6536 153.766 81.9375 152.695 81.9375 151.273C81.9375 149.872 81.6562 148.81 81.0938 148.086C80.5365 147.362 79.7031 147 78.5938 147C77.474 147 76.6276 147.362 76.0547 148.086C75.487 148.81 75.2031 149.872 75.2031 151.273ZM97.1172 153.898C97.1172 154.914 96.75 155.711 96.0156 156.289C95.2812 156.867 94.2682 157.156 92.9766 157.156C91.6849 157.156 90.6276 156.956 89.8047 156.555V154.789C90.3255 155.034 90.8776 155.227 91.4609 155.367C92.0495 155.508 92.5964 155.578 93.1016 155.578C93.8411 155.578 94.3854 155.438 94.7344 155.156C95.0885 154.875 95.2656 154.497 95.2656 154.023C95.2656 153.596 95.1042 153.234 94.7812 152.938C94.4583 152.641 93.7917 152.289 92.7812 151.883C91.7396 151.461 91.0052 150.979 90.5781 150.438C90.151 149.896 89.9375 149.245 89.9375 148.484C89.9375 147.531 90.276 146.781 90.9531 146.234C91.6302 145.688 92.5391 145.414 93.6797 145.414C94.7734 145.414 95.862 145.654 96.9453 146.133L96.3516 147.656C95.3359 147.229 94.4297 147.016 93.6328 147.016C93.0286 147.016 92.5703 147.148 92.2578 147.414C91.9453 147.674 91.7891 148.021 91.7891 148.453C91.7891 148.75 91.8516 149.005 91.9766 149.219C92.1016 149.427 92.3073 149.625 92.5938 149.812C92.8802 150 93.3958 150.247 94.1406 150.555C94.9792 150.904 95.5938 151.229 95.9844 151.531C96.375 151.833 96.6615 152.174 96.8438 152.555C97.026 152.935 97.1172 153.383 97.1172 153.898ZM105.789 157H99.3281V145.578H105.789V147.156H101.195V150.266H105.5V151.828H101.195V155.414H105.789V157ZM112.938 150.805H117.141V156.539C116.453 156.763 115.792 156.922 115.156 157.016C114.526 157.109 113.844 157.156 113.109 157.156C111.38 157.156 110.047 156.646 109.109 155.625C108.172 154.599 107.703 153.154 107.703 151.289C107.703 149.451 108.232 148.013 109.289 146.977C110.346 145.935 111.802 145.414 113.656 145.414C114.849 145.414 115.979 145.643 117.047 146.102L116.391 147.656C115.464 147.229 114.536 147.016 113.609 147.016C112.391 147.016 111.427 147.398 110.719 148.164C110.01 148.93 109.656 149.977 109.656 151.305C109.656 152.701 109.974 153.763 110.609 154.492C111.25 155.216 112.169 155.578 113.367 155.578C113.971 155.578 114.617 155.503 115.305 155.352V152.406H112.938V150.805ZM128.844 145.578V152.969C128.844 153.812 128.661 154.552 128.297 155.188C127.938 155.818 127.414 156.305 126.727 156.648C126.044 156.987 125.227 157.156 124.273 157.156C122.857 157.156 121.755 156.781 120.969 156.031C120.182 155.281 119.789 154.25 119.789 152.938V145.578H121.664V152.805C121.664 153.747 121.883 154.443 122.32 154.891C122.758 155.339 123.43 155.562 124.336 155.562C126.096 155.562 126.977 154.638 126.977 152.789V145.578H128.844ZM133.633 150.891H134.93C135.799 150.891 136.43 150.729 136.82 150.406C137.211 150.083 137.406 149.604 137.406 148.969C137.406 148.323 137.195 147.859 136.773 147.578C136.352 147.297 135.716 147.156 134.867 147.156H133.633V150.891ZM133.633 152.438V157H131.766V145.578H134.992C136.466 145.578 137.557 145.854 138.266 146.406C138.974 146.958 139.328 147.792 139.328 148.906C139.328 150.328 138.589 151.341 137.109 151.945L140.336 157H138.211L135.477 152.438H133.633ZM152.141 151.273C152.141 153.133 151.674 154.578 150.742 155.609C149.815 156.641 148.5 157.156 146.797 157.156C145.073 157.156 143.747 156.646 142.82 155.625C141.898 154.599 141.438 153.143 141.438 151.258C141.438 149.372 141.901 147.924 142.828 146.914C143.76 145.904 145.089 145.398 146.812 145.398C148.51 145.398 149.823 145.911 150.75 146.938C151.677 147.964 152.141 149.409 152.141 151.273ZM143.422 151.273C143.422 152.68 143.706 153.747 144.273 154.477C144.841 155.201 145.682 155.562 146.797 155.562C147.906 155.562 148.742 155.203 149.305 154.484C149.872 153.766 150.156 152.695 150.156 151.273C150.156 149.872 149.875 148.81 149.312 148.086C148.755 147.362 147.922 147 146.812 147C145.693 147 144.846 147.362 144.273 148.086C143.706 148.81 143.422 149.872 143.422 151.273ZM161.977 150.789L164.68 145.578H166.711L162.906 152.57V157H161.031V152.633L157.242 145.578H159.273L161.977 150.789ZM23.4766 167.578H25.4141L21.4141 179H19.4453L15.4609 167.578H17.3828L19.7656 174.68C19.8906 175.018 20.0234 175.456 20.1641 175.992C20.3047 176.523 20.3958 176.919 20.4375 177.18C20.5052 176.784 20.6094 176.326 20.75 175.805C20.8906 175.284 21.0052 174.898 21.0938 174.648L23.4766 167.578ZM26.9219 179V167.578H28.7891V179H26.9219ZM26.8125 166.664V166.469C27.1094 166.104 27.4141 165.698 27.7266 165.25C28.0443 164.802 28.2943 164.419 28.4766 164.102H30.6094V164.266C30.3385 164.583 29.9323 164.995 29.3906 165.5C28.8542 166 28.401 166.388 28.0312 166.664H26.8125ZM41.3281 179H39.0391L33.4219 169.898H33.3594L33.3984 170.406C33.4714 171.375 33.5078 172.26 33.5078 173.062V179H31.8125V167.578H34.0781L39.6797 176.633H39.7266C39.7161 176.513 39.6953 176.078 39.6641 175.328C39.6328 174.573 39.6172 173.984 39.6172 173.562V167.578H41.3281V179ZM49.2031 169.016C48.1302 169.016 47.2865 169.396 46.6719 170.156C46.0573 170.917 45.75 171.966 45.75 173.305C45.75 174.706 46.0443 175.766 46.6328 176.484C47.2266 177.203 48.0833 177.562 49.2031 177.562C49.6875 177.562 50.1562 177.516 50.6094 177.422C51.0625 177.323 51.5339 177.198 52.0234 177.047V178.648C51.1276 178.987 50.112 179.156 48.9766 179.156C47.3047 179.156 46.0208 178.651 45.125 177.641C44.2292 176.625 43.7812 175.174 43.7812 173.289C43.7812 172.102 43.9974 171.062 44.4297 170.172C44.8672 169.281 45.4974 168.599 46.3203 168.125C47.1432 167.651 48.1094 167.414 49.2188 167.414C50.3854 167.414 51.4635 167.659 52.4531 168.148L51.7812 169.703C51.3958 169.521 50.987 169.362 50.5547 169.227C50.1276 169.086 49.6771 169.016 49.2031 169.016ZM63.4375 167.578V174.969C63.4375 175.812 63.2552 176.552 62.8906 177.188C62.5312 177.818 62.0078 178.305 61.3203 178.648C60.638 178.987 59.8203 179.156 58.8672 179.156C57.4505 179.156 56.349 178.781 55.5625 178.031C54.776 177.281 54.3828 176.25 54.3828 174.938V167.578H56.2578V174.805C56.2578 175.747 56.4766 176.443 56.9141 176.891C57.3516 177.339 58.0234 177.562 58.9297 177.562C60.6901 177.562 61.5703 176.638 61.5703 174.789V167.578H63.4375ZM66.3594 179V167.578H68.2266V177.398H73.0625V179H66.3594ZM85.1719 173.273C85.1719 175.133 84.7057 176.578 83.7734 177.609C82.8464 178.641 81.5312 179.156 79.8281 179.156C78.1042 179.156 76.7786 178.646 75.8516 177.625C74.9297 176.599 74.4688 175.143 74.4688 173.258C74.4688 171.372 74.9323 169.924 75.8594 168.914C76.7917 167.904 78.1198 167.398 79.8438 167.398C81.5417 167.398 82.8542 167.911 83.7812 168.938C84.7083 169.964 85.1719 171.409 85.1719 173.273ZM76.4531 173.273C76.4531 174.68 76.737 175.747 77.3047 176.477C77.8724 177.201 78.7135 177.562 79.8281 177.562C80.9375 177.562 81.7734 177.203 82.3359 176.484C82.9036 175.766 83.1875 174.695 83.1875 173.273C83.1875 171.872 82.9062 170.81 82.3438 170.086C81.7865 169.362 80.9531 169 79.8438 169C78.724 169 77.8776 169.362 77.3047 170.086C76.737 170.81 76.4531 171.872 76.4531 173.273ZM94.2109 175.898C94.2109 176.914 93.8438 177.711 93.1094 178.289C92.375 178.867 91.362 179.156 90.0703 179.156C88.7786 179.156 87.7214 178.956 86.8984 178.555V176.789C87.4193 177.034 87.9714 177.227 88.5547 177.367C89.1432 177.508 89.6901 177.578 90.1953 177.578C90.9349 177.578 91.4792 177.438 91.8281 177.156C92.1823 176.875 92.3594 176.497 92.3594 176.023C92.3594 175.596 92.1979 175.234 91.875 174.938C91.5521 174.641 90.8854 174.289 89.875 173.883C88.8333 173.461 88.099 172.979 87.6719 172.438C87.2448 171.896 87.0312 171.245 87.0312 170.484C87.0312 169.531 87.3698 168.781 88.0469 168.234C88.724 167.688 89.6328 167.414 90.7734 167.414C91.8672 167.414 92.9557 167.654 94.0391 168.133L93.4453 169.656C92.4297 169.229 91.5234 169.016 90.7266 169.016C90.1224 169.016 89.6641 169.148 89.3516 169.414C89.0391 169.674 88.8828 170.021 88.8828 170.453C88.8828 170.75 88.9453 171.005 89.0703 171.219C89.1953 171.427 89.401 171.625 89.6875 171.812C89.974 172 90.4896 172.247 91.2344 172.555C92.0729 172.904 92.6875 173.229 93.0781 173.531C93.4688 173.833 93.7552 174.174 93.9375 174.555C94.1198 174.935 94.2109 175.383 94.2109 175.898ZM107.664 179L106.523 175.828H102.156L101.039 179H99.0703L103.344 167.531H105.375L109.648 179H107.664ZM106.031 174.219L104.961 171.109C104.883 170.901 104.773 170.573 104.633 170.125C104.497 169.677 104.404 169.349 104.352 169.141C104.211 169.781 104.005 170.482 103.734 171.242L102.703 174.219H106.031ZM113.008 179H111.156V167.578H117.602V169.156H113.008V172.727H117.312V174.312H113.008V179ZM126.133 179H119.672V167.578H126.133V169.156H121.539V172.266H125.844V173.828H121.539V177.414H126.133V179ZM133.469 169.016C132.396 169.016 131.552 169.396 130.938 170.156C130.323 170.917 130.016 171.966 130.016 173.305C130.016 174.706 130.31 175.766 130.898 176.484C131.492 177.203 132.349 177.562 133.469 177.562C133.953 177.562 134.422 177.516 134.875 177.422C135.328 177.323 135.799 177.198 136.289 177.047V178.648C135.393 178.987 134.378 179.156 133.242 179.156C131.57 179.156 130.286 178.651 129.391 177.641C128.495 176.625 128.047 175.174 128.047 173.289C128.047 172.102 128.263 171.062 128.695 170.172C129.133 169.281 129.763 168.599 130.586 168.125C131.409 167.651 132.375 167.414 133.484 167.414C134.651 167.414 135.729 167.659 136.719 168.148L136.047 169.703C135.661 169.521 135.253 169.362 134.82 169.227C134.393 169.086 133.943 169.016 133.469 169.016ZM142.695 179H140.828V169.18H137.469V167.578H146.055V169.18H142.695V179ZM147.812 179V167.578H149.68V179H147.812ZM159.211 167.578H161.148L157.148 179H155.18L151.195 167.578H153.117L155.5 174.68C155.625 175.018 155.758 175.456 155.898 175.992C156.039 176.523 156.13 176.919 156.172 177.18C156.24 176.784 156.344 176.326 156.484 175.805C156.625 175.284 156.74 174.898 156.828 174.648L159.211 167.578ZM172.797 173.273C172.797 175.133 172.331 176.578 171.398 177.609C170.471 178.641 169.156 179.156 167.453 179.156C165.729 179.156 164.404 178.646 163.477 177.625C162.555 176.599 162.094 175.143 162.094 173.258C162.094 171.372 162.557 169.924 163.484 168.914C164.417 167.904 165.745 167.398 167.469 167.398C169.167 167.398 170.479 167.911 171.406 168.938C172.333 169.964 172.797 171.409 172.797 173.273ZM164.078 173.273C164.078 174.68 164.362 175.747 164.93 176.477C165.497 177.201 166.339 177.562 167.453 177.562C168.562 177.562 169.398 177.203 169.961 176.484C170.529 175.766 170.812 174.695 170.812 173.273C170.812 171.872 170.531 170.81 169.969 170.086C169.411 169.362 168.578 169 167.469 169C166.349 169 165.503 169.362 164.93 170.086C164.362 170.81 164.078 171.872 164.078 173.273ZM181.836 175.898C181.836 176.914 181.469 177.711 180.734 178.289C180 178.867 178.987 179.156 177.695 179.156C176.404 179.156 175.346 178.956 174.523 178.555V176.789C175.044 177.034 175.596 177.227 176.18 177.367C176.768 177.508 177.315 177.578 177.82 177.578C178.56 177.578 179.104 177.438 179.453 177.156C179.807 176.875 179.984 176.497 179.984 176.023C179.984 175.596 179.823 175.234 179.5 174.938C179.177 174.641 178.51 174.289 177.5 173.883C176.458 173.461 175.724 172.979 175.297 172.438C174.87 171.896 174.656 171.245 174.656 170.484C174.656 169.531 174.995 168.781 175.672 168.234C176.349 167.688 177.258 167.414 178.398 167.414C179.492 167.414 180.581 167.654 181.664 168.133L181.07 169.656C180.055 169.229 179.148 169.016 178.352 169.016C177.747 169.016 177.289 169.148 176.977 169.414C176.664 169.674 176.508 170.021 176.508 170.453C176.508 170.75 176.57 171.005 176.695 171.219C176.82 171.427 177.026 171.625 177.312 171.812C177.599 172 178.115 172.247 178.859 172.555C179.698 172.904 180.312 173.229 180.703 173.531C181.094 173.833 181.38 174.174 181.562 174.555C181.745 174.935 181.836 175.383 181.836 175.898Z" fill="white"/>
<path d="M462.375 154.273C462.375 156.133 461.909 157.578 460.977 158.609C460.049 159.641 458.734 160.156 457.031 160.156C455.307 160.156 453.982 159.646 453.055 158.625C452.133 157.599 451.672 156.143 451.672 154.258C451.672 152.372 452.135 150.924 453.062 149.914C453.995 148.904 455.323 148.398 457.047 148.398C458.745 148.398 460.057 148.911 460.984 149.938C461.911 150.964 462.375 152.409 462.375 154.273ZM453.656 154.273C453.656 155.68 453.94 156.747 454.508 157.477C455.076 158.201 455.917 158.562 457.031 158.562C458.141 158.562 458.977 158.203 459.539 157.484C460.107 156.766 460.391 155.695 460.391 154.273C460.391 152.872 460.109 151.81 459.547 151.086C458.99 150.362 458.156 150 457.047 150C455.927 150 455.081 150.362 454.508 151.086C453.94 151.81 453.656 152.872 453.656 154.273ZM466.695 153.891H467.992C468.862 153.891 469.492 153.729 469.883 153.406C470.273 153.083 470.469 152.604 470.469 151.969C470.469 151.323 470.258 150.859 469.836 150.578C469.414 150.297 468.779 150.156 467.93 150.156H466.695V153.891ZM466.695 155.438V160H464.828V148.578H468.055C469.529 148.578 470.62 148.854 471.328 149.406C472.036 149.958 472.391 150.792 472.391 151.906C472.391 153.328 471.651 154.341 470.172 154.945L473.398 160H471.273L468.539 155.438H466.695ZM479.734 153.805H483.938V159.539C483.25 159.763 482.589 159.922 481.953 160.016C481.323 160.109 480.641 160.156 479.906 160.156C478.177 160.156 476.844 159.646 475.906 158.625C474.969 157.599 474.5 156.154 474.5 154.289C474.5 152.451 475.029 151.013 476.086 149.977C477.143 148.935 478.599 148.414 480.453 148.414C481.646 148.414 482.776 148.643 483.844 149.102L483.188 150.656C482.26 150.229 481.333 150.016 480.406 150.016C479.188 150.016 478.224 150.398 477.516 151.164C476.807 151.93 476.453 152.977 476.453 154.305C476.453 155.701 476.771 156.763 477.406 157.492C478.047 158.216 478.966 158.578 480.164 158.578C480.768 158.578 481.414 158.503 482.102 158.352V155.406H479.734V153.805ZM493.773 160L492.633 156.828H488.266L487.148 160H485.18L489.453 148.531H491.484L495.758 160H493.773ZM492.141 155.219L491.07 152.109C490.992 151.901 490.883 151.573 490.742 151.125C490.607 150.677 490.513 150.349 490.461 150.141C490.32 150.781 490.115 151.482 489.844 152.242L488.812 155.219H492.141ZM506.781 160H504.492L498.875 150.898H498.812L498.852 151.406C498.924 152.375 498.961 153.26 498.961 154.062V160H497.266V148.578H499.531L505.133 157.633H505.18C505.169 157.513 505.148 157.078 505.117 156.328C505.086 155.573 505.07 154.984 505.07 154.562V148.578H506.781V160ZM509.797 160V148.578H511.664V160H509.797ZM521.867 160H513.695V158.703L519.453 150.18H513.852V148.578H521.711V149.891L515.93 158.398H521.867V160ZM530.977 160L529.836 156.828H525.469L524.352 160H522.383L526.656 148.531H528.688L532.961 160H530.977ZM529.344 155.219L528.273 152.109C528.195 151.901 528.086 151.573 527.945 151.125C527.81 150.677 527.716 150.349 527.664 150.141C527.523 150.781 527.318 151.482 527.047 152.242L526.016 155.219H529.344ZM539.328 150.016C538.255 150.016 537.411 150.396 536.797 151.156C536.182 151.917 535.875 152.966 535.875 154.305C535.875 155.706 536.169 156.766 536.758 157.484C537.352 158.203 538.208 158.562 539.328 158.562C539.812 158.562 540.281 158.516 540.734 158.422C541.188 158.323 541.659 158.198 542.148 158.047V159.648C541.253 159.987 540.237 160.156 539.102 160.156C537.43 160.156 536.146 159.651 535.25 158.641C534.354 157.625 533.906 156.174 533.906 154.289C533.906 153.102 534.122 152.062 534.555 151.172C534.992 150.281 535.622 149.599 536.445 149.125C537.268 148.651 538.234 148.414 539.344 148.414C540.51 148.414 541.589 148.659 542.578 149.148L541.906 150.703C541.521 150.521 541.112 150.362 540.68 150.227C540.253 150.086 539.802 150.016 539.328 150.016ZM544.609 160V148.578H546.477V160H544.609ZM559.641 154.273C559.641 156.133 559.174 157.578 558.242 158.609C557.315 159.641 556 160.156 554.297 160.156C552.573 160.156 551.247 159.646 550.32 158.625C549.398 157.599 548.938 156.143 548.938 154.258C548.938 152.372 549.401 150.924 550.328 149.914C551.26 148.904 552.589 148.398 554.312 148.398C556.01 148.398 557.323 148.911 558.25 149.938C559.177 150.964 559.641 152.409 559.641 154.273ZM550.922 154.273C550.922 155.68 551.206 156.747 551.773 157.477C552.341 158.201 553.182 158.562 554.297 158.562C555.406 158.562 556.242 158.203 556.805 157.484C557.372 156.766 557.656 155.695 557.656 154.273C557.656 152.872 557.375 151.81 556.812 151.086C556.255 150.362 555.422 150 554.312 150C553.193 150 552.346 150.362 551.773 151.086C551.206 151.81 550.922 152.872 550.922 154.273ZM553.125 147.664V147.469C553.422 147.104 553.727 146.698 554.039 146.25C554.357 145.802 554.607 145.419 554.789 145.102H556.922V145.266C556.651 145.583 556.245 145.995 555.703 146.5C555.167 147 554.714 147.388 554.344 147.664H553.125ZM571.609 160H569.32L563.703 150.898H563.641L563.68 151.406C563.753 152.375 563.789 153.26 563.789 154.062V160H562.094V148.578H564.359L569.961 157.633H570.008C569.997 157.513 569.977 157.078 569.945 156.328C569.914 155.573 569.898 154.984 569.898 154.562V148.578H571.609V160ZM480.797 182H478.945V170.578H485.391V172.156H480.797V175.727H485.102V177.312H480.797V182ZM494.547 182L493.406 178.828H489.039L487.922 182H485.953L490.227 170.531H492.258L496.531 182H494.547ZM492.914 177.219L491.844 174.109C491.766 173.901 491.656 173.573 491.516 173.125C491.38 172.677 491.286 172.349 491.234 172.141C491.094 172.781 490.888 173.482 490.617 174.242L489.586 177.219H492.914ZM502.977 182L499.664 172.461H499.602C499.69 173.878 499.734 175.206 499.734 176.445V182H498.039V170.578H500.672L503.844 179.664H503.891L507.156 170.578H509.797V182H508V176.352C508 175.784 508.013 175.044 508.039 174.133C508.07 173.221 508.096 172.669 508.117 172.477H508.055L504.625 182H502.977ZM512.805 182V170.578H514.672V182H512.805ZM517.695 182V170.578H519.562V180.398H524.398V182H517.695ZM526.367 182V170.578H528.234V182H526.367ZM538.344 182L537.203 178.828H532.836L531.719 182H529.75L534.023 170.531H536.055L540.328 182H538.344ZM536.711 177.219L535.641 174.109C535.562 173.901 535.453 173.573 535.312 173.125C535.177 172.677 535.083 172.349 535.031 172.141C534.891 172.781 534.685 173.482 534.414 174.242L533.383 177.219H536.711ZM543.703 175.891H545C545.87 175.891 546.5 175.729 546.891 175.406C547.281 175.083 547.477 174.604 547.477 173.969C547.477 173.323 547.266 172.859 546.844 172.578C546.422 172.297 545.786 172.156 544.938 172.156H543.703V175.891ZM543.703 177.438V182H541.836V170.578H545.062C546.536 170.578 547.628 170.854 548.336 171.406C549.044 171.958 549.398 172.792 549.398 173.906C549.398 175.328 548.659 176.341 547.18 176.945L550.406 182H548.281L545.547 177.438H543.703Z" fill="white"/>
<path d="M680.922 159H678.633L673.016 149.898H672.953L672.992 150.406C673.065 151.375 673.102 152.26 673.102 153.062V159H671.406V147.578H673.672L679.273 156.633H679.32C679.31 156.513 679.289 156.078 679.258 155.328C679.227 154.573 679.211 153.984 679.211 153.562V147.578H680.922V159ZM690.398 159H683.938V147.578H690.398V149.156H685.805V152.266H690.109V153.828H685.805V157.414H690.398V159ZM697.734 149.016C696.661 149.016 695.818 149.396 695.203 150.156C694.589 150.917 694.281 151.966 694.281 153.305C694.281 154.706 694.576 155.766 695.164 156.484C695.758 157.203 696.615 157.562 697.734 157.562C698.219 157.562 698.688 157.516 699.141 157.422C699.594 157.323 700.065 157.198 700.555 157.047V158.648C699.659 158.987 698.643 159.156 697.508 159.156C695.836 159.156 694.552 158.651 693.656 157.641C692.76 156.625 692.312 155.174 692.312 153.289C692.312 152.102 692.529 151.062 692.961 150.172C693.398 149.281 694.029 148.599 694.852 148.125C695.674 147.651 696.641 147.414 697.75 147.414C698.917 147.414 699.995 147.659 700.984 148.148L700.312 149.703C699.927 149.521 699.518 149.362 699.086 149.227C698.659 149.086 698.208 149.016 697.734 149.016ZM709.477 159H703.016V147.578H709.477V149.156H704.883V152.266H709.188V153.828H704.883V157.414H709.477V159ZM718.539 155.898C718.539 156.914 718.172 157.711 717.438 158.289C716.703 158.867 715.69 159.156 714.398 159.156C713.107 159.156 712.049 158.956 711.227 158.555V156.789C711.747 157.034 712.299 157.227 712.883 157.367C713.471 157.508 714.018 157.578 714.523 157.578C715.263 157.578 715.807 157.438 716.156 157.156C716.51 156.875 716.688 156.497 716.688 156.023C716.688 155.596 716.526 155.234 716.203 154.938C715.88 154.641 715.214 154.289 714.203 153.883C713.161 153.461 712.427 152.979 712 152.438C711.573 151.896 711.359 151.245 711.359 150.484C711.359 149.531 711.698 148.781 712.375 148.234C713.052 147.688 713.961 147.414 715.102 147.414C716.195 147.414 717.284 147.654 718.367 148.133L717.773 149.656C716.758 149.229 715.852 149.016 715.055 149.016C714.451 149.016 713.992 149.148 713.68 149.414C713.367 149.674 713.211 150.021 713.211 150.453C713.211 150.75 713.273 151.005 713.398 151.219C713.523 151.427 713.729 151.625 714.016 151.812C714.302 152 714.818 152.247 715.562 152.555C716.401 152.904 717.016 153.229 717.406 153.531C717.797 153.833 718.083 154.174 718.266 154.555C718.448 154.935 718.539 155.383 718.539 155.898ZM720.75 159V147.578H722.617V159H720.75ZM734.93 153.18C734.93 155.065 734.406 156.508 733.359 157.508C732.312 158.503 730.805 159 728.836 159H725.641V147.578H729.172C730.99 147.578 732.404 148.068 733.414 149.047C734.424 150.026 734.93 151.404 734.93 153.18ZM732.961 153.242C732.961 150.508 731.682 149.141 729.125 149.141H727.508V157.43H728.836C731.586 157.43 732.961 156.034 732.961 153.242ZM744.477 159L743.336 155.828H738.969L737.852 159H735.883L740.156 147.531H742.188L746.461 159H744.477ZM742.844 154.219L741.773 151.109C741.695 150.901 741.586 150.573 741.445 150.125C741.31 149.677 741.216 149.349 741.164 149.141C741.023 149.781 740.818 150.482 740.547 151.242L739.516 154.219H742.844ZM757.258 153.18C757.258 155.065 756.734 156.508 755.688 157.508C754.641 158.503 753.133 159 751.164 159H747.969V147.578H751.5C753.318 147.578 754.732 148.068 755.742 149.047C756.753 150.026 757.258 151.404 757.258 153.18ZM755.289 153.242C755.289 150.508 754.01 149.141 751.453 149.141H749.836V157.43H751.164C753.914 157.43 755.289 156.034 755.289 153.242ZM766.18 159H759.719V147.578H766.18V149.156H761.586V152.266H765.891V153.828H761.586V157.414H766.18V159ZM775.242 155.898C775.242 156.914 774.875 157.711 774.141 158.289C773.406 158.867 772.393 159.156 771.102 159.156C769.81 159.156 768.753 158.956 767.93 158.555V156.789C768.451 157.034 769.003 157.227 769.586 157.367C770.174 157.508 770.721 157.578 771.227 157.578C771.966 157.578 772.51 157.438 772.859 157.156C773.214 156.875 773.391 156.497 773.391 156.023C773.391 155.596 773.229 155.234 772.906 154.938C772.583 154.641 771.917 154.289 770.906 153.883C769.865 153.461 769.13 152.979 768.703 152.438C768.276 151.896 768.062 151.245 768.062 150.484C768.062 149.531 768.401 148.781 769.078 148.234C769.755 147.688 770.664 147.414 771.805 147.414C772.898 147.414 773.987 147.654 775.07 148.133L774.477 149.656C773.461 149.229 772.555 149.016 771.758 149.016C771.154 149.016 770.695 149.148 770.383 149.414C770.07 149.674 769.914 150.021 769.914 150.453C769.914 150.75 769.977 151.005 770.102 151.219C770.227 151.427 770.432 151.625 770.719 151.812C771.005 152 771.521 152.247 772.266 152.555C773.104 152.904 773.719 153.229 774.109 153.531C774.5 153.833 774.786 154.174 774.969 154.555C775.151 154.935 775.242 155.383 775.242 155.898ZM694.336 169.578H697.727C699.299 169.578 700.435 169.807 701.133 170.266C701.836 170.724 702.188 171.448 702.188 172.438C702.188 173.104 702.016 173.659 701.672 174.102C701.328 174.544 700.833 174.823 700.188 174.938V175.016C700.99 175.167 701.578 175.466 701.953 175.914C702.333 176.357 702.523 176.958 702.523 177.719C702.523 178.745 702.164 179.549 701.445 180.133C700.732 180.711 699.737 181 698.461 181H694.336V169.578ZM696.203 174.297H698C698.781 174.297 699.352 174.174 699.711 173.93C700.07 173.68 700.25 173.258 700.25 172.664C700.25 172.128 700.055 171.74 699.664 171.5C699.279 171.26 698.664 171.141 697.82 171.141H696.203V174.297ZM696.203 175.812V179.43H698.188C698.969 179.43 699.557 179.281 699.953 178.984C700.354 178.682 700.555 178.208 700.555 177.562C700.555 176.969 700.352 176.529 699.945 176.242C699.539 175.956 698.922 175.812 698.094 175.812H696.203ZM711.984 181L710.844 177.828H706.477L705.359 181H703.391L707.664 169.531H709.695L713.969 181H711.984ZM710.352 176.219L709.281 173.109C709.203 172.901 709.094 172.573 708.953 172.125C708.818 171.677 708.724 171.349 708.672 171.141C708.531 171.781 708.326 172.482 708.055 173.242L707.023 176.219H710.352ZM707.547 168.664V168.469C707.844 168.104 708.148 167.698 708.461 167.25C708.779 166.802 709.029 166.419 709.211 166.102H711.344V166.266C711.073 166.583 710.667 166.995 710.125 167.5C709.589 168 709.135 168.388 708.766 168.664H707.547ZM722.062 177.898C722.062 178.914 721.695 179.711 720.961 180.289C720.227 180.867 719.214 181.156 717.922 181.156C716.63 181.156 715.573 180.956 714.75 180.555V178.789C715.271 179.034 715.823 179.227 716.406 179.367C716.995 179.508 717.542 179.578 718.047 179.578C718.786 179.578 719.331 179.438 719.68 179.156C720.034 178.875 720.211 178.497 720.211 178.023C720.211 177.596 720.049 177.234 719.727 176.938C719.404 176.641 718.737 176.289 717.727 175.883C716.685 175.461 715.951 174.979 715.523 174.438C715.096 173.896 714.883 173.245 714.883 172.484C714.883 171.531 715.221 170.781 715.898 170.234C716.576 169.688 717.484 169.414 718.625 169.414C719.719 169.414 720.807 169.654 721.891 170.133L721.297 171.656C720.281 171.229 719.375 171.016 718.578 171.016C717.974 171.016 717.516 171.148 717.203 171.414C716.891 171.674 716.734 172.021 716.734 172.453C716.734 172.75 716.797 173.005 716.922 173.219C717.047 173.427 717.253 173.625 717.539 173.812C717.826 174 718.341 174.247 719.086 174.555C719.924 174.904 720.539 175.229 720.93 175.531C721.32 175.833 721.607 176.174 721.789 176.555C721.971 176.935 722.062 177.383 722.062 177.898ZM724.273 181V169.578H726.141V181H724.273ZM734.023 171.016C732.951 171.016 732.107 171.396 731.492 172.156C730.878 172.917 730.57 173.966 730.57 175.305C730.57 176.706 730.865 177.766 731.453 178.484C732.047 179.203 732.904 179.562 734.023 179.562C734.508 179.562 734.977 179.516 735.43 179.422C735.883 179.323 736.354 179.198 736.844 179.047V180.648C735.948 180.987 734.932 181.156 733.797 181.156C732.125 181.156 730.841 180.651 729.945 179.641C729.049 178.625 728.602 177.174 728.602 175.289C728.602 174.102 728.818 173.062 729.25 172.172C729.688 171.281 730.318 170.599 731.141 170.125C731.964 169.651 732.93 169.414 734.039 169.414C735.206 169.414 736.284 169.659 737.273 170.148L736.602 171.703C736.216 171.521 735.807 171.362 735.375 171.227C734.948 171.086 734.497 171.016 734.023 171.016ZM746.391 181L745.25 177.828H740.883L739.766 181H737.797L742.07 169.531H744.102L748.375 181H746.391ZM744.758 176.219L743.688 173.109C743.609 172.901 743.5 172.573 743.359 172.125C743.224 171.677 743.13 171.349 743.078 171.141C742.938 171.781 742.732 172.482 742.461 173.242L741.43 176.219H744.758ZM756.469 177.898C756.469 178.914 756.102 179.711 755.367 180.289C754.633 180.867 753.62 181.156 752.328 181.156C751.036 181.156 749.979 180.956 749.156 180.555V178.789C749.677 179.034 750.229 179.227 750.812 179.367C751.401 179.508 751.948 179.578 752.453 179.578C753.193 179.578 753.737 179.438 754.086 179.156C754.44 178.875 754.617 178.497 754.617 178.023C754.617 177.596 754.456 177.234 754.133 176.938C753.81 176.641 753.143 176.289 752.133 175.883C751.091 175.461 750.357 174.979 749.93 174.438C749.503 173.896 749.289 173.245 749.289 172.484C749.289 171.531 749.628 170.781 750.305 170.234C750.982 169.688 751.891 169.414 753.031 169.414C754.125 169.414 755.214 169.654 756.297 170.133L755.703 171.656C754.688 171.229 753.781 171.016 752.984 171.016C752.38 171.016 751.922 171.148 751.609 171.414C751.297 171.674 751.141 172.021 751.141 172.453C751.141 172.75 751.203 173.005 751.328 173.219C751.453 173.427 751.659 173.625 751.945 173.812C752.232 174 752.747 174.247 753.492 174.555C754.331 174.904 754.945 175.229 755.336 175.531C755.727 175.833 756.013 176.174 756.195 176.555C756.378 176.935 756.469 177.383 756.469 177.898Z" fill="white"/>
<path d="M881.078 150.891H882.375C883.245 150.891 883.875 150.729 884.266 150.406C884.656 150.083 884.852 149.604 884.852 148.969C884.852 148.323 884.641 147.859 884.219 147.578C883.797 147.297 883.161 147.156 882.312 147.156H881.078V150.891ZM881.078 152.438V157H879.211V145.578H882.438C883.911 145.578 885.003 145.854 885.711 146.406C886.419 146.958 886.773 147.792 886.773 148.906C886.773 150.328 886.034 151.341 884.555 151.945L887.781 157H885.656L882.922 152.438H881.078ZM895.906 157H889.445V145.578H895.906V147.156H891.312V150.266H895.617V151.828H891.312V155.414H895.906V157ZM907.672 151.18C907.672 153.065 907.148 154.508 906.102 155.508C905.055 156.503 903.547 157 901.578 157H898.383V145.578H901.914C903.732 145.578 905.146 146.068 906.156 147.047C907.167 148.026 907.672 149.404 907.672 151.18ZM905.703 151.242C905.703 148.508 904.424 147.141 901.867 147.141H900.25V155.43H901.578C904.328 155.43 905.703 154.034 905.703 151.242ZM916.141 157H914.289V145.578H920.734V147.156H916.141V150.727H920.445V152.312H916.141V157ZM932.945 151.273C932.945 153.133 932.479 154.578 931.547 155.609C930.62 156.641 929.305 157.156 927.602 157.156C925.878 157.156 924.552 156.646 923.625 155.625C922.703 154.599 922.242 153.143 922.242 151.258C922.242 149.372 922.706 147.924 923.633 146.914C924.565 145.904 925.893 145.398 927.617 145.398C929.315 145.398 930.628 145.911 931.555 146.938C932.482 147.964 932.945 149.409 932.945 151.273ZM924.227 151.273C924.227 152.68 924.51 153.747 925.078 154.477C925.646 155.201 926.487 155.562 927.602 155.562C928.711 155.562 929.547 155.203 930.109 154.484C930.677 153.766 930.961 152.695 930.961 151.273C930.961 149.872 930.68 148.81 930.117 148.086C929.56 147.362 928.727 147 927.617 147C926.497 147 925.651 147.362 925.078 148.086C924.51 148.81 924.227 149.872 924.227 151.273ZM937.266 150.891H938.562C939.432 150.891 940.062 150.729 940.453 150.406C940.844 150.083 941.039 149.604 941.039 148.969C941.039 148.323 940.828 147.859 940.406 147.578C939.984 147.297 939.349 147.156 938.5 147.156H937.266V150.891ZM937.266 152.438V157H935.398V145.578H938.625C940.099 145.578 941.19 145.854 941.898 146.406C942.607 146.958 942.961 147.792 942.961 148.906C942.961 150.328 942.221 151.341 940.742 151.945L943.969 157H941.844L939.109 152.438H937.266ZM950.57 157L947.258 147.461H947.195C947.284 148.878 947.328 150.206 947.328 151.445V157H945.633V145.578H948.266L951.438 154.664H951.484L954.75 145.578H957.391V157H955.594V151.352C955.594 150.784 955.607 150.044 955.633 149.133C955.664 148.221 955.69 147.669 955.711 147.477H955.648L952.219 157H950.57ZM967.484 157L966.344 153.828H961.977L960.859 157H958.891L963.164 145.531H965.195L969.469 157H967.484ZM965.852 152.219L964.781 149.109C964.703 148.901 964.594 148.573 964.453 148.125C964.318 147.677 964.224 147.349 964.172 147.141C964.031 147.781 963.826 148.482 963.555 149.242L962.523 152.219H965.852ZM970.977 157V145.578H972.844V155.398H977.68V157H970.977ZM890.031 179H883.57V167.578H890.031V169.156H885.438V172.266H889.742V173.828H885.438V177.414H890.031V179ZM896.664 179V167.578H898.531V179H896.664ZM911.07 179H908.781L903.164 169.898H903.102L903.141 170.406C903.214 171.375 903.25 172.26 903.25 173.062V179H901.555V167.578H903.82L909.422 176.633H909.469C909.458 176.513 909.438 176.078 909.406 175.328C909.375 174.573 909.359 173.984 909.359 173.562V167.578H911.07V179ZM915.938 179H914.086V167.578H920.531V169.156H915.938V172.727H920.242V174.312H915.938V179ZM932.742 173.273C932.742 175.133 932.276 176.578 931.344 177.609C930.417 178.641 929.102 179.156 927.398 179.156C925.674 179.156 924.349 178.646 923.422 177.625C922.5 176.599 922.039 175.143 922.039 173.258C922.039 171.372 922.503 169.924 923.43 168.914C924.362 167.904 925.69 167.398 927.414 167.398C929.112 167.398 930.424 167.911 931.352 168.938C932.279 169.964 932.742 171.409 932.742 173.273ZM924.023 173.273C924.023 174.68 924.307 175.747 924.875 176.477C925.443 177.201 926.284 177.562 927.398 177.562C928.508 177.562 929.344 177.203 929.906 176.484C930.474 175.766 930.758 174.695 930.758 173.273C930.758 171.872 930.477 170.81 929.914 170.086C929.357 169.362 928.523 169 927.414 169C926.294 169 925.448 169.362 924.875 170.086C924.307 170.81 924.023 171.872 924.023 173.273ZM937.062 172.891H938.359C939.229 172.891 939.859 172.729 940.25 172.406C940.641 172.083 940.836 171.604 940.836 170.969C940.836 170.323 940.625 169.859 940.203 169.578C939.781 169.297 939.146 169.156 938.297 169.156H937.062V172.891ZM937.062 174.438V179H935.195V167.578H938.422C939.896 167.578 940.987 167.854 941.695 168.406C942.404 168.958 942.758 169.792 942.758 170.906C942.758 172.328 942.018 173.341 940.539 173.945L943.766 179H941.641L938.906 174.438H937.062ZM950.367 179L947.055 169.461H946.992C947.081 170.878 947.125 172.206 947.125 173.445V179H945.43V167.578H948.062L951.234 176.664H951.281L954.547 167.578H957.188V179H955.391V173.352C955.391 172.784 955.404 172.044 955.43 171.133C955.461 170.221 955.487 169.669 955.508 169.477H955.445L952.016 179H950.367ZM967.281 179L966.141 175.828H961.773L960.656 179H958.688L962.961 167.531H964.992L969.266 179H967.281ZM965.648 174.219L964.578 171.109C964.5 170.901 964.391 170.573 964.25 170.125C964.115 169.677 964.021 169.349 963.969 169.141C963.828 169.781 963.622 170.482 963.352 171.242L962.32 174.219H965.648ZM970.773 179V167.578H972.641V177.398H977.477V179H970.773Z" fill="white"/>
<path d="M264.547 151.891H265.844C266.714 151.891 267.344 151.729 267.734 151.406C268.125 151.083 268.32 150.604 268.32 149.969C268.32 149.323 268.109 148.859 267.688 148.578C267.266 148.297 266.63 148.156 265.781 148.156H264.547V151.891ZM264.547 153.438V158H262.68V146.578H265.906C267.38 146.578 268.471 146.854 269.18 147.406C269.888 147.958 270.242 148.792 270.242 149.906C270.242 151.328 269.503 152.341 268.023 152.945L271.25 158H269.125L266.391 153.438H264.547ZM279.375 158H272.914V146.578H279.375V148.156H274.781V151.266H279.086V152.828H274.781V156.414H279.375V158ZM288.438 154.898C288.438 155.914 288.07 156.711 287.336 157.289C286.602 157.867 285.589 158.156 284.297 158.156C283.005 158.156 281.948 157.956 281.125 157.555V155.789C281.646 156.034 282.198 156.227 282.781 156.367C283.37 156.508 283.917 156.578 284.422 156.578C285.161 156.578 285.706 156.438 286.055 156.156C286.409 155.875 286.586 155.497 286.586 155.023C286.586 154.596 286.424 154.234 286.102 153.938C285.779 153.641 285.112 153.289 284.102 152.883C283.06 152.461 282.326 151.979 281.898 151.438C281.471 150.896 281.258 150.245 281.258 149.484C281.258 148.531 281.596 147.781 282.273 147.234C282.951 146.688 283.859 146.414 285 146.414C286.094 146.414 287.182 146.654 288.266 147.133L287.672 148.656C286.656 148.229 285.75 148.016 284.953 148.016C284.349 148.016 283.891 148.148 283.578 148.414C283.266 148.674 283.109 149.021 283.109 149.453C283.109 149.75 283.172 150.005 283.297 150.219C283.422 150.427 283.628 150.625 283.914 150.812C284.201 151 284.716 151.247 285.461 151.555C286.299 151.904 286.914 152.229 287.305 152.531C287.695 152.833 287.982 153.174 288.164 153.555C288.346 153.935 288.438 154.383 288.438 154.898ZM290.648 158V146.578H292.516V158H290.648ZM295.539 158V146.578H297.406V156.398H302.242V158H295.539ZM304.211 158V146.578H306.078V158H304.211ZM315.562 158H309.102V146.578H315.562V148.156H310.969V151.266H315.273V152.828H310.969V156.414H315.562V158ZM327.555 158H325.266L319.648 148.898H319.586L319.625 149.406C319.698 150.375 319.734 151.26 319.734 152.062V158H318.039V146.578H320.305L325.906 155.633H325.953C325.943 155.513 325.922 155.078 325.891 154.328C325.859 153.573 325.844 152.984 325.844 152.562V146.578H327.555V158ZM335.43 148.016C334.357 148.016 333.513 148.396 332.898 149.156C332.284 149.917 331.977 150.966 331.977 152.305C331.977 153.706 332.271 154.766 332.859 155.484C333.453 156.203 334.31 156.562 335.43 156.562C335.914 156.562 336.383 156.516 336.836 156.422C337.289 156.323 337.76 156.198 338.25 156.047V157.648C337.354 157.987 336.339 158.156 335.203 158.156C333.531 158.156 332.247 157.651 331.352 156.641C330.456 155.625 330.008 154.174 330.008 152.289C330.008 151.102 330.224 150.062 330.656 149.172C331.094 148.281 331.724 147.599 332.547 147.125C333.37 146.651 334.336 146.414 335.445 146.414C336.612 146.414 337.69 146.659 338.68 147.148L338.008 148.703C337.622 148.521 337.214 148.362 336.781 148.227C336.354 148.086 335.904 148.016 335.43 148.016ZM340.711 158V146.578H342.578V158H340.711ZM352.688 158L351.547 154.828H347.18L346.062 158H344.094L348.367 146.531H350.398L354.672 158H352.688ZM351.055 153.219L349.984 150.109C349.906 149.901 349.797 149.573 349.656 149.125C349.521 148.677 349.427 148.349 349.375 148.141C349.234 148.781 349.029 149.482 348.758 150.242L347.727 153.219H351.055ZM272.859 170.016C271.786 170.016 270.943 170.396 270.328 171.156C269.714 171.917 269.406 172.966 269.406 174.305C269.406 175.706 269.701 176.766 270.289 177.484C270.883 178.203 271.74 178.562 272.859 178.562C273.344 178.562 273.812 178.516 274.266 178.422C274.719 178.323 275.19 178.198 275.68 178.047V179.648C274.784 179.987 273.768 180.156 272.633 180.156C270.961 180.156 269.677 179.651 268.781 178.641C267.885 177.625 267.438 176.174 267.438 174.289C267.438 173.102 267.654 172.062 268.086 171.172C268.523 170.281 269.154 169.599 269.977 169.125C270.799 168.651 271.766 168.414 272.875 168.414C274.042 168.414 275.12 168.659 276.109 169.148L275.438 170.703C275.052 170.521 274.643 170.362 274.211 170.227C273.784 170.086 273.333 170.016 272.859 170.016ZM288.281 174.273C288.281 176.133 287.815 177.578 286.883 178.609C285.956 179.641 284.641 180.156 282.938 180.156C281.214 180.156 279.888 179.646 278.961 178.625C278.039 177.599 277.578 176.143 277.578 174.258C277.578 172.372 278.042 170.924 278.969 169.914C279.901 168.904 281.229 168.398 282.953 168.398C284.651 168.398 285.964 168.911 286.891 169.938C287.818 170.964 288.281 172.409 288.281 174.273ZM279.562 174.273C279.562 175.68 279.846 176.747 280.414 177.477C280.982 178.201 281.823 178.562 282.938 178.562C284.047 178.562 284.883 178.203 285.445 177.484C286.013 176.766 286.297 175.695 286.297 174.273C286.297 172.872 286.016 171.81 285.453 171.086C284.896 170.362 284.062 170 282.953 170C281.833 170 280.987 170.362 280.414 171.086C279.846 171.81 279.562 172.872 279.562 174.273ZM294.68 180H292.812V170.18H289.453V168.578H298.039V170.18H294.68V180ZM299.797 180V168.578H301.664V180H299.797ZM313.977 174.18C313.977 176.065 313.453 177.508 312.406 178.508C311.359 179.503 309.852 180 307.883 180H304.688V168.578H308.219C310.036 168.578 311.451 169.068 312.461 170.047C313.471 171.026 313.977 172.404 313.977 174.18ZM312.008 174.242C312.008 171.508 310.729 170.141 308.172 170.141H306.555V178.43H307.883C310.633 178.43 312.008 177.034 312.008 174.242ZM316.438 180V168.578H318.305V180H316.438ZM328.414 180L327.273 176.828H322.906L321.789 180H319.82L324.094 168.531H326.125L330.398 180H328.414ZM326.781 175.219L325.711 172.109C325.633 171.901 325.523 171.573 325.383 171.125C325.247 170.677 325.154 170.349 325.102 170.141C324.961 170.781 324.755 171.482 324.484 172.242L323.453 175.219H326.781ZM341.422 180H339.133L333.516 170.898H333.453L333.492 171.406C333.565 172.375 333.602 173.26 333.602 174.062V180H331.906V168.578H334.172L339.773 177.633H339.82C339.81 177.513 339.789 177.078 339.758 176.328C339.727 175.573 339.711 174.984 339.711 174.562V168.578H341.422V180ZM351.523 180L350.383 176.828H346.016L344.898 180H342.93L347.203 168.531H349.234L353.508 180H351.523ZM349.891 175.219L348.82 172.109C348.742 171.901 348.633 171.573 348.492 171.125C348.357 170.677 348.263 170.349 348.211 170.141C348.07 170.781 347.865 171.482 347.594 172.242L346.562 175.219H349.891Z" fill="white"/>
<path fill-rule="evenodd" clip-rule="evenodd" d="M110.43 43.2556C110.627 43.4705 110.806 43.6676 111.003 43.8826C111.128 43.8288 111.236 43.8109 111.307 43.7393C112.131 42.9331 112.92 42.109 113.744 41.3208C116.789 38.4365 121.322 38.4365 124.242 41.3208C127.162 44.1871 127.305 48.8091 124.403 51.8188C120.462 55.8854 116.431 59.8446 112.418 63.8396C111.504 64.7532 110.627 64.7353 109.695 63.8037C105.718 59.8446 101.616 55.9571 97.8355 51.8188C96.6173 50.4931 95.6141 50.3319 94.1272 50.7081C92.3357 51.156 90.5801 51.2814 88.8782 50.296C88.5199 50.099 87.9287 50.1886 87.4629 50.296C84.6324 50.8872 82.3214 50.1706 80.6553 47.7163C80.4941 47.4834 80.1 47.3401 79.8133 47.3222C73.9194 46.946 69.0287 44.5275 65.3741 39.9234C63.7438 37.8811 61.9165 36.3763 59.4801 35.4089C56.4167 34.2086 53.4787 32.7038 50.469 31.396C49.4479 30.9123 49 30.2674 49 29.1388C49.0358 21.1309 49.0179 13.1051 49.0179 5.09719C49.0179 3.21614 50.1465 2.51747 51.8126 3.34155C58.2977 6.54828 64.765 9.79085 71.268 12.9797C71.895 13.2842 72.6474 13.4455 73.3461 13.4455C81.2644 13.3201 89.1648 13.1409 97.0652 12.9976C100.093 12.9438 102.619 14.0008 104.607 16.3118C106.614 18.6228 108.638 20.898 110.609 23.2269C112.615 25.6096 113.278 28.3505 112.633 31.396C112.544 31.808 112.454 32.2022 112.364 32.6142C112.096 33.8145 112.006 34.9431 112.436 36.233C113.332 38.8844 112.418 41.267 110.43 43.2556ZM52.4217 7.39028C52.3859 7.58734 52.3501 7.67691 52.3501 7.7844C52.3501 14.4845 52.3501 21.1846 52.3321 27.8847C52.3321 28.5297 52.6725 28.7088 53.1383 28.9059C56.2734 30.3032 59.3726 31.7901 62.5256 33.1158C64.2454 33.8324 65.6786 34.764 66.7356 36.3226C67.3088 37.1825 68.0075 37.9707 68.742 38.7231C72.5041 42.539 77.0186 44.6529 82.411 43.6855C84.6324 43.2914 86.7105 42.0374 88.8424 41.1416C90.0964 40.6221 91.2071 39.798 92.7478 40.013C96.8681 40.6042 101.006 41.0341 105.127 41.5537C107.241 41.8224 109.014 40.6221 109.373 38.6515C109.713 36.7525 108.495 35.0327 106.417 34.5669C103.3 33.8682 100.182 33.2054 97.0652 32.5246C94.8617 32.0409 92.6582 31.5931 90.4726 31.0735C89.5052 30.8407 89.0215 29.9987 89.2365 29.1029C89.4335 28.2609 90.186 27.7772 91.1354 27.8668C91.44 27.9026 91.7445 27.9743 92.0491 28.046C92.8911 28.2251 93.7152 28.3863 94.6826 28.5834C94.3063 27.6339 93.9839 26.8278 93.6972 26.0216C93.3389 25.0184 93.7152 24.1047 94.5751 23.7643C95.4529 23.424 96.3307 23.8002 96.7607 24.7855C97.1906 25.7708 97.5668 26.774 97.9609 27.7772C98.7134 29.6941 98.8567 29.7837 100.971 29.8016C101.705 27.3652 102.135 26.7919 103.246 27.0786C105.378 27.616 104.41 29.2821 104.339 30.6257C105.951 31.0198 107.509 31.4139 109.086 31.7901C110 29.1567 109.498 26.8457 107.581 24.7855C105.718 22.779 103.944 20.683 102.171 18.587C100.809 16.9926 99.1075 16.276 97.0473 16.3118C89.0394 16.473 81.0136 16.6701 73.0057 16.7776C72.0383 16.7955 70.9993 16.5626 70.1394 16.1327C64.5321 13.4096 58.9606 10.597 53.3712 7.82023C53.0846 7.67691 52.7621 7.55151 52.4217 7.39028ZM111.092 60.4358C114.783 56.7453 118.42 53.1803 121.967 49.5257C122.594 48.8808 122.97 47.8417 123.113 46.946C123.364 45.2978 122.343 43.7034 120.856 42.951C119.279 42.1628 117.47 42.4136 116.126 43.6676C114.837 44.8858 113.636 46.1757 112.364 47.3939C111.522 48.2 110.662 48.1821 109.803 47.3939C109.57 47.1789 109.355 46.9639 109.14 46.731C108.119 45.6024 107.169 44.635 105.324 44.85C103.783 45.0291 102.153 44.5812 100.594 44.3304C99.842 44.205 99.5016 44.5275 99.3045 45.1545C98.7134 46.9102 99.1075 48.4329 100.397 49.7407C103.819 53.1803 107.259 56.602 110.698 60.0417C110.788 60.1671 110.913 60.2746 111.092 60.4358ZM95.5604 47.0714C95.7574 45.9069 95.9187 44.8858 96.0799 43.8288C95.5783 43.7572 95.1125 43.6676 94.6288 43.6139C94.1451 43.5422 93.6614 43.4347 93.1777 43.4705C92.4074 43.5422 91.6191 43.578 90.9205 43.8647C89.8277 44.2946 89.4873 45.1903 89.7918 46.2115C90.0964 47.2505 90.9742 47.8238 92.1207 47.6626C93.2852 47.5013 94.4317 47.2685 95.5604 47.0714ZM86.2805 46.104C85.5998 46.3548 85.0803 46.534 84.5607 46.731C84.5786 46.8206 84.5786 46.9102 84.5966 46.9818C85.2057 47.0177 85.8327 47.0714 86.5672 47.1072C86.4418 46.6952 86.3701 46.4444 86.2805 46.104Z" fill="#474646"/>
<path fill-rule="evenodd" clip-rule="evenodd" d="M92.3895 72.9582C93.124 70.1456 94.7363 68.3004 97.4952 67.6376C98.1581 67.4763 98.8746 67.4584 99.5554 67.4584C104.374 67.4405 109.194 67.4763 114.031 67.4226C114.55 67.4226 115.177 67.1897 115.589 66.8493C122.415 61.0808 132.16 61.0449 139.004 66.7956C139.451 67.1718 140.15 67.4047 140.741 67.4226C142.784 67.4942 144.844 67.4405 146.886 67.4584C148.409 67.4584 148.982 68.0317 148.982 69.5186C148.982 77.0428 148.982 84.5849 148.982 92.109C148.982 93.596 148.373 94.2946 146.886 94.1513C140.222 93.4706 134.005 95.5128 127.717 97.1968C123.203 98.3971 118.688 99.5974 114.156 100.78C109.409 101.998 104.948 101.317 100.809 98.6658C91.9237 93.0048 83.0201 87.3437 74.1344 81.6827C73.3999 81.2169 72.6654 80.769 71.9488 80.2674C69.172 78.2968 68.2225 74.7139 69.6736 71.6684C71.1068 68.6408 74.4927 67.1001 77.8069 68.1392C82.3035 69.5544 86.7464 71.0951 91.2251 72.582C91.5654 72.6895 91.9237 72.8149 92.3895 72.9582ZM145.596 90.7475C145.596 84.0833 145.596 77.4727 145.596 70.7726C143.626 70.7726 141.727 70.7368 139.828 70.7905C138.824 70.8085 138.054 70.5039 137.32 69.8231C131.605 64.4846 123.06 64.5025 117.327 69.8411C116.574 70.5397 115.804 70.8085 114.801 70.8085C109.588 70.7726 104.392 70.7905 99.1792 70.8085C97.1548 70.8085 95.7217 72.1521 95.6679 74.0152C95.6142 75.9141 97.0294 77.3473 99.0717 77.4548C99.3763 77.4727 99.6987 77.4548 100.003 77.4548C105.109 77.4548 110.215 77.4548 115.302 77.4548C116.539 77.4548 117.291 78.0818 117.291 79.0851C117.309 80.0704 116.539 80.769 115.32 80.769C109.874 80.787 104.428 80.8049 98.9642 80.7511C96.3666 80.7332 94.396 79.515 93.0703 77.2578C92.8732 76.9174 92.4791 76.5591 92.1029 76.4337C87.0509 74.7139 81.999 73.0299 76.9291 71.3638C75.0839 70.7547 73.382 71.4892 72.6296 73.1015C71.8413 74.7497 72.3608 76.6128 73.9732 77.6519C83.683 83.8504 93.3927 90.0309 103.12 96.1757C105.915 97.9313 109.032 98.4867 112.221 97.7343C117.739 96.4086 123.239 94.9217 128.721 93.4706C134.167 92.0195 139.559 90.228 145.345 90.8192C145.435 90.8013 145.471 90.7834 145.596 90.7475Z" fill="#474646"/>
</svg>
