<svg width="341" height="514" viewBox="0 0 341 514" fill="none" xmlns="http://www.w3.org/2000/svg">
<g filter="url(#filter0_d)">
<path d="M51.6947 506C25.7373 506 4.6947 484.957 4.6947 459L4.69471 47C4.69471 21.0426 25.7373 2.47148e-07 51.6947 5.52021e-07L277.695 3.20642e-06C303.652 3.51129e-06 324.695 21.0426 324.695 47L324.695 459C324.695 484.957 303.652 506 277.695 506L51.6947 506Z" fill="white"/>
</g>
<path d="M145.211 44L144.213 41.2246H140.392L139.415 44H137.692L141.431 33.9648H143.208L146.948 44H145.211ZM143.783 39.8164L142.846 37.0957C142.778 36.9134 142.682 36.6263 142.559 36.2344C142.441 35.8424 142.359 35.5553 142.313 35.373C142.19 35.9336 142.01 36.5465 141.773 37.2119L140.871 39.8164H143.783ZM154.884 37.0273C154.884 38.071 154.542 38.8708 153.859 39.4268C153.175 39.9827 152.202 40.2607 150.94 40.2607H149.901V44H148.267V34.0059H151.145C152.394 34.0059 153.328 34.2611 153.948 34.7715C154.572 35.2819 154.884 36.0339 154.884 37.0273ZM149.901 38.8867H150.769C151.608 38.8867 152.223 38.7409 152.615 38.4492C153.007 38.1576 153.203 37.7018 153.203 37.082C153.203 36.5078 153.027 36.0794 152.676 35.7969C152.325 35.5143 151.778 35.373 151.036 35.373H149.901V38.8867ZM162.534 44H156.88V34.0059H162.534V35.3867H158.514V38.1074H162.281V39.4746H158.514V42.6123H162.534V44ZM168.789 38.5791H172.466V43.5967C171.865 43.7926 171.286 43.9316 170.73 44.0137C170.179 44.0957 169.582 44.1367 168.939 44.1367C167.426 44.1367 166.259 43.6901 165.439 42.7969C164.619 41.8991 164.208 40.6344 164.208 39.0029C164.208 37.3942 164.671 36.1364 165.596 35.2295C166.521 34.318 167.795 33.8623 169.417 33.8623C170.461 33.8623 171.45 34.0628 172.384 34.4639L171.81 35.8242C170.999 35.4505 170.188 35.2637 169.376 35.2637C168.31 35.2637 167.467 35.5986 166.847 36.2686C166.227 36.9385 165.917 37.8545 165.917 39.0166C165.917 40.238 166.195 41.1676 166.751 41.8057C167.312 42.4391 168.116 42.7559 169.165 42.7559C169.693 42.7559 170.258 42.6898 170.86 42.5576V39.9805H168.789V38.5791ZM183.746 38.9893C183.746 40.6162 183.338 41.8809 182.522 42.7832C181.711 43.6855 180.56 44.1367 179.07 44.1367C177.561 44.1367 176.402 43.6901 175.59 42.7969C174.784 41.8991 174.38 40.6253 174.38 38.9756C174.38 37.3258 174.786 36.0589 175.597 35.1748C176.413 34.2907 177.575 33.8486 179.083 33.8486C180.569 33.8486 181.718 34.2975 182.529 35.1953C183.34 36.0931 183.746 37.3577 183.746 38.9893ZM176.117 38.9893C176.117 40.2197 176.365 41.154 176.862 41.792C177.359 42.4255 178.095 42.7422 179.07 42.7422C180.041 42.7422 180.772 42.4277 181.264 41.7988C181.761 41.1699 182.009 40.2334 182.009 38.9893C182.009 37.7633 181.763 36.8337 181.271 36.2002C180.783 35.5667 180.054 35.25 179.083 35.25C178.104 35.25 177.363 35.5667 176.862 36.2002C176.365 36.8337 176.117 37.7633 176.117 38.9893ZM195.292 41.2861C195.292 42.1748 194.97 42.8721 194.328 43.3779C193.685 43.8838 192.799 44.1367 191.668 44.1367C190.538 44.1367 189.613 43.9613 188.893 43.6104V42.0654C189.349 42.2796 189.832 42.4482 190.342 42.5713C190.857 42.6943 191.336 42.7559 191.778 42.7559C192.425 42.7559 192.901 42.6328 193.207 42.3867C193.516 42.1406 193.671 41.8102 193.671 41.3955C193.671 41.0218 193.53 40.7051 193.248 40.4453C192.965 40.1855 192.382 39.8779 191.498 39.5225C190.586 39.1533 189.944 38.7318 189.57 38.2578C189.196 37.7839 189.009 37.2142 189.009 36.5488C189.009 35.7148 189.306 35.0586 189.898 34.5801C190.49 34.1016 191.286 33.8623 192.284 33.8623C193.241 33.8623 194.193 34.0719 195.141 34.4912L194.622 35.8242C193.733 35.4505 192.94 35.2637 192.243 35.2637C191.714 35.2637 191.313 35.3799 191.04 35.6123C190.766 35.8402 190.629 36.1432 190.629 36.5215C190.629 36.7812 190.684 37.0046 190.793 37.1914C190.903 37.3737 191.083 37.5469 191.333 37.7109C191.584 37.875 192.035 38.0915 192.687 38.3604C193.421 38.6657 193.958 38.9505 194.3 39.2148C194.642 39.4792 194.893 39.7777 195.052 40.1104C195.212 40.443 195.292 40.835 195.292 41.2861ZM202.879 44H197.226V34.0059H202.879V35.3867H198.86V38.1074H202.626V39.4746H198.86V42.6123H202.879V44ZM209.134 38.5791H212.812V43.5967C212.21 43.7926 211.632 43.9316 211.076 44.0137C210.524 44.0957 209.927 44.1367 209.285 44.1367C207.772 44.1367 206.605 43.6901 205.785 42.7969C204.964 41.8991 204.554 40.6344 204.554 39.0029C204.554 37.3942 205.017 36.1364 205.942 35.2295C206.867 34.318 208.141 33.8623 209.763 33.8623C210.807 33.8623 211.796 34.0628 212.73 34.4639L212.156 35.8242C211.345 35.4505 210.533 35.2637 209.722 35.2637C208.656 35.2637 207.813 35.5986 207.193 36.2686C206.573 36.9385 206.263 37.8545 206.263 39.0166C206.263 40.238 206.541 41.1676 207.097 41.8057C207.658 42.4391 208.462 42.7559 209.51 42.7559C210.039 42.7559 210.604 42.6898 211.206 42.5576V39.9805H209.134V38.5791ZM223.052 34.0059V40.4727C223.052 41.2109 222.893 41.8581 222.574 42.4141C222.259 42.9655 221.801 43.3916 221.2 43.6924C220.603 43.9886 219.887 44.1367 219.053 44.1367C217.814 44.1367 216.85 43.8086 216.162 43.1523C215.473 42.4961 215.129 41.5938 215.129 40.4453V34.0059H216.77V40.3291C216.77 41.154 216.961 41.7624 217.344 42.1543C217.727 42.5462 218.315 42.7422 219.108 42.7422C220.648 42.7422 221.418 41.9333 221.418 40.3154V34.0059H223.052ZM227.243 38.6543H228.377C229.139 38.6543 229.69 38.513 230.032 38.2305C230.374 37.9479 230.544 37.5286 230.544 36.9727C230.544 36.4076 230.36 36.002 229.991 35.7559C229.622 35.5098 229.066 35.3867 228.323 35.3867H227.243V38.6543ZM227.243 40.0078V44H225.609V34.0059H228.432C229.722 34.0059 230.677 34.2474 231.296 34.7305C231.916 35.2135 232.226 35.9427 232.226 36.918C232.226 38.1621 231.579 39.0485 230.285 39.5771L233.108 44H231.249L228.856 40.0078H227.243ZM243.437 38.9893C243.437 40.6162 243.029 41.8809 242.213 42.7832C241.402 43.6855 240.251 44.1367 238.761 44.1367C237.253 44.1367 236.093 43.6901 235.282 42.7969C234.475 41.8991 234.072 40.6253 234.072 38.9756C234.072 37.3258 234.477 36.0589 235.289 35.1748C236.104 34.2907 237.266 33.8486 238.775 33.8486C240.261 33.8486 241.409 34.2975 242.22 35.1953C243.031 36.0931 243.437 37.3577 243.437 38.9893ZM235.808 38.9893C235.808 40.2197 236.056 41.154 236.553 41.792C237.05 42.4255 237.786 42.7422 238.761 42.7422C239.732 42.7422 240.463 42.4277 240.956 41.7988C241.452 41.1699 241.701 40.2334 241.701 38.9893C241.701 37.7633 241.455 36.8337 240.962 36.2002C240.475 35.5667 239.746 35.25 238.775 35.25C237.795 35.25 237.055 35.5667 236.553 36.2002C236.056 36.8337 235.808 37.7633 235.808 38.9893ZM252.043 38.5654L254.409 34.0059H256.186L252.857 40.124V44H251.216V40.1787L247.901 34.0059H249.678L252.043 38.5654ZM144.706 54.0059H146.401L142.901 64H141.178L137.692 54.0059H139.374L141.458 60.2197C141.568 60.516 141.684 60.8988 141.807 61.3682C141.93 61.833 142.01 62.1794 142.046 62.4072C142.106 62.0609 142.197 61.6598 142.32 61.2041C142.443 60.7484 142.543 60.4111 142.621 60.1924L144.706 54.0059ZM147.72 64V54.0059H149.354V64H147.72ZM147.625 53.2061V53.0352C147.884 52.7161 148.151 52.3607 148.424 51.9688C148.702 51.5768 148.921 51.2419 149.081 50.9639H150.947V51.1074C150.71 51.3854 150.354 51.7454 149.88 52.1875C149.411 52.625 149.014 52.9645 148.691 53.2061H147.625ZM160.326 64H158.323L153.408 56.0361H153.353L153.387 56.4805C153.451 57.3281 153.483 58.1029 153.483 58.8047V64H152V54.0059H153.982L158.883 61.9287H158.924C158.915 61.8239 158.897 61.4434 158.87 60.7871C158.842 60.1263 158.829 59.6113 158.829 59.2422V54.0059H160.326V64ZM167.216 55.2637C166.278 55.2637 165.539 55.5964 165.001 56.2617C164.464 56.9271 164.195 57.8454 164.195 59.0166C164.195 60.2425 164.452 61.1699 164.967 61.7988C165.487 62.4277 166.236 62.7422 167.216 62.7422C167.64 62.7422 168.05 62.7012 168.447 62.6191C168.843 62.5326 169.256 62.4232 169.684 62.291V63.6924C168.9 63.9886 168.012 64.1367 167.018 64.1367C165.555 64.1367 164.432 63.6947 163.648 62.8105C162.864 61.9219 162.472 60.6527 162.472 59.0029C162.472 57.9639 162.661 57.0547 163.04 56.2754C163.422 55.4961 163.974 54.8991 164.694 54.4844C165.414 54.0697 166.259 53.8623 167.23 53.8623C168.251 53.8623 169.194 54.0765 170.06 54.5049L169.472 55.8652C169.135 55.7057 168.777 55.5667 168.399 55.4482C168.025 55.3252 167.631 55.2637 167.216 55.2637ZM179.671 54.0059V60.4727C179.671 61.2109 179.512 61.8581 179.193 62.4141C178.878 62.9655 178.42 63.3916 177.819 63.6924C177.222 63.9886 176.506 64.1367 175.672 64.1367C174.433 64.1367 173.469 63.8086 172.781 63.1523C172.093 62.4961 171.749 61.5938 171.749 60.4453V54.0059H173.389V60.3291C173.389 61.154 173.581 61.7624 173.963 62.1543C174.346 62.5462 174.934 62.7422 175.727 62.7422C177.267 62.7422 178.038 61.9333 178.038 60.3154V54.0059H179.671ZM182.228 64V54.0059H183.862V62.5986H188.093V64H182.228ZM198.689 58.9893C198.689 60.6162 198.281 61.8809 197.465 62.7832C196.654 63.6855 195.503 64.1367 194.013 64.1367C192.505 64.1367 191.345 63.6901 190.534 62.7969C189.727 61.8991 189.324 60.6253 189.324 58.9756C189.324 57.3258 189.729 56.0589 190.541 55.1748C191.356 54.2907 192.518 53.8486 194.027 53.8486C195.513 53.8486 196.661 54.2975 197.472 55.1953C198.283 56.0931 198.689 57.3577 198.689 58.9893ZM191.06 58.9893C191.06 60.2197 191.308 61.154 191.805 61.792C192.302 62.4255 193.038 62.7422 194.013 62.7422C194.984 62.7422 195.715 62.4277 196.208 61.7988C196.704 61.1699 196.953 60.2334 196.953 58.9893C196.953 57.7633 196.707 56.8337 196.214 56.2002C195.727 55.5667 194.998 55.25 194.027 55.25C193.047 55.25 192.306 55.5667 191.805 56.2002C191.308 56.8337 191.06 57.7633 191.06 58.9893ZM206.598 61.2861C206.598 62.1748 206.277 62.8721 205.634 63.3779C204.992 63.8838 204.105 64.1367 202.975 64.1367C201.845 64.1367 200.92 63.9613 200.2 63.6104V62.0654C200.655 62.2796 201.139 62.4482 201.649 62.5713C202.164 62.6943 202.642 62.7559 203.084 62.7559C203.732 62.7559 204.208 62.6328 204.513 62.3867C204.823 62.1406 204.978 61.8102 204.978 61.3955C204.978 61.0218 204.837 60.7051 204.554 60.4453C204.272 60.1855 203.688 59.8779 202.804 59.5225C201.893 59.1533 201.25 58.7318 200.876 58.2578C200.503 57.7839 200.316 57.2142 200.316 56.5488C200.316 55.7148 200.612 55.0586 201.205 54.5801C201.797 54.1016 202.592 53.8623 203.59 53.8623C204.547 53.8623 205.5 54.0719 206.448 54.4912L205.928 55.8242C205.04 55.4505 204.247 55.2637 203.549 55.2637C203.021 55.2637 202.62 55.3799 202.346 55.6123C202.073 55.8402 201.936 56.1432 201.936 56.5215C201.936 56.7812 201.991 57.0046 202.1 57.1914C202.209 57.3737 202.389 57.5469 202.64 57.7109C202.891 57.875 203.342 58.0915 203.994 58.3604C204.727 58.6657 205.265 58.9505 205.607 59.2148C205.949 59.4792 206.199 59.7777 206.359 60.1104C206.518 60.443 206.598 60.835 206.598 61.2861ZM218.37 64L217.372 61.2246H213.55L212.573 64H210.85L214.589 53.9648H216.367L220.106 64H218.37ZM216.941 59.8164L216.004 57.0957C215.936 56.9134 215.84 56.6263 215.717 56.2344C215.599 55.8424 215.517 55.5553 215.471 55.373C215.348 55.9336 215.168 56.5465 214.931 57.2119L214.029 59.8164H216.941ZM223.045 64H221.425V54.0059H227.065V55.3867H223.045V58.5107H226.812V59.8984H223.045V64ZM234.53 64H228.876V54.0059H234.53V55.3867H230.51V58.1074H234.277V59.4746H230.51V62.6123H234.53V64ZM240.949 55.2637C240.01 55.2637 239.272 55.5964 238.734 56.2617C238.196 56.9271 237.927 57.8454 237.927 59.0166C237.927 60.2425 238.185 61.1699 238.7 61.7988C239.219 62.4277 239.969 62.7422 240.949 62.7422C241.373 62.7422 241.783 62.7012 242.179 62.6191C242.576 62.5326 242.988 62.4232 243.417 62.291V63.6924C242.633 63.9886 241.744 64.1367 240.75 64.1367C239.288 64.1367 238.164 63.6947 237.38 62.8105C236.597 61.9219 236.205 60.6527 236.205 59.0029C236.205 57.9639 236.394 57.0547 236.772 56.2754C237.155 55.4961 237.706 54.8991 238.426 54.4844C239.146 54.0697 239.992 53.8623 240.962 53.8623C241.983 53.8623 242.927 54.0765 243.792 54.5049L243.205 55.8652C242.867 55.7057 242.51 55.5667 242.131 55.4482C241.758 55.3252 241.363 55.2637 240.949 55.2637ZM249.022 64H247.388V55.4072H244.449V54.0059H251.961V55.4072H249.022V64ZM253.5 64V54.0059H255.133V64H253.5ZM263.473 54.0059H265.168L261.668 64H259.946L256.459 54.0059H258.141L260.226 60.2197C260.335 60.516 260.452 60.8988 260.575 61.3682C260.698 61.833 260.778 62.1794 260.814 62.4072C260.873 62.0609 260.964 61.6598 261.087 61.2041C261.21 60.7484 261.311 60.4111 261.388 60.1924L263.473 54.0059ZM275.361 58.9893C275.361 60.6162 274.953 61.8809 274.137 62.7832C273.326 63.6855 272.175 64.1367 270.685 64.1367C269.177 64.1367 268.017 63.6901 267.206 62.7969C266.399 61.8991 265.996 60.6253 265.996 58.9756C265.996 57.3258 266.401 56.0589 267.212 55.1748C268.028 54.2907 269.19 53.8486 270.699 53.8486C272.184 53.8486 273.333 54.2975 274.144 55.1953C274.955 56.0931 275.361 57.3577 275.361 58.9893ZM267.732 58.9893C267.732 60.2197 267.98 61.154 268.477 61.792C268.974 62.4255 269.71 62.7422 270.685 62.7422C271.656 62.7422 272.387 62.4277 272.879 61.7988C273.376 61.1699 273.625 60.2334 273.625 58.9893C273.625 57.7633 273.378 56.8337 272.886 56.2002C272.399 55.5667 271.669 55.25 270.699 55.25C269.719 55.25 268.978 55.5667 268.477 56.2002C267.98 56.8337 267.732 57.7633 267.732 58.9893ZM283.776 61.0923C283.776 62.0444 283.432 62.7915 282.743 63.3335C282.055 63.8755 281.105 64.1465 279.894 64.1465C278.683 64.1465 277.692 63.9585 276.92 63.5825V61.9272C277.409 62.1567 277.926 62.3374 278.473 62.4692C279.025 62.6011 279.538 62.667 280.011 62.667C280.705 62.667 281.215 62.5352 281.542 62.2715C281.874 62.0078 282.04 61.6538 282.04 61.2095C282.04 60.8091 281.889 60.4697 281.586 60.1914C281.283 59.9131 280.658 59.5835 279.711 59.2026C278.734 58.8071 278.046 58.3555 277.646 57.8477C277.245 57.3398 277.045 56.7295 277.045 56.0166C277.045 55.123 277.362 54.4199 277.997 53.9072C278.632 53.3945 279.484 53.1382 280.553 53.1382C281.579 53.1382 282.599 53.3628 283.615 53.812L283.058 55.2402C282.106 54.8398 281.256 54.6396 280.509 54.6396C279.943 54.6396 279.513 54.7642 279.22 55.0132C278.927 55.2573 278.781 55.582 278.781 55.9873C278.781 56.2656 278.839 56.5049 278.957 56.7051C279.074 56.9004 279.267 57.0859 279.535 57.2617C279.804 57.4375 280.287 57.6694 280.985 57.9575C281.771 58.2847 282.348 58.5898 282.714 58.873C283.08 59.1562 283.349 59.4761 283.52 59.8325C283.69 60.189 283.776 60.6089 283.776 61.0923Z" fill="#474646"/>
<path d="M140.645 141.654H141.78C142.541 141.654 143.092 141.513 143.434 141.23C143.776 140.948 143.947 140.529 143.947 139.973C143.947 139.408 143.762 139.002 143.393 138.756C143.024 138.51 142.468 138.387 141.725 138.387H140.645V141.654ZM140.645 143.008V147H139.011V137.006H141.834C143.124 137.006 144.079 137.247 144.699 137.73C145.319 138.214 145.628 138.943 145.628 139.918C145.628 141.162 144.981 142.049 143.687 142.577L146.51 147H144.651L142.258 143.008H140.645ZM153.62 147H147.966V137.006H153.62V138.387H149.6V141.107H153.367V142.475H149.6V145.612H153.62V147ZM161.549 144.286C161.549 145.175 161.228 145.872 160.585 146.378C159.943 146.884 159.056 147.137 157.926 147.137C156.796 147.137 155.871 146.961 155.151 146.61V145.065C155.607 145.28 156.09 145.448 156.6 145.571C157.115 145.694 157.594 145.756 158.036 145.756C158.683 145.756 159.159 145.633 159.464 145.387C159.774 145.141 159.929 144.81 159.929 144.396C159.929 144.022 159.788 143.705 159.505 143.445C159.223 143.186 158.639 142.878 157.755 142.522C156.844 142.153 156.201 141.732 155.828 141.258C155.454 140.784 155.267 140.214 155.267 139.549C155.267 138.715 155.563 138.059 156.156 137.58C156.748 137.102 157.543 136.862 158.542 136.862C159.499 136.862 160.451 137.072 161.399 137.491L160.879 138.824C159.991 138.451 159.198 138.264 158.5 138.264C157.972 138.264 157.571 138.38 157.297 138.612C157.024 138.84 156.887 139.143 156.887 139.521C156.887 139.781 156.942 140.005 157.051 140.191C157.161 140.374 157.341 140.547 157.591 140.711C157.842 140.875 158.293 141.091 158.945 141.36C159.679 141.666 160.216 141.951 160.558 142.215C160.9 142.479 161.151 142.778 161.31 143.11C161.47 143.443 161.549 143.835 161.549 144.286ZM163.484 147V137.006H165.118V147H163.484ZM167.763 147V137.006H169.397V145.599H173.628V147H167.763ZM175.351 147V137.006H176.985V147H175.351ZM185.284 147H179.63V137.006H185.284V138.387H181.264V141.107H185.031V142.475H181.264V145.612H185.284V147ZM195.777 147H193.774L188.859 139.036H188.804L188.838 139.48C188.902 140.328 188.934 141.103 188.934 141.805V147H187.451V137.006H189.433L194.334 144.929H194.375C194.366 144.824 194.348 144.443 194.321 143.787C194.293 143.126 194.28 142.611 194.28 142.242V137.006H195.777V147ZM202.667 138.264C201.729 138.264 200.99 138.596 200.453 139.262C199.915 139.927 199.646 140.845 199.646 142.017C199.646 143.243 199.903 144.17 200.418 144.799C200.938 145.428 201.688 145.742 202.667 145.742C203.091 145.742 203.501 145.701 203.898 145.619C204.294 145.533 204.707 145.423 205.135 145.291V146.692C204.351 146.989 203.463 147.137 202.469 147.137C201.006 147.137 199.883 146.695 199.099 145.811C198.315 144.922 197.923 143.653 197.923 142.003C197.923 140.964 198.112 140.055 198.491 139.275C198.874 138.496 199.425 137.899 200.145 137.484C200.865 137.07 201.71 136.862 202.681 136.862C203.702 136.862 204.645 137.076 205.511 137.505L204.923 138.865C204.586 138.706 204.228 138.567 203.85 138.448C203.476 138.325 203.082 138.264 202.667 138.264ZM207.289 147V137.006H208.922V147H207.289ZM217.768 147L216.77 144.225H212.949L211.971 147H210.249L213.988 136.965H215.765L219.504 147H217.768ZM216.339 142.816L215.403 140.096C215.334 139.913 215.239 139.626 215.116 139.234C214.997 138.842 214.915 138.555 214.87 138.373C214.747 138.934 214.567 139.547 214.33 140.212L213.427 142.816H216.339ZM143.263 157.264C142.324 157.264 141.586 157.596 141.048 158.262C140.511 158.927 140.242 159.845 140.242 161.017C140.242 162.243 140.499 163.17 141.014 163.799C141.534 164.428 142.283 164.742 143.263 164.742C143.687 164.742 144.097 164.701 144.494 164.619C144.89 164.533 145.303 164.423 145.731 164.291V165.692C144.947 165.989 144.058 166.137 143.065 166.137C141.602 166.137 140.479 165.695 139.695 164.811C138.911 163.922 138.519 162.653 138.519 161.003C138.519 159.964 138.708 159.055 139.086 158.275C139.469 157.496 140.021 156.899 140.741 156.484C141.461 156.07 142.306 155.862 143.277 155.862C144.298 155.862 145.241 156.076 146.107 156.505L145.519 157.865C145.182 157.706 144.824 157.567 144.446 157.448C144.072 157.325 143.678 157.264 143.263 157.264ZM156.757 160.989C156.757 162.616 156.349 163.881 155.534 164.783C154.722 165.686 153.572 166.137 152.082 166.137C150.573 166.137 149.413 165.69 148.602 164.797C147.795 163.899 147.392 162.625 147.392 160.976C147.392 159.326 147.798 158.059 148.609 157.175C149.425 156.291 150.587 155.849 152.095 155.849C153.581 155.849 154.729 156.298 155.541 157.195C156.352 158.093 156.757 159.358 156.757 160.989ZM149.128 160.989C149.128 162.22 149.377 163.154 149.874 163.792C150.37 164.425 151.106 164.742 152.082 164.742C153.052 164.742 153.784 164.428 154.276 163.799C154.773 163.17 155.021 162.233 155.021 160.989C155.021 159.763 154.775 158.834 154.283 158.2C153.795 157.567 153.066 157.25 152.095 157.25C151.115 157.25 150.375 157.567 149.874 158.2C149.377 158.834 149.128 159.763 149.128 160.989ZM162.356 166H160.722V157.407H157.783V156.006H165.295V157.407H162.356V166ZM166.833 166V156.006H168.467V166H166.833ZM179.241 160.907C179.241 162.557 178.783 163.819 177.867 164.694C176.951 165.565 175.631 166 173.909 166H171.113V156.006H174.203C175.793 156.006 177.03 156.434 177.915 157.291C178.799 158.148 179.241 159.353 179.241 160.907ZM177.518 160.962C177.518 158.569 176.399 157.373 174.162 157.373H172.747V164.626H173.909C176.315 164.626 177.518 163.405 177.518 160.962ZM181.394 166V156.006H183.028V166H181.394ZM191.874 166L190.875 163.225H187.054L186.077 166H184.354L188.093 155.965H189.871L193.61 166H191.874ZM190.445 161.816L189.508 159.096C189.44 158.913 189.344 158.626 189.221 158.234C189.103 157.842 189.021 157.555 188.975 157.373C188.852 157.934 188.672 158.547 188.435 159.212L187.533 161.816H190.445ZM203.255 166H201.252L196.337 158.036H196.283L196.317 158.48C196.381 159.328 196.413 160.103 196.413 160.805V166H194.929V156.006H196.912L201.813 163.929H201.854C201.845 163.824 201.827 163.443 201.799 162.787C201.772 162.126 201.758 161.611 201.758 161.242V156.006H203.255V166ZM212.094 166L211.096 163.225H207.275L206.297 166H204.575L208.314 155.965H210.091L213.831 166H212.094ZM210.666 161.816L209.729 159.096C209.661 158.913 209.565 158.626 209.442 158.234C209.323 157.842 209.241 157.555 209.196 157.373C209.073 157.934 208.893 158.547 208.656 159.212L207.753 161.816H210.666Z" fill="#474646"/>
<path d="M147.884 239.989C147.884 241.616 147.476 242.881 146.661 243.783C145.849 244.686 144.699 245.137 143.208 245.137C141.7 245.137 140.54 244.69 139.729 243.797C138.922 242.899 138.519 241.625 138.519 239.976C138.519 238.326 138.925 237.059 139.736 236.175C140.552 235.291 141.714 234.849 143.222 234.849C144.708 234.849 145.856 235.298 146.667 236.195C147.479 237.093 147.884 238.358 147.884 239.989ZM140.255 239.989C140.255 241.22 140.504 242.154 141 242.792C141.497 243.425 142.233 243.742 143.208 243.742C144.179 243.742 144.911 243.428 145.403 242.799C145.9 242.17 146.148 241.233 146.148 239.989C146.148 238.763 145.902 237.834 145.41 237.2C144.922 236.567 144.193 236.25 143.222 236.25C142.242 236.25 141.502 236.567 141 237.2C140.504 237.834 140.255 238.763 140.255 239.989ZM151.665 239.654H152.799C153.56 239.654 154.112 239.513 154.454 239.23C154.795 238.948 154.966 238.529 154.966 237.973C154.966 237.408 154.782 237.002 154.413 236.756C154.043 236.51 153.487 236.387 152.745 236.387H151.665V239.654ZM151.665 241.008V245H150.031V235.006H152.854C154.144 235.006 155.098 235.247 155.718 235.73C156.338 236.214 156.648 236.943 156.648 237.918C156.648 239.162 156.001 240.049 154.707 240.577L157.53 245H155.67L153.278 241.008H151.665ZM163.074 239.579H166.751V244.597C166.15 244.793 165.571 244.932 165.015 245.014C164.464 245.096 163.867 245.137 163.224 245.137C161.711 245.137 160.544 244.69 159.724 243.797C158.904 242.899 158.494 241.634 158.494 240.003C158.494 238.394 158.956 237.136 159.881 236.229C160.806 235.318 162.08 234.862 163.703 234.862C164.746 234.862 165.735 235.063 166.669 235.464L166.095 236.824C165.284 236.451 164.473 236.264 163.662 236.264C162.595 236.264 161.752 236.599 161.132 237.269C160.513 237.938 160.203 238.854 160.203 240.017C160.203 241.238 160.481 242.168 161.037 242.806C161.597 243.439 162.402 243.756 163.45 243.756C163.978 243.756 164.543 243.69 165.145 243.558V240.98H163.074V239.579ZM175.358 245L174.36 242.225H170.539L169.561 245H167.838L171.578 234.965H173.355L177.094 245H175.358ZM173.929 240.816L172.993 238.096C172.924 237.913 172.829 237.626 172.706 237.234C172.587 236.842 172.505 236.555 172.459 236.373C172.336 236.934 172.156 237.547 171.919 238.212L171.017 240.816H173.929ZM186.74 245H184.737L179.822 237.036H179.767L179.801 237.48C179.865 238.328 179.897 239.103 179.897 239.805V245H178.414V235.006H180.396L185.297 242.929H185.338C185.329 242.824 185.311 242.443 185.284 241.787C185.256 241.126 185.243 240.611 185.243 240.242V235.006H186.74V245ZM189.378 245V235.006H191.012V245H189.378ZM199.94 245H192.79V243.865L197.828 236.407H192.926V235.006H199.803V236.154L194.745 243.599H199.94V245ZM207.911 245L206.913 242.225H203.091L202.114 245H200.391L204.13 234.965H205.908L209.647 245H207.911ZM206.482 240.816L205.545 238.096C205.477 237.913 205.381 237.626 205.258 237.234C205.14 236.842 205.058 236.555 205.012 236.373C204.889 236.934 204.709 237.547 204.472 238.212L203.57 240.816H206.482ZM215.218 236.264C214.279 236.264 213.541 236.596 213.003 237.262C212.466 237.927 212.197 238.845 212.197 240.017C212.197 241.243 212.454 242.17 212.969 242.799C213.489 243.428 214.238 243.742 215.218 243.742C215.642 243.742 216.052 243.701 216.449 243.619C216.845 243.533 217.258 243.423 217.686 243.291V244.692C216.902 244.989 216.014 245.137 215.02 245.137C213.557 245.137 212.434 244.695 211.65 243.811C210.866 242.922 210.474 241.653 210.474 240.003C210.474 238.964 210.663 238.055 211.042 237.275C211.424 236.496 211.976 235.899 212.696 235.484C213.416 235.07 214.261 234.862 215.232 234.862C216.253 234.862 217.196 235.076 218.062 235.505L217.474 236.865C217.137 236.706 216.779 236.567 216.401 236.448C216.027 236.325 215.633 236.264 215.218 236.264ZM219.839 245V235.006H221.473V245H219.839ZM232.992 239.989C232.992 241.616 232.584 242.881 231.768 243.783C230.957 244.686 229.806 245.137 228.316 245.137C226.807 245.137 225.648 244.69 224.836 243.797C224.03 242.899 223.626 241.625 223.626 239.976C223.626 238.326 224.032 237.059 224.843 236.175C225.659 235.291 226.821 234.849 228.33 234.849C229.815 234.849 230.964 235.298 231.775 236.195C232.586 237.093 232.992 238.358 232.992 239.989ZM225.363 239.989C225.363 241.22 225.611 242.154 226.108 242.792C226.605 243.425 227.341 243.742 228.316 243.742C229.287 243.742 230.018 243.428 230.51 242.799C231.007 242.17 231.255 241.233 231.255 239.989C231.255 238.763 231.009 237.834 230.517 237.2C230.029 236.567 229.3 236.25 228.33 236.25C227.35 236.25 226.609 236.567 226.108 237.2C225.611 237.834 225.363 238.763 225.363 239.989ZM227.291 234.206V234.035C227.55 233.716 227.817 233.361 228.09 232.969C228.368 232.577 228.587 232.242 228.747 231.964H230.613V232.107C230.376 232.385 230.02 232.745 229.546 233.188C229.077 233.625 228.681 233.965 228.357 234.206H227.291ZM243.464 245H241.461L236.546 237.036H236.492L236.526 237.48C236.59 238.328 236.622 239.103 236.622 239.805V245H235.138V235.006H237.121L242.022 242.929H242.063C242.054 242.824 242.036 242.443 242.008 241.787C241.981 241.126 241.967 240.611 241.967 240.242V235.006H243.464V245ZM140.631 264H139.011V254.006H144.651V255.387H140.631V258.511H144.398V259.898H140.631V264ZM152.663 264L151.665 261.225H147.843L146.866 264H145.143L148.882 253.965H150.66L154.399 264H152.663ZM151.234 259.816L150.297 257.096C150.229 256.913 150.133 256.626 150.01 256.234C149.892 255.842 149.81 255.555 149.764 255.373C149.641 255.934 149.461 256.547 149.224 257.212L148.322 259.816H151.234ZM160.039 264L157.14 255.653H157.085C157.163 256.893 157.202 258.055 157.202 259.14V264H155.718V254.006H158.022L160.797 261.956H160.838L163.696 254.006H166.006V264H164.434V259.058C164.434 258.561 164.445 257.914 164.468 257.116C164.496 256.319 164.518 255.836 164.537 255.667H164.482L161.481 264H160.039ZM168.638 264V254.006H170.272V264H168.638ZM172.917 264V254.006H174.551V262.599H178.783V264H172.917ZM180.505 264V254.006H182.139V264H180.505ZM190.985 264L189.987 261.225H186.166L185.188 264H183.465L187.205 253.965H188.982L192.721 264H190.985ZM189.556 259.816L188.62 257.096C188.551 256.913 188.456 256.626 188.333 256.234C188.214 255.842 188.132 255.555 188.086 255.373C187.963 255.934 187.783 256.547 187.546 257.212L186.644 259.816H189.556ZM195.674 258.654H196.809C197.57 258.654 198.122 258.513 198.463 258.23C198.805 257.948 198.976 257.529 198.976 256.973C198.976 256.408 198.792 256.002 198.422 255.756C198.053 255.51 197.497 255.387 196.754 255.387H195.674V258.654ZM195.674 260.008V264H194.041V254.006H196.864C198.153 254.006 199.108 254.247 199.728 254.73C200.348 255.214 200.658 255.943 200.658 256.918C200.658 258.162 200.011 259.049 198.716 259.577L201.54 264H199.68L197.288 260.008H195.674Z" fill="#474646"/>
<path d="M152.337 349H150.334L145.419 341.036H145.365L145.399 341.48C145.463 342.328 145.495 343.103 145.495 343.805V349H144.011V339.006H145.994L150.895 346.929H150.936C150.927 346.824 150.909 346.443 150.881 345.787C150.854 345.126 150.84 344.611 150.84 344.242V339.006H152.337V349ZM160.629 349H154.976V339.006H160.629V340.387H156.61V343.107H160.376V344.475H156.61V347.612H160.629V349ZM167.048 340.264C166.11 340.264 165.371 340.596 164.833 341.262C164.296 341.927 164.027 342.845 164.027 344.017C164.027 345.243 164.284 346.17 164.799 346.799C165.319 347.428 166.069 347.742 167.048 347.742C167.472 347.742 167.882 347.701 168.279 347.619C168.675 347.533 169.088 347.423 169.516 347.291V348.692C168.732 348.989 167.844 349.137 166.85 349.137C165.387 349.137 164.264 348.695 163.48 347.811C162.696 346.922 162.304 345.653 162.304 344.003C162.304 342.964 162.493 342.055 162.872 341.275C163.254 340.496 163.806 339.899 164.526 339.484C165.246 339.07 166.091 338.862 167.062 338.862C168.083 338.862 169.026 339.076 169.892 339.505L169.304 340.865C168.967 340.706 168.609 340.567 168.231 340.448C167.857 340.325 167.463 340.264 167.048 340.264ZM177.323 349H171.669V339.006H177.323V340.387H173.303V343.107H177.07V344.475H173.303V347.612H177.323V349ZM185.252 346.286C185.252 347.175 184.931 347.872 184.289 348.378C183.646 348.884 182.76 349.137 181.629 349.137C180.499 349.137 179.574 348.961 178.854 348.61V347.065C179.31 347.28 179.793 347.448 180.303 347.571C180.818 347.694 181.297 347.756 181.739 347.756C182.386 347.756 182.862 347.633 183.167 347.387C183.477 347.141 183.632 346.81 183.632 346.396C183.632 346.022 183.491 345.705 183.208 345.445C182.926 345.186 182.343 344.878 181.458 344.522C180.547 344.153 179.904 343.732 179.531 343.258C179.157 342.784 178.97 342.214 178.97 341.549C178.97 340.715 179.266 340.059 179.859 339.58C180.451 339.102 181.247 338.862 182.245 338.862C183.202 338.862 184.154 339.072 185.102 339.491L184.583 340.824C183.694 340.451 182.901 340.264 182.204 340.264C181.675 340.264 181.274 340.38 181 340.612C180.727 340.84 180.59 341.143 180.59 341.521C180.59 341.781 180.645 342.005 180.754 342.191C180.864 342.374 181.044 342.547 181.294 342.711C181.545 342.875 181.996 343.091 182.648 343.36C183.382 343.666 183.919 343.951 184.261 344.215C184.603 344.479 184.854 344.778 185.013 345.11C185.173 345.443 185.252 345.835 185.252 346.286ZM187.187 349V339.006H188.821V349H187.187ZM199.594 343.907C199.594 345.557 199.136 346.819 198.22 347.694C197.304 348.565 195.985 349 194.262 349H191.466V339.006H194.556C196.147 339.006 197.384 339.434 198.268 340.291C199.152 341.148 199.594 342.353 199.594 343.907ZM197.872 343.962C197.872 341.569 196.753 340.373 194.515 340.373H193.1V347.626H194.262C196.668 347.626 197.872 346.405 197.872 343.962ZM207.948 349L206.95 346.225H203.128L202.151 349H200.428L204.167 338.965H205.945L209.684 349H207.948ZM206.519 344.816L205.583 342.096C205.514 341.913 205.418 341.626 205.295 341.234C205.177 340.842 205.095 340.555 205.049 340.373C204.926 340.934 204.746 341.547 204.509 342.212L203.607 344.816H206.519ZM219.131 343.907C219.131 345.557 218.673 346.819 217.757 347.694C216.841 348.565 215.522 349 213.799 349H211.003V339.006H214.093C215.684 339.006 216.921 339.434 217.805 340.291C218.689 341.148 219.131 342.353 219.131 343.907ZM217.409 343.962C217.409 341.569 216.29 340.373 214.052 340.373H212.637V347.626H213.799C216.206 347.626 217.409 346.405 217.409 343.962ZM226.938 349H221.285V339.006H226.938V340.387H222.918V343.107H226.685V344.475H222.918V347.612H226.938V349ZM234.868 346.286C234.868 347.175 234.546 347.872 233.904 348.378C233.261 348.884 232.375 349.137 231.245 349.137C230.114 349.137 229.189 348.961 228.469 348.61V347.065C228.925 347.28 229.408 347.448 229.918 347.571C230.433 347.694 230.912 347.756 231.354 347.756C232.001 347.756 232.477 347.633 232.783 347.387C233.093 347.141 233.248 346.81 233.248 346.396C233.248 346.022 233.106 345.705 232.824 345.445C232.541 345.186 231.958 344.878 231.074 344.522C230.162 344.153 229.52 343.732 229.146 343.258C228.772 342.784 228.585 342.214 228.585 341.549C228.585 340.715 228.882 340.059 229.474 339.58C230.067 339.102 230.862 338.862 231.86 338.862C232.817 338.862 233.769 339.072 234.717 339.491L234.198 340.824C233.309 340.451 232.516 340.264 231.819 340.264C231.29 340.264 230.889 340.38 230.616 340.612C230.342 340.84 230.206 341.143 230.206 341.521C230.206 341.781 230.26 342.005 230.37 342.191C230.479 342.374 230.659 342.547 230.91 342.711C231.16 342.875 231.611 343.091 232.263 343.36C232.997 343.666 233.535 343.951 233.876 344.215C234.218 344.479 234.469 344.778 234.628 345.11C234.788 345.443 234.868 345.835 234.868 346.286ZM144.011 358.006H146.978C148.354 358.006 149.348 358.206 149.958 358.607C150.574 359.008 150.881 359.642 150.881 360.508C150.881 361.091 150.731 361.576 150.43 361.964C150.129 362.351 149.696 362.595 149.131 362.695V362.764C149.833 362.896 150.348 363.158 150.676 363.55C151.009 363.937 151.175 364.464 151.175 365.129C151.175 366.027 150.861 366.731 150.232 367.241C149.608 367.747 148.737 368 147.621 368H144.011V358.006ZM145.645 362.135H147.217C147.901 362.135 148.4 362.028 148.714 361.813C149.029 361.595 149.186 361.226 149.186 360.706C149.186 360.237 149.015 359.897 148.673 359.688C148.336 359.478 147.798 359.373 147.06 359.373H145.645V362.135ZM145.645 363.461V366.626H147.381C148.065 366.626 148.58 366.496 148.926 366.236C149.277 365.972 149.453 365.557 149.453 364.992C149.453 364.473 149.275 364.088 148.919 363.837C148.564 363.586 148.024 363.461 147.299 363.461H145.645ZM159.454 368L158.456 365.225H154.634L153.657 368H151.934L155.673 357.965H157.451L161.19 368H159.454ZM158.025 363.816L157.088 361.096C157.02 360.913 156.924 360.626 156.801 360.234C156.683 359.842 156.601 359.555 156.555 359.373C156.432 359.934 156.252 360.547 156.015 361.212L155.113 363.816H158.025ZM155.571 357.206V357.035C155.831 356.716 156.097 356.361 156.371 355.969C156.649 355.577 156.867 355.242 157.027 354.964H158.893V355.107C158.656 355.385 158.301 355.745 157.827 356.188C157.357 356.625 156.961 356.965 156.637 357.206H155.571ZM168.272 365.286C168.272 366.175 167.951 366.872 167.308 367.378C166.666 367.884 165.779 368.137 164.649 368.137C163.519 368.137 162.594 367.961 161.874 367.61V366.065C162.329 366.28 162.812 366.448 163.323 366.571C163.838 366.694 164.316 366.756 164.758 366.756C165.405 366.756 165.882 366.633 166.187 366.387C166.497 366.141 166.652 365.81 166.652 365.396C166.652 365.022 166.511 364.705 166.228 364.445C165.945 364.186 165.362 363.878 164.478 363.522C163.567 363.153 162.924 362.732 162.55 362.258C162.177 361.784 161.99 361.214 161.99 360.549C161.99 359.715 162.286 359.059 162.878 358.58C163.471 358.102 164.266 357.862 165.264 357.862C166.221 357.862 167.174 358.072 168.122 358.491L167.602 359.824C166.713 359.451 165.92 359.264 165.223 359.264C164.694 359.264 164.293 359.38 164.02 359.612C163.747 359.84 163.61 360.143 163.61 360.521C163.61 360.781 163.665 361.005 163.774 361.191C163.883 361.374 164.063 361.547 164.314 361.711C164.565 361.875 165.016 362.091 165.667 362.36C166.401 362.666 166.939 362.951 167.281 363.215C167.623 363.479 167.873 363.778 168.033 364.11C168.192 364.443 168.272 364.835 168.272 365.286ZM170.207 368V358.006H171.84V368H170.207ZM178.738 359.264C177.799 359.264 177.061 359.596 176.523 360.262C175.985 360.927 175.716 361.845 175.716 363.017C175.716 364.243 175.974 365.17 176.489 365.799C177.008 366.428 177.758 366.742 178.738 366.742C179.162 366.742 179.572 366.701 179.968 366.619C180.365 366.533 180.777 366.423 181.206 366.291V367.692C180.422 367.989 179.533 368.137 178.54 368.137C177.077 368.137 175.953 367.695 175.169 366.811C174.386 365.922 173.994 364.653 173.994 363.003C173.994 361.964 174.183 361.055 174.561 360.275C174.944 359.496 175.495 358.899 176.215 358.484C176.935 358.07 177.781 357.862 178.751 357.862C179.772 357.862 180.716 358.076 181.582 358.505L180.994 359.865C180.656 359.706 180.299 359.567 179.92 359.448C179.547 359.325 179.153 359.264 178.738 359.264ZM189.559 368L188.561 365.225H184.74L183.762 368H182.04L185.779 357.965H187.556L191.295 368H189.559ZM188.13 363.816L187.194 361.096C187.125 360.913 187.03 360.626 186.907 360.234C186.788 359.842 186.706 359.555 186.661 359.373C186.538 359.934 186.358 360.547 186.121 361.212L185.218 363.816H188.13ZM198.377 365.286C198.377 366.175 198.056 366.872 197.414 367.378C196.771 367.884 195.885 368.137 194.754 368.137C193.624 368.137 192.699 367.961 191.979 367.61V366.065C192.435 366.28 192.918 366.448 193.428 366.571C193.943 366.694 194.422 366.756 194.864 366.756C195.511 366.756 195.987 366.633 196.292 366.387C196.602 366.141 196.757 365.81 196.757 365.396C196.757 365.022 196.616 364.705 196.333 364.445C196.051 364.186 195.468 363.878 194.583 363.522C193.672 363.153 193.029 362.732 192.656 362.258C192.282 361.784 192.095 361.214 192.095 360.549C192.095 359.715 192.391 359.059 192.984 358.58C193.576 358.102 194.372 357.862 195.37 357.862C196.327 357.862 197.279 358.072 198.227 358.491L197.708 359.824C196.819 359.451 196.026 359.264 195.329 359.264C194.8 359.264 194.399 359.38 194.125 359.612C193.852 359.84 193.715 360.143 193.715 360.521C193.715 360.781 193.77 361.005 193.879 361.191C193.989 361.374 194.169 361.547 194.419 361.711C194.67 361.875 195.121 362.091 195.773 362.36C196.507 362.666 197.044 362.951 197.386 363.215C197.728 363.479 197.979 363.778 198.138 364.11C198.298 364.443 198.377 364.835 198.377 365.286Z" fill="#474646"/>
<path d="M102.277 0.134935L102.277 0.0683594L100.092 0.0668229L49.069 0.0309491L35.4311 0.0213604C18.1767 0.00922904 4.17546 8.49173 4.15643 18.9666L4.0047 102.471L102.091 102.54L102.277 0.134935Z" fill="#0081C2"/>
<path d="M102.088 203.711L102.272 102.541L4.18546 102.472L4.00163 203.642L102.088 203.711Z" fill="#7AB24D"/>
<path d="M102.088 304.883L102.272 203.715L4.18385 203.646L4.00002 304.814L102.088 304.883Z" fill="#164284"/>
<path d="M102.088 405.892L102.272 304.723L4.18546 304.654L4.00163 405.823L102.088 405.892Z" fill="#2D96E2"/>
<path d="M101.88 505.934L102.063 405.15L4.18736 405.082L4.03848 487.013C4.11784 497.47 18.012 505.942 35.1712 505.954L48.7822 505.963L99.6988 505.999L101.88 506.001L101.88 505.934Z" fill="#C0D100"/>
<path fill-rule="evenodd" clip-rule="evenodd" d="M61.417 48.8328C61.5513 48.9792 61.6733 49.1135 61.8076 49.2599C61.893 49.2233 61.9662 49.2111 62.0151 49.1623C62.5765 48.6131 63.1135 48.0517 63.6749 47.5147C65.7497 45.5497 68.8374 45.5497 70.8268 47.5147C72.8161 49.4674 72.9138 52.6162 70.9366 54.6666C68.2516 57.437 65.5056 60.1343 62.7717 62.8559C62.1493 63.4783 61.5513 63.4661 60.9166 62.8315C58.2072 60.1343 55.4124 57.4859 52.8372 54.6666C52.0073 53.7634 51.3238 53.6536 50.3108 53.9099C49.0904 54.215 47.8943 54.3005 46.7349 53.6292C46.4908 53.4949 46.088 53.556 45.7707 53.6292C43.8424 54.032 42.268 53.5438 41.1329 51.8717C41.0231 51.7131 40.7546 51.6154 40.5593 51.6032C36.544 51.3469 33.2121 49.6993 30.7224 46.5627C29.6118 45.1714 28.3669 44.1462 26.7071 43.4872C24.6201 42.6694 22.6185 41.6443 20.5682 40.7533C19.8725 40.4238 19.5674 39.9844 19.5674 39.2155C19.5918 33.7601 19.5796 28.2924 19.5796 22.8369C19.5796 21.5555 20.3485 21.0795 21.4835 21.6409C25.9016 23.8255 30.3075 26.0346 34.7377 28.207C35.1649 28.4145 35.6775 28.5243 36.1535 28.5243C41.5479 28.4389 46.9301 28.3168 52.3124 28.2192C54.375 28.1826 56.0958 28.9026 57.4505 30.477C58.8174 32.0514 60.1966 33.6014 61.5391 35.188C62.906 36.8112 63.3576 38.6785 62.9182 40.7533C62.8572 41.034 62.7962 41.3025 62.7351 41.5832C62.5521 42.4009 62.491 43.1698 62.784 44.0486C63.3942 45.8549 62.7717 47.4781 61.417 48.8328ZM21.8985 24.3991C21.8741 24.5334 21.8496 24.5944 21.8496 24.6676C21.8496 29.2322 21.8496 33.7967 21.8374 38.3612C21.8374 38.8006 22.0693 38.9226 22.3867 39.0569C24.5225 40.0088 26.6339 41.0218 28.7819 41.925C29.9535 42.4132 30.9299 43.0478 31.65 44.1096C32.0405 44.6954 32.5165 45.2324 33.0169 45.745C35.5798 48.3446 38.6554 49.7847 42.329 49.1257C43.8424 48.8572 45.2581 48.0029 46.7105 47.3926C47.5648 47.0387 48.3215 46.4773 49.3711 46.6237C52.1781 47.0265 54.9974 47.3194 57.8045 47.6733C59.2446 47.8564 60.4529 47.0387 60.697 45.6962C60.9288 44.4025 60.0989 43.2309 58.6832 42.9135C56.5596 42.4376 54.436 41.986 52.3124 41.5222C50.8112 41.1927 49.31 40.8876 47.8211 40.5336C47.162 40.375 46.8325 39.8014 46.979 39.1911C47.1132 38.6175 47.6258 38.288 48.2727 38.349C48.4801 38.3734 48.6876 38.4222 48.8951 38.4711C49.4687 38.5931 50.0301 38.7029 50.6892 38.8372C50.4329 38.1904 50.2132 37.6411 50.0179 37.0919C49.7738 36.4085 50.0301 35.786 50.6159 35.5542C51.214 35.3223 51.812 35.5786 52.1049 36.2498C52.3978 36.9211 52.6541 37.6045 52.9226 38.288C53.4352 39.5939 53.5328 39.6549 54.973 39.6671C55.4734 38.0073 55.7663 37.6167 56.523 37.812C57.9753 38.1781 57.3163 39.3132 57.2675 40.2285C58.3659 40.497 59.4277 40.7655 60.5017 41.0218C61.1241 39.2277 60.7824 37.6533 59.4765 36.2498C58.2072 34.8829 56.999 33.455 55.7907 32.027C54.8631 30.9408 53.7037 30.4526 52.3002 30.477C46.8447 30.5869 41.377 30.7211 35.9216 30.7944C35.2625 30.8066 34.5547 30.6479 33.9688 30.355C30.1488 28.4999 26.3532 26.5838 22.5453 24.692C22.35 24.5944 22.1304 24.509 21.8985 24.3991ZM61.8686 60.537C64.3828 58.0229 66.8603 55.5941 69.2768 53.1044C69.704 52.665 69.9603 51.9572 70.0579 51.3469C70.2288 50.2241 69.5331 49.1379 68.5201 48.6253C67.4461 48.0883 66.2134 48.2592 65.2981 49.1135C64.4194 49.9434 63.6017 50.8221 62.7351 51.652C62.1615 52.2013 61.5757 52.1891 60.9899 51.652C60.8312 51.5056 60.6848 51.3591 60.5383 51.2005C59.8426 50.4316 59.1958 49.7725 57.9387 49.919C56.8891 50.041 55.7785 49.7359 54.7167 49.5651C54.2041 49.4796 53.9722 49.6993 53.838 50.1265C53.4352 51.3225 53.7037 52.3599 54.5824 53.2509C56.9135 55.5941 59.2568 57.9252 61.6001 60.2685C61.6611 60.3539 61.7466 60.4272 61.8686 60.537ZM51.2872 51.4324C51.4214 50.6391 51.5313 49.9434 51.6411 49.2233C51.2994 49.1745 50.9821 49.1135 50.6526 49.0769C50.323 49.0281 49.9935 48.9548 49.664 48.9792C49.1392 49.0281 48.6022 49.0525 48.1262 49.2477C47.3817 49.5406 47.1498 50.1509 47.3573 50.8465C47.5648 51.5544 48.1628 51.945 48.9439 51.8351C49.7372 51.7253 50.5183 51.5666 51.2872 51.4324ZM44.9652 50.7733C44.5014 50.9442 44.1475 51.0662 43.7936 51.2005C43.8058 51.2615 43.8058 51.3225 43.818 51.3713C44.2329 51.3958 44.6601 51.4324 45.1605 51.4568C45.075 51.1761 45.0262 51.0052 44.9652 50.7733Z" fill="white"/>
<path fill-rule="evenodd" clip-rule="evenodd" d="M49.1272 69.0683C49.6276 67.1521 50.726 65.8951 52.6055 65.4435C53.0571 65.3337 53.5453 65.3215 54.009 65.3215C57.2921 65.3093 60.5751 65.3337 63.8704 65.297C64.2243 65.297 64.6515 65.1384 64.9322 64.9065C69.5821 60.9766 76.2215 60.9522 80.8836 64.8699C81.1887 65.1262 81.6647 65.2848 82.0675 65.297C83.4588 65.3459 84.8623 65.3093 86.2537 65.3215C87.291 65.3215 87.6816 65.712 87.6816 66.725C87.6816 71.8509 87.6816 76.9891 87.6816 82.115C87.6816 83.128 87.2666 83.604 86.2537 83.5063C81.7135 83.0426 77.4785 84.4339 73.1947 85.5811C70.1191 86.3988 67.0436 87.2165 63.9558 88.022C60.7216 88.852 57.6826 88.3882 54.8634 86.5819C48.8099 82.7252 42.7442 78.8686 36.6907 75.0119C36.1903 74.6946 35.6899 74.3895 35.2017 74.0478C33.31 72.7052 32.6632 70.2643 33.6517 68.1895C34.6281 66.127 36.9348 65.0774 39.1926 65.7852C42.256 66.7494 45.2827 67.799 48.3339 68.812C48.5658 68.8852 48.8099 68.9706 49.1272 69.0683ZM85.3749 81.1875C85.3749 76.6473 85.3749 72.1438 85.3749 67.5793C84.0324 67.5793 82.7387 67.5549 81.445 67.5915C80.7616 67.6037 80.2368 67.3962 79.7364 66.9325C75.8431 63.2955 70.0215 63.3077 66.116 66.9447C65.6034 67.4207 65.0786 67.6037 64.3952 67.6037C60.8436 67.5793 57.3043 67.5915 53.7527 67.6037C52.3736 67.6037 51.3972 68.5191 51.3606 69.7883C51.324 71.082 52.2882 72.0584 53.6795 72.1316C53.887 72.1438 54.1067 72.1316 54.3142 72.1316C57.7925 72.1316 61.2708 72.1316 64.7369 72.1316C65.579 72.1316 66.0916 72.5588 66.0916 73.2422C66.1038 73.9135 65.579 74.3895 64.7491 74.3895C61.0389 74.4017 57.3287 74.4139 53.6063 74.3773C51.8366 74.3651 50.4941 73.5352 49.591 71.9974C49.4567 71.7655 49.1882 71.5214 48.9319 71.436C45.4902 70.2643 42.0485 69.1171 38.5946 67.9821C37.3375 67.5671 36.1781 68.0675 35.6655 69.1659C35.1285 70.2887 35.4824 71.558 36.5808 72.2659C43.1957 76.4887 49.8106 80.6993 56.4378 84.8855C58.3417 86.0815 60.4653 86.4598 62.6377 85.9473C66.3967 85.0441 70.1436 84.0311 73.8782 83.0426C77.5884 82.054 81.262 80.8335 85.2041 81.2363C85.2651 81.2241 85.2895 81.2119 85.3749 81.1875Z" fill="white"/>
<path d="M81.3323 182.887H76.8805V159.144H79.8483C81.0483 159.144 82.1306 158.421 82.5906 157.312C83.0495 156.203 82.7963 154.927 81.9475 154.077L55.2371 127.367C54.6574 126.788 53.8977 126.498 53.1379 126.498C52.3781 126.498 51.6184 126.788 51.0397 127.368L42.7505 135.656V132.434C42.7505 130.794 41.422 129.466 39.7827 129.466H36.8149C35.1756 129.466 33.847 130.794 33.847 132.434V144.559L24.3293 154.077C23.4804 154.926 23.2262 156.202 23.6862 157.312C24.1452 158.421 25.2275 159.144 26.4275 159.144H29.3953V182.887H24.9436C24.1235 182.887 23.4597 183.551 23.4597 184.371C23.4597 185.191 24.1235 185.855 24.9436 185.855H81.3323C82.1524 185.855 82.8162 185.191 82.8162 184.371C82.8162 183.551 82.1524 182.887 81.3323 182.887ZM36.8149 132.434H39.7827V138.624L36.8149 141.591V132.434ZM57.5897 182.887H48.6862V162.112H57.5897V182.887ZM73.9127 182.887H60.5575V162.112C60.5575 160.473 59.2289 159.144 57.5897 159.144H48.6862C47.0469 159.144 45.7183 160.473 45.7183 162.112V182.887H32.3631V156.176H26.4275L53.1379 129.466L79.8483 156.176H73.9127V182.887Z" fill="white"/>
<path d="M84.7407 230.294C84.2804 227.783 83.1269 225.448 81.4048 223.54C81.4014 223.536 81.3982 223.533 81.3948 223.529C80.5127 222.538 79.051 221.176 77.0971 220.313L77.0526 220.293C75.1667 219.394 73.143 218.938 71.0379 218.938C67.9246 218.938 64.9799 219.937 62.522 221.829C62.5196 221.83 62.5085 221.839 62.5055 221.841C60.3924 223.483 58.9979 225.828 58.8253 226.127C58.8176 226.14 58.81 226.153 58.8028 226.166C57.6941 228.188 57.1082 230.48 57.1082 232.794C57.1082 233.274 57.1335 233.761 57.1838 234.239C57.2304 234.686 57.4995 235.08 57.8998 235.289C58.1533 235.421 58.4183 235.53 58.6905 235.617C59.7757 238.921 62.1458 241.564 65.1589 243.05C63.8673 243.706 62.7072 244.574 61.7038 245.635C61.1936 246.174 61.2197 247.023 61.7623 247.531C62.3047 248.038 63.1581 248.012 63.6684 247.473C64.1506 246.963 64.6784 246.509 65.2476 246.116C66.0639 248.417 68.1679 250.102 70.5609 250.102H70.7621C73.1592 250.102 75.2611 248.296 76.0293 245.852C78.8767 247.628 80.6985 250.791 80.6985 254.175V268.108L68.4335 276.024C67.8087 276.428 67.6308 277.258 68.0364 277.88C68.2946 278.275 68.7273 278.491 69.1688 278.491C69.4204 278.491 69.6748 278.421 69.9015 278.275L82.7809 269.962C83.164 269.714 83.3954 269.291 83.3954 268.837V254.175C83.3954 249.425 80.7295 245.167 76.5162 243.043C80.5062 241.062 83.3277 237.064 83.6041 232.408C83.9847 232.065 84.3156 231.662 84.5802 231.208C84.7415 230.932 84.7983 230.608 84.7407 230.294ZM70.7623 247.42H70.5611C68.9473 247.42 67.5838 245.864 67.5838 244.022C67.5838 243.999 67.5833 243.976 67.5821 243.954C68.6277 244.227 69.7213 244.372 70.8427 244.372C71.8011 244.372 72.7365 244.265 73.6361 244.064C73.5306 245.878 72.233 247.42 70.7623 247.42ZM70.8425 241.689C66.7764 241.689 63.1711 239.28 61.5917 235.668C63.4641 235.141 64.8963 233.561 65.1984 231.615C66.0029 231.718 66.8182 231.77 67.6362 231.77C70.379 231.77 73.0213 231.198 75.3877 230.103C75.9976 232.186 77.9346 233.713 80.2233 233.713C80.3902 233.713 80.5561 233.704 80.7204 233.688C79.7696 238.245 75.6894 241.689 70.8425 241.689ZM80.2233 231.03C78.934 231.03 77.8851 229.987 77.8851 228.705V227.958C77.8851 227.47 77.6186 227.021 77.1891 226.785C76.7595 226.548 76.2349 226.563 75.8196 226.822C73.4468 228.304 70.617 229.087 67.6361 229.087C66.4703 229.087 65.3123 228.965 64.1943 228.724C63.796 228.638 63.3796 228.736 63.0621 228.991C62.7447 229.245 62.5601 229.629 62.5601 230.035V230.848C62.5601 232.131 61.5113 233.174 60.2222 233.174C60.1339 233.174 60.0466 233.169 59.9603 233.159C59.9402 233.156 59.9201 233.154 59.9001 233.152C59.8699 233.148 59.8401 233.143 59.8102 233.138C59.8067 233.023 59.8048 232.908 59.8048 232.794C59.8048 230.933 60.2743 229.09 61.1626 227.465C61.1661 227.458 61.1698 227.452 61.1727 227.447C61.1842 227.426 62.4022 225.326 64.1631 223.957C64.1666 223.955 64.172 223.951 64.172 223.951C66.1533 222.426 68.5274 221.62 71.0379 221.62C72.7361 221.62 74.3674 221.988 75.8863 222.712C75.9126 222.725 75.9516 222.742 76.0025 222.764C77.5021 223.427 78.6536 224.499 79.3598 225.289C79.3676 225.298 79.3755 225.307 79.3836 225.316C80.6562 226.721 81.5455 228.413 81.975 230.238C81.5339 230.735 80.896 231.03 80.2233 231.03ZM59.3577 265.349C62.4133 263.56 64.4687 260.254 64.4687 256.48C64.4687 254.781 64.0523 253.177 63.3162 251.764C63.2898 251.705 63.2596 251.648 63.2259 251.595C61.4753 248.383 58.0552 246.197 54.1315 246.197C50.2069 246.197 46.7862 248.384 45.0361 251.597C45.0034 251.649 44.9739 251.704 44.9481 251.762C44.211 253.176 43.7945 254.78 43.7945 256.48C43.7945 260.253 45.8489 263.559 48.9037 265.348C45.1224 267.292 42.7272 271.152 42.7272 275.423V280.315C42.7272 280.774 42.9626 281.201 43.3515 281.447L53.4075 287.815C53.6285 287.955 53.88 288.025 54.1317 288.025C54.3818 288.025 54.6319 287.956 54.8519 287.817L64.9317 281.483C65.3248 281.236 65.5621 280.805 65.5599 280.342L65.5362 275.417C65.5156 271.135 63.1229 267.288 59.3577 265.349ZM54.1315 248.88C56.4787 248.88 58.5816 249.938 59.9844 251.6C58.1673 252.118 56.1746 252.388 54.1318 252.388C52.0884 252.388 50.0955 252.118 48.2786 251.6C49.6814 249.938 51.7845 248.88 54.1315 248.88ZM46.4913 256.48C46.4913 255.608 46.6394 254.771 46.9121 253.99C49.1373 254.699 51.6065 255.071 54.1318 255.071C56.6565 255.071 59.1254 254.699 61.3509 253.99C61.6236 254.771 61.7717 255.608 61.7717 256.48C61.7717 260.67 58.3444 264.08 54.1315 264.08C49.9187 264.08 46.4913 260.67 46.4913 256.48ZM56.525 266.484C56.3565 267.753 55.2376 268.611 54.2252 268.611H54.061C52.9888 268.611 51.7981 267.709 51.6439 266.461C52.4409 266.658 53.2742 266.762 54.1313 266.762C54.9549 266.762 55.7566 266.666 56.525 266.484ZM54.1344 285.095L45.4239 279.579V275.423C45.4239 272.474 46.9221 269.781 49.3471 268.194C50.1898 270.106 52.1761 271.293 54.061 271.293H54.2252C56.2602 271.293 58.0591 269.976 58.8361 268.146C61.2962 269.724 62.8247 272.438 62.8391 275.43L62.8593 279.612L54.1344 285.095ZM44.4485 249.091C44.8416 248.462 44.6474 247.635 44.015 247.244C43.6043 246.99 43.1786 246.759 42.7417 246.555C44.408 245.707 45.8821 244.493 47.0522 242.975C47.5341 243.142 48.0514 243.232 48.5895 243.232C51.1807 243.232 53.2889 241.135 53.2889 238.558V235.224C53.2889 230.987 51.6616 226.974 48.7069 223.925C45.7607 220.884 41.8053 219.118 37.5694 218.951H37.5683C37.2001 218.937 36.8575 218.934 36.5205 218.942C32.3035 219.043 28.3257 220.741 25.3198 223.723C22.238 226.779 20.5408 230.864 20.5408 235.224V238.558C20.5408 241.135 22.649 243.232 25.2404 243.232C25.7784 243.232 26.2956 243.142 26.7773 242.976C28.0663 244.648 29.7242 245.951 31.6018 246.802C27.4409 248.978 24.8674 253.192 24.8674 257.857V268.837C24.8674 269.291 25.0987 269.715 25.482 269.962L37.7151 277.858C37.9418 278.004 38.1961 278.074 38.4478 278.074C38.8893 278.074 39.3221 277.858 39.5802 277.463C39.9856 276.841 39.8077 276.01 39.1831 275.607L27.5643 268.108V257.857C27.5643 254.754 29.0171 251.904 31.4509 250.066C32.2856 252.475 34.429 254.285 36.799 254.285H37.0002C39.5741 254.285 41.6285 251.968 42.352 249.379C42.4324 249.425 42.5121 249.473 42.5911 249.522C43.2239 249.913 44.0554 249.72 44.4485 249.091ZM28.5755 230.349C27.7037 231.822 27.2429 233.508 27.2429 235.224V238.558C27.2429 239.193 26.9422 239.76 26.4748 240.125C26.4346 240.151 26.3964 240.179 26.36 240.208C26.0402 240.424 25.6547 240.55 25.2402 240.55C24.136 240.55 23.2378 239.656 23.2378 238.558V235.224C23.2378 227.778 29.1009 221.804 36.5851 221.624C36.8649 221.617 37.1523 221.62 37.4638 221.632C44.8252 221.922 50.5918 227.892 50.5918 235.224V238.558C50.5918 239.656 49.6934 240.549 48.5891 240.549C48.1746 240.549 47.789 240.424 47.4691 240.208C47.4328 240.179 47.3947 240.151 47.3548 240.125C46.8874 239.76 46.5865 239.193 46.5865 238.558V235.224C46.5865 230.49 43.0407 226.398 38.3386 225.707C37.9689 225.653 37.5932 225.754 37.3011 225.985C37.009 226.217 36.8264 226.559 36.7971 226.929C36.7231 227.867 36.5522 228.791 36.2877 229.689H29.7374C29.2599 229.689 28.8177 229.94 28.5755 230.349ZM37.0002 251.603H36.799C35.2745 251.603 33.7782 249.762 33.7782 247.886C33.7782 247.771 33.7632 247.657 33.7346 247.548C34.7587 247.807 35.8252 247.942 36.9149 247.942C37.9465 247.942 38.9575 247.82 39.9313 247.588C39.8396 249.538 38.3556 251.603 37.0002 251.603ZM36.9149 245.259C33.772 245.259 30.8713 243.836 28.9656 241.404C29.5761 240.615 29.9397 239.628 29.9397 238.558V235.224C29.9397 234.236 30.151 233.263 30.5552 232.371H37.261C37.8255 232.371 38.3302 232.022 38.5259 231.495C38.863 230.588 39.1173 229.652 39.2866 228.699C41.9864 229.677 43.8897 232.278 43.8897 235.224V238.558C43.8897 239.628 44.2533 240.615 44.864 241.404C42.9584 243.836 40.0579 245.259 36.9149 245.259Z" fill="white"/>
<path d="M45.4811 381.055H32.2508C30.5323 381.055 29.1343 379.657 29.1343 377.938V355.161H73.4711V357.102C73.4711 357.801 74.0377 358.367 74.7366 358.367C75.4356 358.367 76.0022 357.801 76.0022 357.102V355.161H76.3619C77.8969 355.161 79.1458 353.912 79.1458 352.377V346.808C79.1458 345.273 77.8969 344.024 76.3619 344.024H73.9538L56.9412 319.803C55.7378 318.09 53.3649 317.675 51.652 318.878C51.5281 318.965 51.413 319.06 51.3028 319.158C51.1926 319.06 51.0775 318.965 50.9537 318.878C49.2404 317.675 46.8677 318.09 45.6645 319.803L28.6516 344.024H26.2436C24.7085 344.024 23.4597 345.273 23.4597 346.808V352.377C23.4597 353.912 24.7085 355.161 26.2436 355.161H26.6032V377.938C26.6032 381.053 29.1368 383.586 32.251 383.586H45.4811C46.18 383.586 46.7467 383.02 46.7467 382.321C46.7467 381.622 46.18 381.055 45.4811 381.055ZM53.1067 320.949C53.6779 320.548 54.4688 320.687 54.8698 321.258L72.8656 346.878C73.2665 347.449 73.1283 348.24 72.5573 348.641C72.2805 348.835 71.9449 348.91 71.612 348.852C71.279 348.794 70.9886 348.609 70.7942 348.333L52.7986 322.712C52.3975 322.141 52.5357 321.35 53.1067 320.949ZM51.3028 324.987L64.6745 344.024H37.9312L51.3028 324.987ZM29.7399 346.878L47.7357 321.258C47.9817 320.907 48.3744 320.72 48.7731 320.72C49.0244 320.72 49.278 320.794 49.4988 320.949C50.0698 321.35 50.2082 322.141 49.8071 322.712L31.8113 348.333C31.617 348.61 31.3264 348.794 30.9935 348.852C30.6604 348.91 30.3248 348.835 30.0482 348.641C29.4772 348.24 29.339 347.449 29.7399 346.878ZM25.9909 352.377V346.808C25.9909 346.668 26.1043 346.555 26.2436 346.555H27.1309C26.6964 348.068 27.2345 349.758 28.5934 350.712C29.2399 351.166 29.9937 351.403 30.7677 351.403C30.9874 351.403 31.2088 351.384 31.4296 351.345C32.4285 351.171 33.2998 350.618 33.8826 349.788L36.1534 346.555H66.4524L68.723 349.788C69.3059 350.618 70.1771 351.171 71.1761 351.345C71.397 351.384 71.6184 351.403 71.8379 351.403C72.6118 351.403 73.3658 351.166 74.0122 350.712C75.3711 349.758 75.9093 348.068 75.4747 346.555H76.362C76.5014 346.555 76.6148 346.668 76.6148 346.808V352.377C76.6148 352.516 76.5014 352.63 76.362 352.63H26.2436C26.1041 352.63 25.9909 352.516 25.9909 352.377Z" fill="white"/>
<path d="M85.4172 359.968C85.1773 359.701 84.8352 359.549 84.4765 359.549H66.56C66.2012 359.549 65.8592 359.701 65.6192 359.968C65.3793 360.235 65.2637 360.591 65.3015 360.948L65.9255 366.843C65.9992 367.538 66.6228 368.042 67.3173 367.968C68.0124 367.895 68.5163 367.272 68.4427 366.576L67.9668 362.08H83.0701L80.6233 385.198H75.1809C74.482 385.198 73.9153 385.765 73.9153 386.464C73.9153 387.163 74.482 387.73 75.1809 387.73H81.762C82.4093 387.73 82.9525 387.241 83.0205 386.597L85.7352 360.948C85.7728 360.591 85.6572 360.235 85.4172 359.968Z" fill="white"/>
<path d="M69.8462 372.263C67.9198 370.337 65.5799 369.031 63.2576 368.587C60.7568 368.108 58.5575 368.666 57.065 370.159C56.5543 370.669 56.148 371.273 55.8573 371.952C55.6095 372.531 55.2913 373.067 54.9146 373.554C54.5787 373.285 54.1689 372.991 53.6971 372.713C55.6256 370.503 55.671 367.144 53.684 364.881L53.2169 364.349C52.7557 363.823 51.9562 363.771 51.4309 364.232L50.8986 364.7C48.8818 366.471 48.3524 369.313 49.4115 371.639C49.2058 371.657 48.998 371.684 48.7871 371.726C48.1013 371.861 47.6545 372.526 47.7891 373.212C47.9238 373.898 48.5899 374.344 49.275 374.21C50.7366 373.922 52.108 374.632 53.0036 375.279C52.689 375.475 52.3586 375.649 52.0127 375.797C51.3335 376.088 50.7301 376.494 50.2194 377.005C48.723 378.501 48.0757 380.588 48.3966 382.882C48.7065 385.095 49.9305 387.367 51.8436 389.28C53.4324 390.869 56.3584 392.348 58.9595 392.877C59.7472 393.037 60.5395 393.115 61.3257 393.115C64.4335 393.115 67.4453 391.889 69.6975 389.637C72.525 386.81 73.7334 382.781 72.9295 378.861C72.3281 375.928 71.2908 373.708 69.8462 372.263ZM52.1445 367.047C52.8742 368.262 52.7729 369.818 51.8922 370.928C51.1627 369.713 51.2638 368.158 52.1445 367.047ZM67.9076 387.847C65.6878 390.067 62.5305 391.02 59.4637 390.396C57.3709 389.971 54.8644 388.721 53.6333 387.49C52.1069 385.964 51.1374 384.203 50.9034 382.531C50.695 381.043 51.0876 379.716 52.0092 378.794C52.2908 378.512 52.6271 378.287 53.0086 378.124C55.3458 377.123 57.1838 375.285 58.1843 372.948C58.3476 372.566 58.5731 372.23 58.8547 371.948C59.5275 371.276 60.4802 370.956 61.5663 370.956C63.585 370.956 66.0637 372.061 68.0563 374.053C69.129 375.126 69.9565 376.964 70.4496 379.369C71.0822 382.453 70.1319 385.623 67.9076 387.847Z" fill="white"/>
<path d="M51.6787 480.994C54.8644 480.994 57.4562 478.402 57.4562 475.216V474.061C57.4562 470.875 54.8644 468.283 51.6787 468.283C48.4929 468.283 45.9011 470.875 45.9011 474.061V475.216C45.9011 478.402 48.4929 480.994 51.6787 480.994ZM48.2121 474.061C48.2121 472.149 49.7672 470.594 51.6787 470.594C53.5902 470.594 55.1452 472.149 55.1452 474.061V475.216C55.1452 477.128 53.5902 478.683 51.6787 478.683C49.7672 478.683 48.2121 477.128 48.2121 475.216V474.061Z" fill="white"/>
<path d="M56.3108 481.031H55.3301C54.9288 481.031 54.5563 481.239 54.346 481.581C53.6721 482.676 52.6999 483.304 51.6784 483.304C50.6569 483.304 49.6847 482.676 49.0108 481.581C48.8005 481.239 48.4279 481.031 48.0267 481.031H47.046C44.4488 481.031 42.4343 483.496 42.4343 485.615V488.118C42.4343 489.287 43.385 490.237 44.5535 490.237H58.808C59.9738 490.237 60.9223 489.289 60.9223 488.123V485.615C60.9223 484.61 60.4538 483.484 59.6689 482.604C58.7637 481.59 57.571 481.031 56.3108 481.031ZM58.6114 487.926H44.7453V485.615C44.7453 484.835 45.6413 483.342 47.046 483.342H47.4169C48.5103 484.795 50.0335 485.615 51.6784 485.615C53.3233 485.615 54.8465 484.795 55.9398 483.342H56.3107C57.7153 483.342 58.6113 484.835 58.6113 485.615V487.926H58.6114Z" fill="white"/>
<path d="M51.6787 430.152C54.8644 430.152 57.4562 427.56 57.4562 424.374V423.219C57.4562 420.033 54.8644 417.441 51.6787 417.441C48.4929 417.441 45.9011 420.033 45.9011 423.219V424.374C45.9011 427.56 48.4929 430.152 51.6787 430.152ZM48.2121 423.219C48.2121 421.308 49.7672 419.752 51.6787 419.752C53.5902 419.752 55.1452 421.308 55.1452 423.219V424.374C55.1452 426.286 53.5902 427.841 51.6787 427.841C49.7672 427.841 48.2121 426.286 48.2121 424.374V423.219Z" fill="white"/>
<path d="M56.3108 430.189H55.3301C54.9288 430.189 54.5563 430.398 54.346 430.739C53.6721 431.834 52.6999 432.463 51.6784 432.463C50.6569 432.463 49.6847 431.834 49.0108 430.739C48.8005 430.398 48.4279 430.189 48.0267 430.189H47.046C44.4488 430.189 42.4343 432.654 42.4343 434.774V437.276C42.4343 438.445 43.385 439.396 44.5535 439.396H58.808C59.9738 439.396 60.9223 438.447 60.9223 437.281V434.774C60.9223 433.768 60.4538 432.642 59.6689 431.763C58.7637 430.748 57.571 430.189 56.3108 430.189ZM58.6114 437.085H44.7453V434.774C44.7453 433.993 45.6413 432.5 47.046 432.5H47.4169C48.5103 433.953 50.0335 434.774 51.6784 434.774C53.3233 434.774 54.8465 433.953 55.9398 432.5H56.3107C57.7153 432.5 58.6113 433.993 58.6113 434.774V437.085H58.6114Z" fill="white"/>
<path d="M73.6332 448.641V449.796C73.6332 452.982 76.225 455.574 79.4108 455.574C82.5965 455.574 85.1883 452.982 85.1883 449.796V448.641C85.1883 445.455 82.5965 442.863 79.4108 442.863C76.225 442.863 73.6332 445.455 73.6332 448.641ZM75.9443 448.641C75.9443 446.729 77.4993 445.174 79.4108 445.174C81.3223 445.174 82.8773 446.729 82.8773 448.641V449.796C82.8773 451.708 81.3223 453.263 79.4108 453.263C77.4993 453.263 75.9443 451.708 75.9443 449.796V448.641Z" fill="white"/>
<path d="M87.4011 457.184C86.4957 456.17 85.3032 455.611 84.0429 455.611H83.0621C82.6609 455.611 82.2884 455.819 82.0781 456.161C81.4041 457.256 80.4319 457.885 79.4104 457.885C78.389 457.885 77.4168 457.256 76.7428 456.161C76.5325 455.819 76.16 455.611 75.7587 455.611H74.778C72.1809 455.611 70.1664 458.076 70.1664 460.196V462.698C70.1664 463.867 71.1171 464.818 72.2856 464.818H86.5401C87.7058 464.818 88.6544 463.869 88.6544 462.703V460.196C88.6545 459.19 88.186 458.064 87.4011 457.184ZM86.3435 462.507H72.4774V460.196C72.4774 459.415 73.3734 457.922 74.778 457.922H75.1489C76.2423 459.375 77.7656 460.196 79.4104 460.196C81.0553 460.196 82.5786 459.375 83.6718 457.922H84.0427C85.4474 457.922 86.3433 459.415 86.3433 460.196V462.507H86.3435Z" fill="white"/>
<path d="M23.9461 455.574C27.1319 455.574 29.7237 452.982 29.7237 449.796V448.641C29.7237 445.455 27.1319 442.863 23.9461 442.863C20.7604 442.863 18.1686 445.455 18.1686 448.641V449.796C18.1686 452.982 20.7604 455.574 23.9461 455.574ZM20.4796 448.641C20.4796 446.729 22.0346 445.174 23.9461 445.174C25.8576 445.174 27.4126 446.729 27.4126 448.641V449.796C27.4126 451.708 25.8576 453.263 23.9461 453.263C22.0346 453.263 20.4796 451.708 20.4796 449.796V448.641Z" fill="white"/>
<path d="M33.1903 462.703V460.196C33.1903 459.19 32.7217 458.064 31.9368 457.184C31.0315 456.17 29.839 455.611 28.5786 455.611H27.5979C27.1967 455.611 26.8242 455.819 26.6138 456.161C25.9399 457.256 24.9677 457.885 23.9462 457.885C22.9247 457.885 21.9525 457.256 21.2786 456.161C21.0683 455.819 20.6958 455.611 20.2945 455.611H19.3138C16.7166 455.611 14.7021 458.076 14.7021 460.196V462.698C14.7021 463.867 15.6528 464.818 16.8214 464.818H31.0758C32.2418 464.818 33.1903 463.869 33.1903 462.703ZM30.8793 462.507H17.0132V460.196C17.0132 459.415 17.9091 457.922 19.3138 457.922H19.6847C20.7781 459.375 22.3013 460.196 23.9462 460.196C25.5911 460.196 27.1143 459.375 28.2076 457.922H28.5785C29.9832 457.922 30.8791 459.415 30.8791 460.196V462.507H30.8793Z" fill="white"/>
<path d="M40.7945 479.932C35.1014 477.501 30.3241 473.166 27.3428 467.727C27.036 467.168 26.3339 466.963 25.7742 467.269C25.2145 467.576 25.0095 468.278 25.3163 468.838C28.5452 474.729 33.7199 479.424 39.8867 482.058C40.0347 482.121 40.1886 482.151 40.3401 482.151C40.7889 482.151 41.2158 481.888 41.4033 481.449C41.6539 480.862 41.3813 480.183 40.7945 479.932Z" fill="white"/>
<path d="M77.5819 467.271C77.0223 466.965 76.3199 467.17 76.0131 467.729C73.0322 473.167 68.2559 477.501 62.5644 479.932C61.9776 480.183 61.705 480.862 61.9558 481.449C62.1432 481.888 62.5701 482.151 63.019 482.151C63.1703 482.151 63.3243 482.121 63.4724 482.057C69.6376 479.423 74.8109 474.729 78.0396 468.84C78.3465 468.281 78.1416 467.578 77.5819 467.271Z" fill="white"/>
<path d="M60.5561 428.137C66.7128 430.216 71.9746 434.429 75.372 439.999C75.5897 440.356 75.97 440.553 76.3596 440.553C76.5645 440.553 76.7722 440.498 76.9601 440.384C77.505 440.051 77.6771 439.34 77.3449 438.795C73.6654 432.763 67.9654 428.2 61.2954 425.948C60.691 425.744 60.035 426.068 59.8309 426.673C59.6268 427.277 59.9515 427.933 60.5561 428.137Z" fill="white"/>
<path d="M26.3963 440.383C26.5842 440.497 26.7918 440.552 26.9969 440.552C27.3865 440.552 27.7669 440.355 27.9844 439.998C31.3828 434.427 36.6457 430.214 42.804 428.135C43.4087 427.931 43.7334 427.276 43.5293 426.671C43.3251 426.066 42.6691 425.742 42.065 425.946C35.3933 428.198 29.692 432.761 26.0116 438.795C25.6793 439.339 25.8515 440.05 26.3963 440.383Z" fill="white"/>
<path d="M145.645 440.654H146.78C147.541 440.654 148.092 440.513 148.434 440.23C148.776 439.948 148.947 439.529 148.947 438.973C148.947 438.408 148.762 438.002 148.393 437.756C148.024 437.51 147.468 437.387 146.725 437.387H145.645V440.654ZM145.645 442.008V446H144.011V436.006H146.834C148.124 436.006 149.079 436.247 149.699 436.73C150.319 437.214 150.628 437.943 150.628 438.918C150.628 440.162 149.981 441.049 148.687 441.577L151.51 446H149.651L147.258 442.008H145.645ZM158.62 446H152.966V436.006H158.62V437.387H154.6V440.107H158.367V441.475H154.6V444.612H158.62V446ZM168.915 440.907C168.915 442.557 168.457 443.819 167.541 444.694C166.625 445.565 165.305 446 163.583 446H160.787V436.006H163.876C165.467 436.006 166.704 436.434 167.588 437.291C168.472 438.148 168.915 439.353 168.915 440.907ZM167.192 440.962C167.192 438.569 166.073 437.373 163.835 437.373H162.42V444.626H163.583C165.989 444.626 167.192 443.405 167.192 440.962ZM176.325 446H174.705V436.006H180.344V437.387H176.325V440.511H180.091V441.898H176.325V446ZM191.029 440.989C191.029 442.616 190.621 443.881 189.805 444.783C188.994 445.686 187.843 446.137 186.353 446.137C184.845 446.137 183.685 445.69 182.874 444.797C182.067 443.899 181.664 442.625 181.664 440.976C181.664 439.326 182.069 438.059 182.88 437.175C183.696 436.291 184.858 435.849 186.367 435.849C187.852 435.849 189.001 436.298 189.812 437.195C190.623 438.093 191.029 439.358 191.029 440.989ZM183.4 440.989C183.4 442.22 183.648 443.154 184.145 443.792C184.642 444.425 185.378 444.742 186.353 444.742C187.324 444.742 188.055 444.428 188.547 443.799C189.044 443.17 189.292 442.233 189.292 440.989C189.292 439.763 189.046 438.834 188.554 438.2C188.067 437.567 187.337 437.25 186.367 437.25C185.387 437.25 184.646 437.567 184.145 438.2C183.648 438.834 183.4 439.763 183.4 440.989ZM194.809 440.654H195.944C196.705 440.654 197.256 440.513 197.598 440.23C197.94 439.948 198.111 439.529 198.111 438.973C198.111 438.408 197.926 438.002 197.557 437.756C197.188 437.51 196.632 437.387 195.889 437.387H194.809V440.654ZM194.809 442.008V446H193.175V436.006H195.999C197.288 436.006 198.243 436.247 198.863 436.73C199.483 437.214 199.792 437.943 199.792 438.918C199.792 440.162 199.145 441.049 197.851 441.577L200.674 446H198.815L196.422 442.008H194.809ZM206.451 446L203.552 437.653H203.498C203.575 438.893 203.614 440.055 203.614 441.14V446H202.13V436.006H204.434L207.209 443.956H207.25L210.108 436.006H212.418V446H210.846V441.058C210.846 440.561 210.858 439.914 210.88 439.116C210.908 438.319 210.931 437.836 210.949 437.667H210.894L207.893 446H206.451ZM221.25 446L220.252 443.225H216.431L215.454 446H213.731L217.47 435.965H219.248L222.987 446H221.25ZM219.822 441.816L218.885 439.096C218.817 438.913 218.721 438.626 218.598 438.234C218.48 437.842 218.398 437.555 218.352 437.373C218.229 437.934 218.049 438.547 217.812 439.212L216.91 441.816H219.822ZM224.306 446V436.006H225.94V444.599H230.171V446H224.306ZM149.665 465H144.011V455.006H149.665V456.387H145.645V459.107H149.412V460.475H145.645V463.612H149.665V465ZM155.468 465V455.006H157.102V465H155.468ZM168.074 465H166.071L161.156 457.036H161.101L161.135 457.48C161.199 458.328 161.231 459.103 161.231 459.805V465H159.748V455.006H161.73L166.631 462.929H166.672C166.663 462.824 166.645 462.443 166.618 461.787C166.59 461.126 166.577 460.611 166.577 460.242V455.006H168.074V465ZM172.333 465H170.712V455.006H176.352V456.387H172.333V459.511H176.099V460.898H172.333V465ZM187.037 459.989C187.037 461.616 186.629 462.881 185.813 463.783C185.002 464.686 183.851 465.137 182.361 465.137C180.852 465.137 179.693 464.69 178.881 463.797C178.075 462.899 177.671 461.625 177.671 459.976C177.671 458.326 178.077 457.059 178.888 456.175C179.704 455.291 180.866 454.849 182.375 454.849C183.86 454.849 185.009 455.298 185.82 456.195C186.631 457.093 187.037 458.358 187.037 459.989ZM179.408 459.989C179.408 461.22 179.656 462.154 180.153 462.792C180.65 463.425 181.386 463.742 182.361 463.742C183.332 463.742 184.063 463.428 184.555 462.799C185.052 462.17 185.3 461.233 185.3 459.989C185.3 458.763 185.054 457.834 184.562 457.2C184.074 456.567 183.345 456.25 182.375 456.25C181.395 456.25 180.654 456.567 180.153 457.2C179.656 457.834 179.408 458.763 179.408 459.989ZM190.817 459.654H191.952C192.713 459.654 193.264 459.513 193.606 459.23C193.948 458.948 194.119 458.529 194.119 457.973C194.119 457.408 193.934 457.002 193.565 456.756C193.196 456.51 192.64 456.387 191.897 456.387H190.817V459.654ZM190.817 461.008V465H189.183V455.006H192.006C193.296 455.006 194.251 455.247 194.871 455.73C195.49 456.214 195.8 456.943 195.8 457.918C195.8 459.162 195.153 460.049 193.859 460.577L196.682 465H194.823L192.43 461.008H190.817ZM202.458 465L199.56 456.653H199.505C199.583 457.893 199.622 459.055 199.622 460.14V465H198.138V455.006H200.442L203.217 462.956H203.258L206.116 455.006H208.426V465H206.854V460.058C206.854 459.561 206.865 458.914 206.888 458.116C206.916 457.319 206.938 456.836 206.957 456.667H206.902L203.901 465H202.458ZM217.258 465L216.26 462.225H212.439L211.461 465H209.739L213.478 454.965H215.255L218.995 465H217.258ZM215.83 460.816L214.893 458.096C214.825 457.913 214.729 457.626 214.606 457.234C214.487 456.842 214.405 456.555 214.36 456.373C214.237 456.934 214.057 457.547 213.82 458.212L212.917 460.816H215.83ZM220.314 465V455.006H221.948V463.599H226.179V465H220.314Z" fill="#474646"/>
<path d="M123.192 49.5688C123.196 46.5963 120.791 44.1828 117.822 44.1795C114.853 44.1761 112.443 46.5841 112.44 49.5566C112.436 52.5301 114.841 54.9426 117.81 54.9459C120.779 54.9493 123.189 52.5423 123.192 49.5688ZM113.436 49.5577C113.438 47.1353 115.403 45.1741 117.822 45.1768C120.24 45.1796 122.199 47.1462 122.196 49.5676C122.193 51.9911 120.229 53.9513 117.812 53.9486C115.393 53.9468 113.433 51.9812 113.436 49.5577Z" fill="#939393"/>
<path d="M114.223 49.5595C114.221 51.5472 115.828 53.1603 117.813 53.1626C119.798 53.1648 121.409 51.5553 121.412 49.5677C121.414 47.5801 119.806 45.9669 117.821 45.9647C115.836 45.9624 114.225 47.5719 114.223 49.5595Z" fill="#0081C2"/>
<path d="M122.688 153.623C122.691 150.651 120.286 148.238 117.318 148.234C114.349 148.231 111.939 150.639 111.935 153.611C111.932 156.586 114.337 158.997 117.306 159.001C120.274 159.004 122.685 156.598 122.688 153.623ZM112.93 153.612C112.933 151.19 114.897 149.23 117.317 149.232C119.735 149.235 121.694 151.201 121.691 153.622C121.688 156.047 119.724 158.007 117.307 158.004C114.887 158.001 112.928 156.036 112.93 153.612Z" fill="#939393"/>
<path d="M113.717 153.615C113.714 155.602 115.321 157.215 117.306 157.217C119.29 157.219 120.901 155.61 120.903 153.623C120.906 151.636 119.299 150.024 117.314 150.021C115.329 150.019 113.719 151.628 113.717 153.615Z" fill="#7AB24D"/>
<path d="M122.965 253.784C122.968 250.811 120.563 248.398 117.595 248.394C114.626 248.391 112.215 250.799 112.212 253.771C112.209 256.744 114.614 259.157 117.582 259.161C120.551 259.164 122.961 256.756 122.965 253.784ZM113.208 253.773C113.211 251.35 115.175 249.388 117.594 249.391C120.013 249.393 121.971 251.361 121.969 253.782C121.966 256.204 120.002 258.165 117.584 258.162C115.165 258.16 113.205 256.194 113.208 253.773Z" fill="#939393"/>
<path d="M113.993 253.777C113.991 255.764 115.598 257.377 117.583 257.379C119.567 257.382 121.178 255.773 121.18 253.785C121.182 251.798 119.575 250.186 117.591 250.183C115.606 250.181 113.996 251.79 113.993 253.777Z" fill="#164284"/>
<path d="M122.851 354.596C122.854 351.624 120.449 349.21 117.481 349.207C114.512 349.203 112.102 351.611 112.098 354.584C112.095 357.557 114.5 359.97 117.469 359.973C120.437 359.977 122.848 357.57 122.851 354.596ZM113.094 354.585C113.097 352.163 115.061 350.201 117.481 350.204C119.899 350.207 121.858 352.174 121.855 354.595C121.852 357.018 119.888 358.979 117.471 358.976C115.051 358.973 113.092 357.008 113.094 354.585Z" fill="#939393"/>
<path d="M113.878 354.591C113.876 356.578 115.483 358.192 117.468 358.194C119.453 358.196 121.064 356.587 121.066 354.599C121.069 352.611 119.461 350.998 117.476 350.996C115.491 350.994 113.88 352.603 113.878 354.591Z" fill="#2D96E2"/>
<path d="M131.161 50.1705L131.162 49.2754L124.623 49.268L124.622 50.1631L131.161 50.1705Z" fill="#939393"/>
<path d="M130.652 154.083L130.653 153.188L124.115 153.18L124.114 154.075L130.652 154.083Z" fill="#939393"/>
<path d="M130.933 254.241L130.934 253.346L124.396 253.338L124.395 254.233L130.933 254.241Z" fill="#939393"/>
<path d="M130.819 355.057L130.82 354.162L124.282 354.155L124.281 355.05L130.819 355.057Z" fill="#939393"/>
<path d="M122.733 456.223C122.737 453.251 120.332 450.837 117.363 450.834C114.394 450.83 111.984 453.238 111.981 456.211C111.977 459.184 114.382 461.597 117.351 461.6C120.32 461.604 122.73 459.197 122.733 456.223ZM112.977 456.212C112.979 453.79 114.944 451.828 117.363 451.831C119.781 451.834 121.74 453.8 121.737 456.222C121.734 458.645 119.77 460.606 117.353 460.603C114.934 460.6 112.974 458.634 112.977 456.212Z" fill="#939393"/>
<path d="M113.764 456.218C113.762 458.205 115.369 459.819 117.354 459.821C119.339 459.823 120.95 458.214 120.953 456.226C120.955 454.238 119.347 452.625 117.362 452.623C115.377 452.621 113.766 454.23 113.764 456.218Z" fill="#C0D100"/>
<path d="M130.702 456.684L130.703 455.789L124.164 455.782L124.163 456.677L130.702 456.684Z" fill="#939393"/>
<defs>
<filter id="filter0_d" x="0.694702" y="0" width="328" height="514" filterUnits="userSpaceOnUse" color-interpolation-filters="sRGB">
<feFlood flood-opacity="0" result="BackgroundImageFix"/>
<feColorMatrix in="SourceAlpha" type="matrix" values="0 0 0 0 0 0 0 0 0 0 0 0 0 0 0 0 0 0 127 0"/>
<feOffset dy="4"/>
<feGaussianBlur stdDeviation="2"/>
<feColorMatrix type="matrix" values="0 0 0 0 0 0 0 0 0 0 0 0 0 0 0 0 0 0 0.25 0"/>
<feBlend mode="normal" in2="BackgroundImageFix" result="effect1_dropShadow"/>
<feBlend mode="normal" in="SourceGraphic" in2="effect1_dropShadow" result="shape"/>
</filter>
</defs>
</svg>
